/* XPM */
static char *result[] = {
/* columns rows colors chars-per-pixel */
"50 50 167 2 ",
"   c #2E2929",
".  c #302D2D",
"X  c #3A332D",
"o  c #353534",
"O  c #3C3734",
"+  c #3D3936",
"@  c #363838",
"#  c #3C3C3C",
"$  c #4F1D1F",
"%  c #631C1F",
"&  c #6E1C1F",
"*  c #7B1418",
"=  c #721A1E",
"-  c #5D1E20",
";  c #6D1E21",
":  c #741F23",
">  c #7A1D21",
",  c #4D2325",
"<  c #432A2B",
"1  c #532325",
"2  c #5B2023",
"3  c #5E292A",
"4  c #42372F",
"5  c #5A2F31",
"6  c #443331",
"7  c #483631",
"8  c #463C35",
"9  c #4B3C34",
"0  c #443E3A",
"q  c #563533",
"w  c #6D2326",
"e  c #68292B",
"r  c #732426",
"t  c #74282A",
"y  c #653433",
"u  c #643A36",
"i  c #683939",
"p  c #713D3E",
"a  c #4D4036",
"s  c #4C423A",
"d  c #554236",
"f  c #52443A",
"g  c #5C493B",
"h  c #67423C",
"j  c #634B3B",
"k  c #424242",
"l  c #4C4643",
"z  c #4A4846",
"x  c #4B4B4B",
"c  c #5A4744",
"v  c #5A4E46",
"b  c #5E534D",
"n  c #4D4F50",
"m  c #575756",
"M  c #5C5553",
"N  c #654844",
"B  c #6D5047",
"V  c #64554A",
"C  c #725540",
"Z  c #785942",
"A  c #6D5955",
"S  c #6A5E59",
"D  c #795D5A",
"F  c #5E605E",
"G  c #7D6658",
"H  c #5F6061",
"J  c #6F6663",
"K  c #626867",
"L  c #6C6C6C",
"P  c #7C6D64",
"I  c #646F70",
"U  c #6B7270",
"Y  c #787777",
"T  c #8A171C",
"R  c #84191D",
"E  c #93151B",
"W  c #9C141A",
"Q  c #A51319",
"!  c #A91319",
"~  c #B5151C",
"^  c #BC171E",
"/  c #831E22",
"(  c #931E23",
")  c #9D1D22",
"_  c #AC1A20",
"`  c #B11C22",
"'  c #BC1A21",
"]  c #832428",
"[  c #98282C",
"{  c #97383C",
"}  c #A2262B",
"|  c #B72D32",
" . c #C6171E",
".. c #CB171E",
"X. c #C41920",
"o. c #CA1A21",
"O. c #D51921",
"+. c #DA1921",
"@. c #E01D25",
"#. c #C7252B",
"$. c #DB232A",
"%. c #CC2D33",
"&. c #D52D33",
"*. c #E32129",
"=. c #8A3C40",
"-. c #8C6A6D",
";. c #8D7161",
":. c #84746C",
">. c #957A69",
",. c #847476",
"<. c #8A7774",
"1. c #96797C",
"2. c #B17A7E",
"3. c #78807D",
"4. c #9B8173",
"5. c #94837A",
"6. c #AD8A75",
"7. c #7C8585",
"8. c #878585",
"9. c #8B8482",
"0. c #8C8C8D",
"q. c #978789",
"w. c #948E90",
"e. c #829191",
"r. c #8C9393",
"t. c #9E9D9E",
"y. c #A58E82",
"u. c #AF968A",
"i. c #B59B8E",
"p. c #BCA091",
"a. c #96A1A1",
"s. c #9AA5A6",
"d. c #97AAAC",
"f. c #9FAAAB",
"g. c #A2A9A8",
"h. c #ACACAC",
"j. c #A3B2B3",
"k. c #A7BBBD",
"l. c #ACBABC",
"z. c #B4B7B9",
"x. c #C49D86",
"c. c #C39F8B",
"v. c #CCAC9B",
"b. c #DBB29C",
"n. c #DEB9A6",
"m. c #E4BBA6",
"M. c #E6BFAA",
"N. c #E9C3AF",
"B. c #E9C5B3",
"V. c #ECC9B7",
"C. c #EFCBB8",
"Z. c #A9BFC1",
"A. c #A9C2C4",
"S. c #B5C7C9",
"D. c #BED5D7",
"F. c #BED9DC",
"G. c #CFD0D0",
"H. c #C1D7D9",
"J. c #C5DBDD",
"K. c #C1DEE1",
"L. c #C5E0E2",
"P. c #C9E2E5",
"I. c #CDEAED",
"U. c #CEEFF2",
"Y. c #CFF1F4",
"T. c #D0F4F7",
"R. c #F9F9FA",
/* pixels */
"T.T.T.T.T.T.T.T.T.T.T.T.T.T.T.T.T.T.T.T.T.T.T.T.T.T.T.T.T.T.T.T.T.T.T.T.T.T.T.T.T.T.T.T.T.T.T.T.T.T.",
"T.T.T.T.T.T.T.T.T.T.T.T.T.T.T.T.T.T.T.T.T.T.T.T.T.T.T.T.T.T.T.T.T.T.T.T.T.T.T.T.T.T.T.T.T.T.T.T.T.T.",
"T.T.T.T.T.T.T.T.T.T.T.T.T.T.T.T.T.T.T.T.T.T.T.T.T.T.T.T.T.T.T.T.T.T.T.T.T.T.T.T.T.T.T.T.T.T.T.T.T.T.",
"T.T.T.T.T.T.T.T.T.T.T.T.T.T.T.T.T.T.T.T.T.T.T.T.T.T.T.T.T.T.T.T.T.T.T.T.T.T.T.T.T.T.T.T.T.T.T.T.T.T.",
"T.T.T.T.T.T.T.T.T.T.T.T.T.T.T.T.T.T.T.T.T.T.T.T.T.T.T.T.T.T.T.T.T.T.T.T.T.T.T.T.T.T.T.T.T.T.T.T.T.T.",
"T.T.T.T.T.T.T.T.T.T.T.T.T.T.T.T.T.T.T.T.T.T.T.T.T.T.T.T.T.T.T.T.T.T.T.T.T.T.T.T.T.T.T.T.T.T.T.T.T.T.",
"T.T.T.T.T.T.T.T.T.T.T.T.T.T.T.T.T.T.T.T.T.T.T.T.T.T.T.T.T.T.T.T.T.T.T.T.T.T.T.T.T.T.T.T.T.T.T.T.T.T.",
"T.T.T.T.T.T.T.T.T.T.T.T.T.T.T.T.T.T.T.T.T.T.1.{ [ } [ [ =.1.D.T.T.T.T.T.T.T.T.T.T.T.T.T.T.T.T.T.T.T.",
"T.T.T.T.T.T.T.T.T.T.T.T.T.T.T.T.T.T.T.-.R ~ O.+.+.+.+.+.@.$.| q.T.T.T.T.T.T.T.T.T.T.T.T.T.T.T.T.T.T.",
"T.T.T.T.T.T.T.T.T.T.T.T.T.T.T.T.T.<.T Q R o.+.O.+.+.+.+.+.+.+.&.1.T.T.T.T.T.T.T.T.T.T.T.T.T.T.T.T.T.",
"T.T.T.T.T.T.T.T.T.T.T.T.T.T.T.l.w Q ! T / +.+.+.+.+.+.+.O.O.+.+.&.t.T.T.T.T.T.T.T.T.T.T.T.T.T.T.T.T.",
"T.T.T.T.T.T.T.T.T.T.T.T.T.I.0.= Q Q Q = ` +.+.O.+.+.o.( e r X.+.*.{ T.T.T.T.T.T.T.T.T.T.T.T.T.T.T.T.",
"T.T.T.T.T.T.T.T.T.T.Y.P.f.i T Q Q Q Q / o.+.+.+.+._ y G 6.;.u ( +.%.l.T.T.T.T.T.T.T.T.T.T.T.T.T.T.T.",
"T.T.T.T.T.T.T.T.T.T.0.; R Q Q Q Q Q Q ^ +.+.+.+.( j 6.b.M.m.x.D t &.q.T.T.T.T.T.T.T.T.T.T.T.T.T.T.T.",
"T.T.T.T.T.T.T.T.T.T.Y R ; E R Q Q Q W _ +.+.+.) B x.N.B.V.V.B.b.;.t <.T.T.T.T.T.T.T.T.T.T.T.T.T.T.T.",
"T.Y.T.T.T.T.T.T.T.T.J.5 * * % Q Q Q E ( +.+.' h x.N.V.V.V.V.C.C.v.v m T.T.T.T.T.T.T.T.T.T.T.T.T.T.T.",
"T.T.T.T.T.T.T.T.T.T.T.F.A - ; ! Q Q Q ` +.+.r >.n.B.V.C.C.C.B.u.M k m T.T.T.T.T.T.T.T.T.T.T.T.T.T.T.",
"T.T.T.T.T.T.T.T.T.T.T.T.Y.f.; ! Q Q Q  .+.' 6 l M S P 1.i.v.P k z z H T.T.T.T.T.T.T.T.T.T.T.T.T.T.T.",
"T.T.T.T.T.T.T.T.T.T.T.T.T.K.: ! Q Q Q ^ +.( 0 x z z k k # S # k # k 7.T.T.T.T.T.T.T.T.T.T.T.T.T.T.T.",
"T.T.T.T.T.T.T.T.T.T.T.T.T.I.t ! Q Q Q ~ O.w @ # @ @ # # @ :.l U t.L s.I.T.T.T.T.T.T.T.T.T.T.T.T.T.T.",
"T.T.T.T.T.T.T.T.T.T.T.T.T.Y.p ! Q Q Q ! ^ 2 0 L 8.w.U n S v.<.z.R.z.H S.T.T.T.T.T.T.T.T.T.T.T.T.T.T.",
"T.T.T.T.T.T.T.T.T.T.T.T.T.T.,.W Q Q Q Q W i G g.R.R.h.Y P B.v.P w.9.P f.T.T.T.T.T.T.T.T.T.T.T.T.T.T.",
"T.T.T.T.T.T.T.T.T.T.T.T.T.T.Z.( Q Q Q ! Q y 6.J h.P.G.Y 4.y.J b 0 V 5.r.T.T.T.T.T.T.T.T.T.T.T.T.T.T.",
"T.T.T.T.T.T.T.T.T.T.T.T.T.T.Y.t Q Q Q Q W , >.c.;.G v f l @ o k z z # z S.T.T.T.T.T.T.T.T.T.T.T.T.T.",
"T.T.T.T.T.T.T.T.T.T.T.T.T.T.T.8.E Q Q Q Q = q p.p.A + @ # # k x n x + j 3.I.T.T.T.T.T.T.T.T.T.T.T.T.",
"T.T.T.T.T.T.T.T.T.T.T.T.T.T.T.U.e Q Q Q Q Q T q @ o k # k k k x k o X j + d.Y.T.T.T.T.T.T.T.T.T.T.T.",
"T.T.T.T.T.T.T.T.T.T.T.T.T.T.T.T.S.e W Q ! Q ! E 1 o # k # @ o 6 1 8 # U e.A.L.T.T.T.T.T.T.T.T.T.T.T.",
"T.T.T.T.T.T.T.T.T.T.T.T.T.T.T.T.T.H.D = T E W / = -   . < 1 ; > W J A.T.T.L.Y.T.T.T.T.T.T.T.T.T.T.T.",
"T.T.T.T.T.T.T.T.T.T.T.T.T.T.T.T.T.T.T.J.g.8.c - > $ : ( ' ..#.y w.I.T.T.T.T.T.T.T.T.T.T.T.T.T.T.T.T.",
"T.T.T.T.T.T.T.T.T.T.T.T.T.T.T.T.T.T.T.T.T.T.,.! X.; ..+.+.+.$.q.T.T.T.T.T.T.T.T.T.T.T.T.T.T.T.T.T.T.",
"T.T.T.T.T.T.T.T.T.T.T.T.T.T.T.T.T.T.T.T.T.P.3 ~ _ ; X.+.+.+.@.2.T.T.T.T.T.T.T.T.T.T.T.T.T.T.T.T.T.T.",
"T.T.T.T.T.T.T.T.T.T.T.T.T.T.T.T.T.T.T.T.T.a.7 y 3 R _ +.+.X.' { T.T.T.T.T.T.T.T.T.T.T.T.T.T.T.T.T.T.",
"T.T.T.T.T.T.T.T.T.T.T.T.T.T.T.T.T.T.T.T.K.l 9 d 7 & / _ ] D N d F.T.T.T.T.T.T.T.T.T.T.T.T.T.T.T.T.T.",
"T.T.T.T.T.T.T.T.T.T.T.T.T.T.T.T.T.T.T.T.j.q C C 7 7 a g s r.8.9 k.T.T.T.T.T.T.T.T.T.T.T.T.T.T.T.T.T.",
"T.T.T.T.T.T.T.T.T.T.T.T.T.T.T.T.T.T.T.T.K.9 Z C O + 9 s K n z # F.T.T.T.T.T.T.T.T.T.T.T.T.T.T.T.T.T.",
"T.T.T.T.T.T.T.T.T.T.T.T.T.T.T.T.T.T.T.T.T.j.v l o @ # Y Y.I k k k.T.T.T.T.T.T.T.T.T.T.T.T.T.T.T.T.T.",
"T.T.T.T.T.T.T.T.T.T.T.T.T.T.T.T.T.T.T.T.T.T.I.F.F a f j.T.3.4 g a.T.T.T.T.T.T.T.T.T.T.T.T.T.T.T.T.T.",
"T.T.T.T.T.T.T.T.T.T.T.T.T.T.T.T.T.T.T.T.T.T.T.T.7.f g S.T.s.9 V j.T.T.T.T.T.T.T.T.T.T.T.T.T.T.T.T.T.",
"T.T.T.T.T.T.T.T.T.T.T.T.T.T.T.T.T.T.T.T.T.T.T.T.T.P.P.T.T.T.J.I.Y.T.T.T.T.T.T.T.T.T.T.T.T.T.T.T.T.T.",
"T.T.T.T.T.T.T.T.T.T.T.T.T.T.T.T.T.T.T.T.T.T.T.T.T.T.T.T.T.T.T.T.Y.T.T.T.T.T.T.T.T.T.T.T.T.T.T.T.T.T.",
"T.T.T.T.T.T.T.T.T.T.T.T.T.T.T.T.T.T.T.T.T.T.T.T.T.T.T.T.T.T.T.T.T.T.T.T.T.T.T.T.T.T.T.T.T.T.T.T.T.T.",
"T.T.T.T.T.T.T.T.T.T.T.T.T.T.T.T.T.T.T.T.T.T.T.T.T.T.T.T.T.T.T.T.T.T.T.T.T.T.T.T.T.T.T.T.T.T.T.T.T.T.",
"T.T.T.T.T.T.T.T.T.T.T.T.T.T.T.T.T.T.T.T.T.T.T.T.T.T.T.T.T.T.T.T.T.T.T.T.T.T.T.T.T.T.T.T.T.T.T.T.T.T.",
"T.T.T.T.T.T.T.T.T.T.T.T.T.T.T.T.T.T.T.T.T.T.T.T.T.T.T.T.T.T.T.T.T.T.T.T.T.T.T.T.T.T.T.T.T.T.T.T.T.T.",
"T.T.T.T.T.T.T.T.T.T.T.T.T.T.T.T.T.T.T.T.T.T.T.T.T.T.T.T.T.T.T.T.T.T.T.T.T.T.T.T.T.T.T.T.T.T.T.T.T.T.",
"T.T.T.T.T.T.T.T.T.T.T.T.T.T.T.T.T.T.T.T.T.T.T.T.T.T.T.T.T.T.T.T.T.T.T.T.T.T.T.T.T.T.T.T.T.T.T.T.T.T.",
"T.T.T.T.T.T.T.T.T.T.T.T.T.T.T.T.T.T.T.T.T.T.T.T.T.T.T.T.T.T.T.T.T.T.T.T.T.T.T.T.T.T.T.T.T.T.T.T.T.T.",
"T.T.T.T.T.T.T.T.T.T.T.T.T.T.T.T.T.T.T.T.T.T.T.T.T.T.T.T.T.T.T.T.T.T.T.T.T.T.T.T.T.T.T.T.T.T.T.T.T.T.",
"T.T.T.T.T.T.T.T.T.T.T.T.T.T.T.T.T.T.T.T.T.T.T.T.T.T.T.T.T.T.T.T.T.T.T.T.T.T.T.T.T.T.T.T.T.T.T.T.T.T.",
"T.T.T.T.T.T.T.T.T.T.T.T.T.T.T.T.T.T.T.T.T.T.T.T.T.T.T.T.T.T.T.T.T.T.T.T.T.T.T.T.T.T.T.T.T.T.T.T.T.T."
};
