/* XPM */
static char *result[] = {
/* columns rows colors chars-per-pixel */
"50 50 180 2 ",
"   c #302626",
".  c #342C2D",
"X  c #3A2D2C",
"o  c #3E352F",
"O  c #393534",
"+  c #383634",
"@  c #373838",
"#  c #3C3C3C",
"$  c #5B1C1F",
"%  c #6C171B",
"&  c #651B1E",
"*  c #731B1E",
"=  c #7D191D",
"-  c #561F21",
";  c #5B1E21",
":  c #6D1D20",
">  c #7E1E22",
",  c #452426",
"<  c #41292A",
"1  c #592A29",
"2  c #433A34",
"3  c #463A36",
"4  c #4C3E34",
"5  c #523230",
"6  c #672829",
"7  c #6C2B2B",
"8  c #752426",
"9  c #72282A",
"0  c #66312C",
"q  c #673C3A",
"w  c #74393B",
"e  c #4C4037",
"r  c #45413F",
"t  c #4B423C",
"y  c #524237",
"u  c #56463B",
"i  c #5A4638",
"p  c #5C493A",
"a  c #66423C",
"s  c #644D3B",
"d  c #424242",
"f  c #4B4543",
"g  c #4D4947",
"h  c #464748",
"j  c #474949",
"k  c #4C4B4B",
"l  c #524944",
"z  c #5D4E44",
"x  c #53504F",
"c  c #5A514D",
"v  c #525353",
"b  c #5B5857",
"n  c #6B4A49",
"m  c #7A4F45",
"M  c #6B5349",
"N  c #665B55",
"B  c #755C56",
"V  c #795D5E",
"C  c #6D615C",
"Z  c #7F695B",
"A  c #616161",
"S  c #6C6C6C",
"D  c #766A64",
"F  c #7B6967",
"G  c #6E706F",
"H  c #7A716D",
"J  c #727272",
"K  c #7B7272",
"L  c #777A77",
"P  c #737979",
"I  c #7A7C7D",
"U  c #841217",
"Y  c #85171C",
"T  c #8C161B",
"R  c #84181C",
"E  c #94151B",
"W  c #9C141A",
"Q  c #98181D",
"!  c #A51319",
"~  c #A81319",
"^  c #AF191F",
"/  c #B4171D",
"(  c #8B1E23",
")  c #941E23",
"_  c #9C1C21",
"`  c #A51A20",
"'  c #A91B21",
"]  c #BD1A21",
"[  c #8A2124",
"{  c #8A2428",
"}  c #912F32",
"|  c #A9282D",
" . c #B62C31",
".. c #AA3237",
"X. c #CA171E",
"o. c #CD181F",
"O. c #D3171F",
"+. c #C51920",
"@. c #CB1A22",
"#. c #D51921",
"$. c #DA1921",
"%. c #E11E26",
"&. c #C4252C",
"*. c #D3252C",
"=. c #D32C33",
"-. c #E1272E",
";. c #835F45",
":. c #87585B",
">. c #915457",
",. c #816659",
"<. c #876969",
"1. c #8E7261",
"2. c #8F786B",
"3. c #947866",
"4. c #957B6B",
"5. c #887778",
"6. c #7C807D",
"7. c #8D827A",
"8. c #9C8477",
"9. c #A4836F",
"0. c #A68979",
"q. c #7A8181",
"w. c #828484",
"e. c #848B8B",
"r. c #8B8D8E",
"t. c #928D8F",
"y. c #988F91",
"u. c #8C9394",
"i. c #8D9899",
"p. c #949495",
"a. c #979898",
"s. c #9B9B9C",
"d. c #A58E82",
"f. c #B99A8A",
"g. c #A09D9B",
"h. c #95A2A3",
"j. c #9AA4A5",
"k. c #9CA9A9",
"l. c #A5A4A4",
"z. c #A2ABAD",
"x. c #ABABAB",
"c. c #A8B4B6",
"v. c #A8B7B8",
"b. c #ACBBBD",
"n. c #B4B4B4",
"m. c #BCBCBC",
"M. c #CBA28A",
"N. c #CAA998",
"B. c #D4AA92",
"V. c #DBB199",
"C. c #D5B6A6",
"Z. c #DFB9A5",
"A. c #E3BBA5",
"S. c #E3C1B0",
"D. c #EBC6B4",
"F. c #ECC8B6",
"G. c #EFCAB8",
"H. c #F0CBB8",
"J. c #B0BFC0",
"K. c #AFC1C2",
"L. c #B2C3C5",
"P. c #B6C7C9",
"I. c #B7C8CA",
"U. c #B9CCCD",
"Y. c #BDD2D4",
"T. c #C3C3C3",
"R. c #CECECE",
"E. c #C1D6D7",
"W. c #C4DBDD",
"Q. c #D5D5D5",
"!. c #DDDDDD",
"~. c #C7DEE0",
"^. c #CAE3E5",
"/. c #CDE9EB",
"(. c #D0ECEF",
"). c #CEEEF1",
"_. c #D1EFF1",
"`. c #D0F4F7",
"'. c #E4E4E4",
"]. c #FCFCFC",
/* pixels */
"`.`.`.`.`.`.`.`.`.`.`.`.`.`.`.`.`.`.`.`.`.`.`.`.`.`.`.`.`.`.`.`.`.`.`.`.`.`.`.`.`.`.`.`.`.`.`.`.`.`.",
"`.`.`.`.`.`.`.`.`.`.`.`.`.`.`.`.`.`.`.`.`.`.`.`.`.`.`.`.`.`.`.`.`.`.`.`.`.`.`.`.`.`.`.`.`.`.`.`.`.`.",
"`.`.`.`.`.`.`.`.`.`.`.`.`.`.`.`.`.`.`.`.`.`.`.`.`.`.`.`.`.`.`.`.`.`.`.`.`.`.`.`.`.`.`.`.`.`.`.`.`.`.",
"`.`.`.`.`.`.`.`.`.`.`.`.`.`.`.`.`.`.`.`.`.`.`.`.`.`.`.`.`.`.`.`.`.`.`.`.`.`.`.`.`.`.`.`.`.`.`.`.`.`.",
"`.`.`.`.`.`.`.`.`.`.`.`.`.`.`.`.`.`.`.`.`.`.`.`.`.`.`.`.`.`.`.`.`.`.`.`.`.`.`.`.`.`.`.`.`.`.`.`.`.`.",
"`.`.`.`.`.`.`.`.`.`.`.`.`.`.`.`.`.`.`.`.`.`.`.`.`.`.`.`.`.`.`.`.`.`.`.`.`.`.`.`.`.`.`.`.`.`.`.`.`.`.",
"`.`.`.`.`.`.`.`.`.`.`.`.`.`.`.`.`.`.`.`.`.`.Y.j.5.F F <.5.a.J.).`.`.`.`.`.`.`.`.`.`.`.`.`.`.`.`.`.`.",
"`.`.`.`.`.`.`.`.`.`.`.`.`.`.`.`.`.`.`.`.I.V : ( E _ +.#.&.] | } <.I.`.`.`.`.`.`.`.`.`.`.`.`.`.`.`.`.",
"`.`.`.`.`.`.`.`.`.`.`.`.`.`.`.`.`.`.Y.K * W ! ! : +.$.#.$.$.$.$.*.| 5.`.`.`.`.`.`.`.`.`.`.`.`.`.`.`.",
"`.`.`.`.`.`.`.`.`.`.`.`.`.`.I.z.r.n * E ! ~ ! * ) $.$.$.$.$.$.$.$.$.*.:.`.`.`.`.`.`.`.`.`.`.`.`.`.`.",
"`.`.`.`.`.`.`.`.`.`.`.`.`.^.; R E ! ~ ~ ! ! W > @.$.$.$.$.$.$.$.$.$.$.=.5.`.`.`.`.`.`.`.`.`.`.`.`.`.",
"`.`.`.`.`.`.`.`.`.`.`.`.`.).q % U W W ! ~ ! ! ] $.$.$.#.$.#.] ` _ @.$.%...Y.`.`.`.`.`.`.`.`.`.`.`.`.",
"`.`.`.`.`.`.`.`.`.`.`.`.`.`.z.% U $ E ~ ! ! ! #.$.$.$.$.' 8 n B M 9 X.$.=.y.`.`.`.`.`.`.`.`.`.`.`.`.",
"`.`.`.`.`.`.`.`.`.`.`.`.`.`.`.u.$ $ ~ ~ ~ W > #.$.O.@.8 n 4.M.V.B.1.7 +.-.<.`.`.`.`.`.`.`.`.`.`.`.`.",
"`.`.`.`.`.`.`.`.`.`.`.`.`.`.`.`.h.* ~ ! ! W ^ $.$.+.9 1.B.A.D.H.D.A.3.9 *.>._.`.`.`.`.`.`.`.`.`.`.`.",
"`.`.`.`.`.`.`.`.`.`.`.`.`.`.`.`.v.Y ~ ~ ! ! X.$.@.9 3.A.H.H.D.D.D.D.Z.Z | >.`.`.`.`.`.`.`.`.`.`.`.`.",
"`.`.`.`.`.`.`.`.`.`.`.`.`.`.`.`.s.E ~ ~ ! ~ o.$.[ O N d.C.F.H.F.F.G.G.N.i V `.`.`.`.`.`.`.`.`.`.`.`.",
"`.`.`.`.`.`.`.`.`.`.`.`.`.`.`.`.t.W ~ ! ! ! o.o.5 k j # l D f.S.F.N.8.C O P `.`.`.`.`.k.W.`.`.`.`.`.",
"`.`.`.`.`.`.`.`.`.`.`.`.`.`.`.`.p.E ~ ! ! ! X.Q . # d h h d d D F g h j h j.`.`.`.`.L.w.w.W.`.`.`.`.",
"`.`.`.`.`.`.`.`.`.`.`.`.`.`.`.`.z.T ~ ! ! ! ! 6 r b b h # @ + N g @ # # @ L.`.`.`.^.J l.n.r.`.`.`.`.",
"`.`.`.`.`.`.`.`.`.`.`.`.`.`.`.`.P.Y ~ ! ~ ~ W q ,.l.'.Q.w.k x 0.C J t.A J ~.`.`.).I s.l.m.s.Y.`.`.`.",
"`.`.`.`.`.`.`.`.`.`.`.`.`.`.`.`.(.: ~ ! ! ! E a 0.K '.].n.I H S.0.x.].s.S ^.`.`.h.t.l.x.m.n.b.`.`.`.",
"`.`.`.`.`.`.`.`.`.`.`.`.`.`.`.`.`.V ! ! ! ~ T 2 f.9.J l.l.D f.C.f.D l.g.x ^.`.b.a.n.l.m.T.l.U.`.`.`.",
"`.`.`.`.`.`.`.`.`.`.`.`.`.`.`.`.`.L.= ~ ~ ! W % <.Z.9.c 3 u c r f l t 2.7./.~.w.R.T.n.T.m.e.`.`.`.`.",
"`.`.`.`.`.`.`.`.`.`.`.`.`.`.`.`.`.`.K T ~ ~ ! ! 1 c r # # # # @ d j d k C Y.e.T.'.Q.T.x.q./.`.`.`.`.",
"`.`.`.`.`.`.`.`.`.`.`.`.`.`.`.`.`.`.`.H = W ! ~ E , @ d # r d d k v v d q.q.n.Q.!.'.T.I ~.`.`.`.`.`.",
"`.`.`.`.`.`.`.`.`.`.`.`.`.`.`.`.`.`.`.`.c.n * E E Y , @ r # # # j d j u.i.S m.Q.!.'.u.E.`.`.`.`.`.`.",
"`.`.`.`.`.`.`.`.`.`.`.`.`.`.`.`.`.`.`.`.`.`.U.c - ; -   . < X X @ k.K.h.P j.n.!.Q.p.U.`.`.`.`.`.`.`.",
"`.`.`.`.`.`.`.`.`.`.`.`.`.`.`.`.`.`.`.`.`.`.~.w ^ ( : ' ^ / +.{ 9 s.I x J l.m.Q.p.b.`.`.`.`.`.`.`.`.",
"`.`.`.`.`.`.`.`.`.`.`.`.`.`.`.`.`.`.`.`.`.`.N Q O.[ Q $.O.$.%. .[ 1 # S b w.T.s.v.`.`.`.`.`.`.`.`.`.",
"`.`.`.`.`.`.`.`.`.`.`.`.`.`.`.`.`.`.`.`.`.i.2 0 [ & Q #.$.$.$.&.5 p 4 e A A J z.`.`.`.`.`.`.`.`.`.`.",
"`.`.`.`.`.`.`.`.`.`.`.`.`.`.`.`.`.`.`.`.z.4 e u 5 T ! #.$.O.$.&.5 o 4 4 # G k /.`.`.`.`.`.`.`.`.`.`.",
"`.`.`.`.`.`.`.`.`.`.`.`.`.`.`.`.`.`.`.`.P y m p o 1 ; [ [ m w 1 O 2 i i b L i.`.`.`.`.`.`.`.`.`.`.`.",
"`.`.`.`.`.`.`.`.`.`.`.`.`.`.`.`.`.`.`.`.c.u ;.s o y p s e e.p.u 3 2 i N E.`.`.`.`.`.`.`.`.`.`.`.`.`.",
"`.`.`.`.`.`.`.`.`.`.`.`.`.`.`.`.`.`.`.`.`.6.u q.d @ o t k k v + d x q.(.`.`.`.`.`.`.`.`.`.`.`.`.`.`.",
"`.`.`.`.`.`.`.`.`.`.`.`.`.`.`.`.`.`.`.`.`.`.W./.v # d 6.Y.@ # r j u.`.`.`.`.`.`.`.`.`.`.`.`.`.`.`.`.",
"`.`.`.`.`.`.`.`.`.`.`.`.`.`.`.`.`.`.`.`.`.`.`.`.x e y v.`.x 4 u k.`.`.`.`.`.`.`.`.`.`.`.`.`.`.`.`.`.",
"`.`.`.`.`.`.`.`.`.`.`.`.`.`.`.`.`.`.`.`.`.`.`.`.G u z W.`.6.y z I.`.`.`.`.`.`.`.`.`.`.`.`.`.`.`.`.`.",
"`.`.`.`.`.`.`.`.`.`.`.`.`.`.`.`.`.`.`.`.`.`.`.`.`.^.~.`.`.(.W./.`.`.`.`.`.`.`.`.`.`.`.`.`.`.`.`.`.`.",
"`.`.`.`.`.`.`.`.`.`.`.`.`.`.`.`.`.`.`.`.`.`.`.`.`.`.`.`.`.`.`.`.`.`.`.`.`.`.`.`.`.`.`.`.`.`.`.`.`.`.",
"`.`.`.`.`.`.`.`.`.`.`.`.`.`.`.`.`.`.`.`.`.`.`.`.`.`.`.`.`.`.`.`.`.`.`.`.`.`.`.`.`.`.`.`.`.`.`.`.`.`.",
"`.`.`.`.`.`.`.`.`.`.`.`.`.`.`.`.`.`.`.`.`.`.`.`.`.`.`.`.`.`.`.`.`.`.`.`.`.`.`.`.`.`.`.`.`.`.`.`.`.`.",
"`.`.`.`.`.`.`.`.`.`.`.`.`.`.`.`.`.`.`.`.`.`.`.`.`.`.`.`.`.`.`.`.`.`.`.`.`.`.`.`.`.`.`.`.`.`.`.`.`.`.",
"`.`.`.`.`.`.`.`.`.`.`.`.`.`.`.`.`.`.`.`.`.`.`.`.`.`.`.`.`.`.`.`.`.`.`.`.`.`.`.`.`.`.`.`.`.`.`.`.`.`.",
"`.`.`.`.`.`.`.`.`.`.`.`.`.`.`.`.`.`.`.`.`.`.`.`.`.`.`.`.`.`.`.`.`.`.`.`.`.`.`.`.`.`.`.`.`.`.`.`.`.`.",
"`.`.`.`.`.`.`.`.`.`.`.`.`.`.`.`.`.`.`.`.`.`.`.`.`.`.`.`.`.`.`.`.`.`.`.`.`.`.`.`.`.`.`.`.`.`.`.`.`.`.",
"`.`.`.`.`.`.`.`.`.`.`.`.`.`.`.`.`.`.`.`.`.`.`.`.`.`.`.`.`.`.`.`.`.`.`.`.`.`.`.`.`.`.`.`.`.`.`.`.`.`.",
"`.`.`.`.`.`.`.`.`.`.`.`.`.`.`.`.`.`.`.`.`.`.`.`.`.`.`.`.`.`.`.`.`.`.`.`.`.`.`.`.`.`.`.`.`.`.`.`.`.`.",
"`.`.`.`.`.`.`.`.`.`.`.`.`.`.`.`.`.`.`.`.`.`.`.`.`.`.`.`.`.`.`.`.`.`.`.`.`.`.`.`.`.`.`.`.`.`.`.`.`.`.",
"`.`.`.`.`.`.`.`.`.`.`.`.`.`.`.`.`.`.`.`.`.`.`.`.`.`.`.`.`.`.`.`.`.`.`.`.`.`.`.`.`.`.`.`.`.`.`.`.`.`."
};
