/* XPM */
static char *result[] = {
/* columns rows colors chars-per-pixel */
"50 50 176 2 ",
"   c #352727",
".  c #3C2A2B",
"X  c #3B342E",
"o  c #353534",
"O  c #393534",
"+  c #3C3C3C",
"@  c #64191C",
"#  c #6C181B",
"$  c #78181C",
"%  c #7B1A1E",
"&  c #541F21",
"*  c #591F21",
"=  c #6A1E21",
"-  c #751E21",
";  c #452627",
":  c #4D2324",
">  c #572829",
",  c #44382F",
"<  c #5C332F",
"1  c #423832",
"2  c #4C3E35",
"3  c #403F3E",
"4  c #583433",
"5  c #6D2326",
"6  c #672A2A",
"7  c #752729",
"8  c #6A2F32",
"9  c #742D30",
"0  c #683132",
"q  c #653A36",
"w  c #69393C",
"e  c #743638",
"r  c #4D4037",
"t  c #47403A",
"y  c #4D4138",
"u  c #564437",
"i  c #55453B",
"p  c #5C493C",
"a  c #654E3C",
"s  c #6C523E",
"d  c #3F3F40",
"f  c #3F4040",
"g  c #424242",
"h  c #4B4543",
"j  c #4E4945",
"k  c #474848",
"l  c #4B4B4B",
"z  c #514A45",
"x  c #534A45",
"c  c #5B4E46",
"v  c #57534E",
"b  c #4E5050",
"n  c #535454",
"m  c #565857",
"M  c #5B5B5B",
"N  c #6A4B44",
"B  c #77484A",
"V  c #61554F",
"C  c #6B564B",
"Z  c #795943",
"A  c #70564B",
"S  c #685754",
"D  c #635954",
"F  c #765759",
"G  c #785B58",
"H  c #66625F",
"J  c #5C6161",
"K  c #626363",
"L  c #6B6867",
"P  c #796C67",
"I  c #6E7474",
"U  c #727473",
"Y  c #7D7273",
"T  c #767C7C",
"R  c #7C7C7C",
"E  c #8C171C",
"W  c #84191D",
"Q  c #8B191E",
"!  c #94161B",
"~  c #9C151B",
"^  c #A61319",
"/  c #A91319",
"(  c #AC181E",
")  c #B4141B",
"_  c #BC161D",
"`  c #B6191F",
"'  c #8C1E23",
"]  c #991D22",
"[  c #AB1A21",
"{  c #B41B21",
"}  c #BC1920",
"|  c #852125",
" . c #892125",
".. c #92282C",
"X. c #962F33",
"o. c #8F3A3D",
"O. c #B5262B",
"+. c #B62F35",
"@. c #AA3035",
"#. c #D4171F",
"$. c #C51C23",
"%. c #CF1920",
"&. c #D41A22",
"*. c #DA1921",
"=. c #E21D25",
"-. c #CC272E",
";. c #DC232A",
":. c #C02B31",
">. c #D42C33",
",. c #E2232B",
"<. c #804448",
"1. c #8A4C4F",
"2. c #896E5E",
"3. c #876D6F",
"4. c #89776E",
"5. c #817C7E",
"6. c #958177",
"7. c #9C8172",
"8. c #9B867B",
"9. c #A58572",
"0. c #B18D78",
"q. c #B9937D",
"w. c #7A8081",
"e. c #848384",
"r. c #8E8486",
"t. c #858C8D",
"y. c #8B8C8C",
"u. c #918283",
"i. c #92908F",
"p. c #8A9293",
"a. c #939494",
"s. c #929B9C",
"d. c #9A9A9A",
"f. c #A99185",
"g. c #B99987",
"h. c #9CA5A6",
"j. c #9EABAB",
"k. c #A3A3A3",
"l. c #A2AAAB",
"z. c #ABABAB",
"x. c #A3B1B2",
"c. c #A9B6B8",
"v. c #ADBDBE",
"b. c gray70",
"n. c #BCBCBC",
"m. c #C3A698",
"M. c #CEAE9D",
"N. c #D5AB93",
"B. c #DBBAA8",
"V. c #E3BBA5",
"C. c #E9C3AF",
"Z. c #E6C3B2",
"A. c #EDC8B6",
"S. c #EFCBB9",
"D. c #B0BEC1",
"F. c #B3C4C6",
"G. c #B7C9CB",
"H. c #B9CBCD",
"J. c #BACED0",
"K. c #BCD0D1",
"L. c #C2C2C2",
"P. c #CFCFCF",
"I. c #C2D7D9",
"U. c #C3DADC",
"Y. c #D4D4D4",
"T. c #DBDBDB",
"R. c #C7DFE1",
"E. c #C9E2E4",
"W. c #CBE7E9",
"Q. c #CDE9EB",
"!. c #D0ECEF",
"~. c #CEEEF0",
"^. c #D1EEF0",
"/. c #D0F4F7",
"(. c #E3E3E3",
"). c #FAFAFA",
/* pixels */
"/./././././././././././././././././././././././././././././././././././././././././././././././././.",
"/./././././././././././././././././././././././././././././././././././././././././././././././././.",
"/./././././././././././././././././././././././././././././././././././././././././././././././././.",
"/./././././././././././././././././././././././././././././././././././././././././././././././././.",
"/./././././././././././././././././././././././././././././././././././././././././././././././././.",
"/./././././././././././././././././././././././././././././././././././././././././././././././././.",
"/./././././././././././././././././././././.Q.h.3.F S G 3.r.x.W././././././././././././././././././.",
"/./././././././././././././././././././.K.Y 5 Q ~ ! { &.&.$.O...1.l././././././././././././././././.",
"/././././././././././././././././.Q.F.Y 5 ! ^ ^ ' ' %.*.*.*.*.*.&.+.<.J././././././././././././././.",
"/./././././././././././././.F.F B 8 % ~ / ^ / ~ = $.*.*.*.*.*.*.*.*.;.X.D./././././././././././././.",
"/./././././././././././././.5.% W ^ ^ ^ ^ ^ / W [ *.*.*.*.*.*.*.*.*.*.,.o.^././././././././././././.",
"/./././././././././././././.F.@ # E Q ^ ^ ^ ^ ( %.*.*.*.*.*.%.{ [ } *.*.>.u././././././././././././.",
"/././././././././././././././.Y $ @ $ ^ ^ ^ ~ } *.*.*.*.$.' 0 N A < { *.=.1././././././././././././.",
"/././././././././././././././.^.5.: ! ^ ^ ^ % { *.*.*.] q 2.q.N.N.0.q [ =.@.I./././././././././././.",
"/./././././././././././././././.~.w ^ ^ ^ ^ ~ %.*.*.' A g.B.V.A.S.V.0.q $.+.H./././././././././././.",
"/./././././././././././././././.Q.7 ^ ^ ^ ^ _ *.*.' A N.C.A.A.A.S.S.V.9.7 +.H./././././././././././.",
"/./././././././././././././././.U.- / / ^ ^ _ *.{ ; j 4.m.Z.S.A.A.A.A.V.G 9 I./././././././././././.",
"/./././././././././././././././.K.- / / ^ ^ _ *.5 g l g h S f.B.A.Z.m.6.c O W./././././././././././.",
"/./././././././././././././././.U.- / ^ ^ ^ ) ` . + 3 h k g g D 8.S h k h m /./././././././././././.",
"/./././././././././././././././.E.- / / ^ ^ / - x m K l d + + h v + d + + T /./././././././././././.",
"/./././././././././././././././.^.9 ^ ^ ^ ^ ^ 6 3.6.(.(.k.l b P 4.m U M K l././././././././././././.",
"/././././././././././././././././.F ^ ^ ^ ^ ~ < 0.P L.).Y.w.P M.g.a.).z.T G././././././././././././.",
"/././././././././././././././././.l.Q ^ ^ ^ ~ : 7.q.H d.z.4.4.V.M.P l.B.H D././././././././././././.",
"/././././././././././././././././.~.0 ^ ^ ^ ^ % a B.f.C 3 x V v l c h 3.5.H././././././././././././.",
"/./././././././././././././././././.F.= ^ ^ / / = h h O + + + O d k d x H R././././././././././././.",
"/././././././././././././././././././.c.0 ! ^ / ^ & o 3 d d g d l b b l J ^././././././././././././.",
"/./././././././././././././././././././.E.e.0 % E E & o d d d + k k g K R././././././././.R.p.I /./.",
"/./././././././././././././././././././././.Q.T & * :     . . . k p.H./././././././.I.s.I R d.t.R./.",
"/./././././././././././././././././././././.Q.B / ] = [ [ ` { ..J /././././.^.R.j.w.a.d.k.k.z.h.J./.",
"/./././././././././././././././././././././.e.Q #.' ' *.*.*.*.:.4 R.R.R.R.x.5.i.z.P.Y.z.k.z.B.j.G./.",
"/././././././././././././././././././././.G.1 <  .= ! %.*.*.*.-.> g m b I 5.k.Y.P.(.P.b.L.L.L.d.R./.",
"/./././././././././././././././././././.E.z 2 i y $ ^ *.*.#.#.-.4 O M K a.k.n.T.T.(.Y.D.L.D.z.p././.",
"/./././././././././././././././././././.c.t A s X : > |  .B e < , a h D y.n.P.(.(.T.D.y.e.y.x.^././.",
"/./././././././././././././././././././.U.t Z Z , 2 p a y e.a.p 2 , d L R L.B.j.t.p.h.G.W./././././.",
"/././././././././././././././././././././.j.p v + o , t j b m o X i d L m t.h.H.W./././././././././.",
"/./././././././././././././././././././././.I.I.n f g T K.o + f I G.H.m t./././././././././././././.",
"/./././././././././././././././././././././././.v r i x.^.j 2 u v././.~././././././././././././././.",
"/./././././././././././././././././././././././.U i p I./.I u c K./././././././././././././././././.",
"/././././././././././././././././././././././././.E.E././.!.R.Q././././././././././././././././././.",
"/./././././././././././././././././././././././././././././././././././././././././././././././././.",
"/./././././././././././././././././././././././././././././././././././././././././././././././././.",
"/./././././././././././././././././././././././././././././././././././././././././././././././././.",
"/./././././././././././././././././././././././././././././././././././././././././././././././././.",
"/./././././././././././././././././././././././././././././././././././././././././././././././././.",
"/./././././././././././././././././././././././././././././././././././././././././././././././././.",
"/./././././././././././././././././././././././././././././././././././././././././././././././././.",
"/./././././././././././././././././././././././././././././././././././././././././././././././././.",
"/./././././././././././././././././././././././././././././././././././././././././././././././././.",
"/./././././././././././././././././././././././././././././././././././././././././././././././././.",
"/./././././././././././././././././././././././././././././././././././././././././././././././././."
};
