/* XPM */
static char *result[] = {
/* columns rows colors chars-per-pixel */
"50 50 118 2 ",
"   c #764016",
".  c #7A4516",
"X  c #7C4716",
"o  c #7F4A15",
"O  c #7F4B15",
"+  c #7D4916",
"@  c #75421C",
"#  c #75421D",
"$  c #75431E",
"%  c #75431F",
"&  c #744629",
"*  c #74472B",
"=  c #73492F",
"-  c #734A32",
";  c #734B34",
":  c #724E3C",
">  c #715249",
",  c #70524A",
"<  c #705551",
"1  c #804C15",
"2  c #814C15",
"3  c #824E15",
"4  c #834F15",
"5  c #835015",
"6  c #845015",
"7  c #855115",
"8  c #855215",
"9  c #875415",
"0  c #885515",
"q  c #8D5A14",
"w  c #8C5A15",
"e  c #915F14",
"r  c #946214",
"t  c #946314",
"y  c #956414",
"u  c #976614",
"i  c #9B6B13",
"p  c #9D6D13",
"a  c #9D6E13",
"s  c #9E6E13",
"d  c #9F6F13",
"f  c #996A14",
"g  c #9A6A14",
"h  c #9F7013",
"j  c #A07213",
"k  c #A17213",
"l  c #A17313",
"z  c #A27413",
"x  c #A47613",
"c  c #A57813",
"v  c #A77913",
"b  c #A87A13",
"n  c #AB7F12",
"m  c #AD8113",
"M  c #AE8112",
"N  c #AE8212",
"B  c #B08412",
"V  c #B18512",
"C  c #B28612",
"Z  c #B48912",
"A  c #B58A12",
"S  c #B98E11",
"D  c #C19811",
"F  c #C19911",
"G  c #C39A11",
"H  c #C49B11",
"J  c #C49D11",
"K  c #C59D11",
"L  c #DCB80F",
"P  c #DEBA0F",
"I  c #C9A111",
"U  c #C9A211",
"Y  c #CAA311",
"T  c #CBA411",
"R  c #CFA810",
"E  c #D0A910",
"W  c #D6B110",
"Q  c #E0BC0F",
"!  c #E0BD0F",
"~  c #E3C10F",
"^  c #E4C10F",
"/  c #E5C20F",
"(  c #E5C30F",
")  c #E6C30F",
"_  c #E7C50F",
"`  c #E9C70F",
"'  c #EAC90F",
"]  c #EBCA0F",
"[  c #ECCB0F",
"{  c #EDCD0F",
"}  c #EECD0F",
"|  c #F0CF0E",
" . c #F1D10E",
".. c #F3D30E",
"X. c #F4D40E",
"o. c #F4D50E",
"O. c #F5D60E",
"+. c #F6D60E",
"@. c #F6D70E",
"#. c #F7D80E",
"$. c #6A6683",
"%. c #6A6684",
"&. c #6A6888",
"*. c #6A6889",
"=. c #6576B1",
"-. c #647ABB",
";. c #637BBF",
":. c #647ABE",
">. c #637CC2",
",. c #637DC6",
"<. c #6180CB",
"1. c #6281D1",
"2. c #6182D1",
"3. c #5E8CED",
"4. c #5D90FA",
"5. c #5D91FC",
"6. c #5D91FE",
"7. c #6088E5",
/* pixels */
"6.6.6.6.6.6.6.6.6.6.6.6.6.6.6.6.;.                        % :.,.6.6.6.6.6.6.6.6.6.6.6.6.6.6.6.6.6.6.",
"6.6.6.6.6.6.6.6.6.6.6.6.6.6.                                              < 6.6.6.6.6.6.6.6.6.6.6.6.",
"6.6.6.6.6.6.6.6.6.6.6.6.        f #.#.#.#.#.#.#...      1 #.#.#.#.#.B         =.6.6.6.6.6.6.6.6.6.6.",
"6.6.6.6.6.6.6.6.6.6.2.      #.#.#.#.#.#.#.#.#.#.#.#.#.J     g #.#.#.#.#.#.        6.6.6.6.6.6.6.6.6.",
"6.6.6.6.6.6.6.6.6.      M #.#.#.#.#.#.#.#.#.#.#.#.#.#.#.#.8     #.#.#.#.#.#.c       6.6.6.6.6.6.6.6.",
"6.6.6.6.6.6.6.6.      #.#.#.#.#.#.#.#.) G ^ #.#.#.#.#.#.#.#.#.    O.#.#.#.#.#.#.      6.6.6.6.6.6.6.",
"6.6.6.6.6.6.6.      #.#.#.#.#.#.                  [ #.#.#.#.#.#.    #.#.#.#.#.#.#.      6.6.6.6.6.6.",
"6.6.6.6.6.6.      #.#.#.#.#.          #.#.#.#.R       @.#.#.#.#.#.    #.#.#.#.#.#.O.      6.6.6.6.6.",
"6.6.6.6.6.>     #.#.#.#.#.        #.#.#.#.#.#.#.#.#.    . #.#.#.#.#.    #.#.#.#.#.#.K     <.6.6.6.6.",
"6.6.6.6.6.    #.#.#.#.X.      i #.#.#.#.#.#.#.#.#.#.#.|     #.#.#.#.#.    #.#.#.#.#.#.      6.6.6.6.",
"6.6.6.6.    j #.#.#.#.      Y #.#.#.#.#.#.#.#.#.#.#.#.#.#.    #.#.#.#. .  q #.#.#.#.#.#.      6.6.6.",
"6.6.6.;     #.#.#.#.      g #.#.#.#.#.#.#.#.#.#.#.#.#.#.#.@.  6 #.#.#.#.    #.#.#.#.#.#.m     6.6.6.",
"6.6.6.    #.#.#.#.        #.#.#.#.#.                  #.#.#.U   o.#.#.#.#.    #.#.#.#.#.#.    @ 6.6.",
"6.6.-     #.#.#.#.      #.#.#.#.#.#.        #.@.@.    #.#.#.#.    #.#.#.#.b   #.#.#.#.#.#.z     6.6.",
"6.6.    #.#.#.#.      l #.#.#.#.#.#.        #.#.#.    #.#.#.#.#.  V #.#.#.#.    #.#.#.#.#.#.    4.6.",
"6.6.    #.#.#.#.      #.#.#.#.#.#.#.        #.#.#.    #.#.#.#.#.    #.#.#.#.2   #.#.#.#.#.#.      6.",
"6.    t #.#.#.      w #.#.#.#.#.#.#.        #.#.#.    #.#.#.#.#.#.  { #.#.#.#.  v #.#.#.#.#.!     6.",
"6.    #.#.#.#.      #.#.#.#.#.#.#.#.        #.#.#.    #.#.#.#.#.#.    #.#.#.#.    #.#.#.#.#.#.    6.",
"6.    #.#.#.E       #.#.#.#.#.#.#.#.        #.#.#.    #.#.#.#.#.#.o   #.#.#.#.3   #.#.#.#.#.#.    *.",
"$.    #.#.#.      X #.#.#.#.#.#.#.#.        #.#.#.    #.#.#.#.#.#.#.  #.#.#.#.#.  #.#.#.#.#.#.    $ ",
"    A #.#.#.      #.#.#.#.#.#.#.#.#.        #.#.#.    #.#.#.#.#.#.#.  r #.#.#.#.  t #.#.#.#.#.e     ",
"    o.#.#.#.      #.#.#.#.#.#.#.#.#.        #.#.#.    #.#.#.#.#.#.#.    #.#.#.#.    #.#.#.#.#.(     ",
"    #.#.#.#.      #.#.#.#.#.#.#.#.#.        #.#.#.    #.#.#.#.#.#.#.    #.#.#.#.    #.#.#.#.#.O.    ",
"    #.#.#.#.      #.#.#.#.#.#.#.#.#.        #.#.#.    #.#.#.#.#.#.#.    #.#.#.#.    #.#.#.#.#.#.    ",
"    #.#.#.#.      #.#.#.#.#.#.#.#.#.        #.#.#.    #.#.#.#.#.#.#.    #.#.#.#.    #.#.#.#.#.#.    ",
"    #.#.#.#.      #.#.#.#.#.#.#.#.#.        #.#.#.    #.#.#.#.#.#.#.    #.#.#.#.    #.#.#.#.#.#.    ",
"    #.#.#.#.      #.#.#.#.#.#.#.#.#.        #.#.#.    #.#.#.#.#.#.#.    #.#.#.#.    #.#.#.#.#.#.    ",
"    #.#.#.#.      #.#.#.#.#.#.#.#.#.        #.#.#.    #.#.#.#.#.#.#.    #.#.#.#.    #.#.#.#.#.O.    ",
"    O.#.#.#.      #.#.#.#.#.#.#.#.#.        #.#.#.    #.#.#.#.#.#.#.    #.#.#.#.    #.#.#.#.#.(     ",
"    I #.#.#.      #.#.#.#.#.#.#.#.#.        #.#.#.    #.#.#.#.#.#.#.  u #.#.#.#.  7 #.#.#.#.#.e     ",
"%.    #.#.#.      p #.#.#.#.#.#.#.#.        #.#.#.    #.#.#.#.#.#.#.  #.#.#.#.#.  #.#.#.#.#.#.    # ",
"6.    #.#.#.L       #.#.#.#.#.#.#.#.        #.#.#.    #.#.#.#.#.#.X   #.#.#.#.k   #.#.#.#.#.#.    &.",
"6.    #.#.#.#.      #.#.#.#.#.#.#.#.        #.#.#.    #.#.#.#.#.#.    #.#.#.#.    #.#.#.#.#.#.    6.",
"6.    S #.#.#.      d #.#.#.#.#.#.#.        #.#.#.    #.#.#.#.#.#.  #.#.#.#.#.  X #.#.#.#.#.S     6.",
"6.6.    #.#.#.#.      #.#.#.#.#.#.#.        #.#.#.    #.#.#.#.#.    #.#.#.#.V   #.#.#.#.#.#.      6.",
"6.6.    #.#.#.#.      a #.#.#.#.#.#.        #.#.#.    #.#.#.#.#.  Y #.#.#.#.    #.#.#.#.#.#.    5.6.",
"6.6.&     #.#.#.#.      #.#.#.#.#.#.        #.#.#.    #.#.#.#.    #.#.#.#.^   } #.#.#.#.#.X     6.6.",
"6.6.6.    #.#.#.#.        #.#.#.#.#.                  #.#.#.0   +.#.#.#.#.    #.#.#.#.#.#.    $ 6.6.",
"6.6.6.,     #.#.#.#.        #.#.#.#.Q Q Q ] ' ` _ / X.#.#.P   y #.#.#.#.N   ..#.#.#.#.#.      6.6.6.",
"6.6.6.6.    H #.#.#.#.        #.#.#.#.#.#.#.#.#.#.#.#.#.~     #.#.#.#.#.    #.#.#.#.#.#.      6.6.6.",
"6.6.6.6.6.    #.#.#.#.#.        #.#.#.#.#.#.#.#.#.#.#.2     #.#.#.#.#.    #.#.#.#.#.#.      6.6.6.6.",
"6.6.6.6.6.*     #.#.#.#.#.        t #.#.#.#.#.#.#.W     O #.#.#.#.#.    #.#.#.#.#.#.      7.6.6.6.6.",
"6.6.6.6.6.6.      #.#.#.#.#.X           h C 9         @.#.#.#.#.#.3   x #.#.#.#.#.t       6.6.6.6.6.",
"6.6.6.6.6.6.6.      #.#.#.#.#.#.1                 #.#.#.#.#.#.#.+   4 #.#.#.#.#.s       6.6.6.6.6.6.",
"6.6.6.6.6.6.6.6.      #.#.#.#.#.#.#.#.#.X.#.#.#.#.#.#.#.#.#.#.    n #.#.#.#.#.5       6.6.6.6.6.6.6.",
"6.6.6.6.6.6.6.6.6.      T #.#.#.#.#.#.#.#.#.#.#.#.#.#.#.#.]     X.#.#.#.#.#.        6.6.6.6.6.6.6.6.",
"6.6.6.6.6.6.6.6.6.6.:       #.#.#.#.#.#.#.#.#.#.#.#.#.#.      #.#.#.#.#.D         6.6.6.6.6.6.6.6.6.",
"6.6.6.6.6.6.6.6.6.6.6.6.        Z #.#.#.#.#.#.#.#.e       #.#.#.^ F           6.6.6.6.6.6.6.6.6.6.6.",
"6.6.6.6.6.6.6.6.6.6.6.6.6.6.                                              6.6.6.6.6.6.6.6.6.6.6.6.6.",
"6.6.6.6.6.6.6.6.6.6.6.6.6.6.6.6.1.                        = -.>.3.6.6.6.6.6.6.6.6.6.6.6.6.6.6.6.6.6."
};
