/* XPM */
static char *result[] = {
/* columns rows colors chars-per-pixel */
"50 50 82 1 ",
"  c #AF8C05",
". c #AF8E0A",
"X c #B08E06",
"o c #B08F0A",
"O c #B2910B",
"+ c #B9960A",
"@ c #BD9909",
"# c #B29313",
"$ c #B3961A",
"% c #B5981F",
"& c #B59B24",
"* c #B69D2A",
"= c #B89F2D",
"- c #B59F31",
"; c #B7A133",
": c #B9A234",
"> c #B7A43A",
", c #BAA53C",
"< c #C49E07",
"1 c #C29D08",
"2 c #C7A107",
"3 c #CBA407",
"4 c #C7A108",
"5 c #C8A108",
"6 c #D4AB06",
"7 c #D9AF04",
"8 c #DDB203",
"9 c #E3B502",
"0 c #E6B902",
"q c #EBBC01",
"w c #F0BF00",
"e c #EFC002",
"r c #F4C301",
"t c #F9C701",
"y c #FFCC00",
"u c #BBA740",
"i c #BCA944",
"p c #BCAC4D",
"a c #BCAE51",
"s c #BDB056",
"d c #BDB25B",
"f c #BEB562",
"g c #BEB96B",
"h c #BFBC73",
"j c #C2B663",
"k c #C2BA6D",
"l c #C3BD74",
"z c #C2BF79",
"x c #C4C17D",
"c c #C3C484",
"v c #C8C484",
"b c #C8C78A",
"n c #C7CA94",
"m c #C9CC96",
"M c #C6CD9C",
"N c #CACF9D",
"B c #C7D2A6",
"V c #CAD1A2",
"C c #C6D4AC",
"Z c #CBD5AD",
"A c #CBD7B2",
"S c #CBD9B6",
"D c #CCDBBC",
"F c #D3DEBB",
"G c #CCDEC3",
"H c #D1DFC2",
"J c #CCE0C7",
"K c #CCE1CB",
"L c #D4E1C4",
"P c #CDE5D2",
"I c #CDE9DD",
"U c #D3E7D4",
"Y c #D3EADC",
"T c #CEECE3",
"R c #CFEFEA",
"E c #D2ECE3",
"W c #D2EFE9",
"Q c #D2F1ED",
"! c #CFF1F1",
"~ c #D0F4F7",
"^ c #D1F5FA",
"/ c #D1F8FF",
/* pixels */
"~~~~~~~~~~~~~~!^^^!^~~~~~~~~~~~~~~ULFFHY^^^~~~~~~~",
"~~~~~~~~~~~~~~^^!^!^~~~~~~~~~~~^Ydpii,iplE~~~~~~~~",
"~~~~~~~~~~~~~~^!^!^^~~~~~~~~!^^TlOXoX  X%lW^~~~~~~",
"~~~~~~~~~~~~~~^^^^^!~~~~~~~~^^Rn$OOO1@+oo#VW^~~~~~",
"~~~~~~~~~^~~~~~~!^~~~~~~~~~~^QM&OO+6886@OO&H~~~~~~",
"~~~~~~~~~~~~~~~~!^~~~~~~~~~~~B*OOO6tttt91O#vE^~^~~",
"~~~~~~~~~~~~~~~~^~~~~~~~~~~/Z,.OO6ryyyyt6Oo:D^^!~~",
"~~~~~~~~~~~~~~~~^~~~~~~~~~~Sp#.O3eyyyyyy0OO#C^^^~~",
"~~~~~~~~~~~~~~~~~~~~~~~~~~Kp#oO5qyyyyyyyrOOXC/~~~~",
"~~~~~~~~~~~~~~~~~~~~~~~~~Ea#oO4qyyyyyyyyrOOXM~~~~~",
"~~~~~~!~~~~~~~~~~~~~~~~~Wz%OO10yyyyyyyyy9OOOpD^~~~",
"~~~~~~~~~^~~~~~~~~~~~~~Wv&Oo10tyyyyyyyyq83OO#aG^~~",
"~~~~~~~~~~~~~~~~~~~~~/Rn*#O@9tyyyyyyyyw9872+o$jG/~",
"~~~~~~~~^^^~^^^~/~~~!QV:OO+8tyyyyyyyyr079971O $jP~",
"~~~~~~~~RTIITIITW~~~~Z,OOO8tyyyyyyyyr07990071o.&lW",
"~^~~~~~EVs>;;-->xLW^ZiOOO8tyyyyyyyyt0789900q71oo-A",
"~~~~~Yns;$OOOO.#&,ps>#OO6tyyyyyyyyt0898000qwq81.#>",
"~~~^Kx:O ..O....oXXXXOO6ryyyyyyyyt0779900qqwrw6.O.",
"~~^Wv#OOO45544441@+XOO3eyyyyyyyytq88990qwwwwrt6.O#",
"~~QN>oO+6etyytyt072+O5eyyyyyyyytw889900qwwwwt03o#p",
"~~V,OO40tyyyyyyyytt980yyyyyyyyye889900qqww9w03oo>J",
"!Qj#.40yyyyyyyyyyyytttyyyyyyyt8378900qqqw9111+ &hR",
"!V;X+8yyyyyyyyyyyyyyyyyyyyyyt8@+3900qwqe9<oo..*gJ~",
"Qd#O3tyyyyyyyyyyyyyyyyyyyyyy91oO@60qqqrq6ooO#>cG^!",
"Y>.+8yyyyyyyyyyyyyyyyyyyyyy01OO.O+8qeere7OOO>BR~~~",
"S*.4qyyyyyyyyyyyyyyyyyyyyy04OO##OO@9ertr7O.-C!!~~~",
"m&X6ryyyyyyr090eyyyyyyyyyt3Oo&jx#oO29tr9@O.cT/~~~~",
"b&O6tyyyyyt744438tyyyyyyyy4OX,VUkOX+2762O#fP^!~~~~",
"c&.6tyyyyyt4....+8yyyyyyyy8+o:N~Ua$O.++..-P!^!^~~~",
"c&.6ryyyyyr4.OOOOO0yyyyyyyr1.#k^~Ud%O..#>hR~~~~~~~",
"n&.6tyyyyyt3.#O.OO@eyyyyyyy3oXd^~~Ig*$$pGR!~~~~~~~",
"V*.6tyyyyyy8O.OOOOO6tyyyyyy7+XpY~~^PSAAJ!^~~~~~~^~",
"J=o2eyyyyyyr3OOOO..@8yyyyyye@ iU~~~^^^^^~~~~~~~~~~",
"Y:X+8yyyyyyy9@.OOOOO8yyyyyy01 ,J~~~~~~~~~~~~~~~~~~",
"QpOO6yyyyyyyt8+OO.O.8yyyyyye2.=V~~~~~~~~~~~~~~~~~~",
"!n*o4eyyyyyyyt9@OOOO8yyyyyye3o=m~~~~~~~~~~^~~~~~~~",
"!Ii O6yyyyyyyyye63@1eyyyyyye1#=M~~~~~~~~~~~~~~~~~~",
"!/h#.4eyyyyyyyyyeee8tyyyyyy8@.,D~~~~~~~~^~~~~~~~~~",
"^~AuXO6tyyyyyyyyyyyyyyyyyyy7+XaT~~~~~~~~~~~~~~~~~~",
"~~/c$o+8tyyyyyyyyyyyyyyyyyt3..d^~~~~~~~~~~~~~~~~~^",
"~~^YhOO+8ryyyyyyyyyyyyyyyy8@.&c/~~~~~~~~~~~~~~~~~~",
"~~~~KfXO@6ryyyyyyyyyyyyyye1O.fI!~~~~^~~~~~~~~~~~~~",
"~~~~!DpX#O6eyyyyyyyyyyyyq5O ;C/^~~~~~~~~~~~~~~~~~~",
"~^~~~~SiOOO69tyyyyyyyyye2O.$cT^!~~~~~~~~~~~~~~~~~~",
"~~~~^~~P=OOo@6etttttttq6OO&gK^^^~~~~~~~~~~~~^~~~~~",
"~~~~!^^!D*oOOO+4688875OOO*BI!^!^~~~~~~~~~~~~~~~~~~",
"~~~~~~~^QDk& XoO++@@+Oo#>MT^^^~~~~~^~~~~~~~~~~~~~~",
"~~~~~~~!^/Pnkp$      o*gBT^!!^~~~~~~~~~~~^~~~~~~~~",
"~~~~~^~~~~^/WAlspppapsvU^^~~~~~~~~~~~~~~~~~^~~~~~~",
"~~~~~~~~~~~~!!~~QQWQWQ!!^^~~~~~~~~~~~~~~~~~~~~~~~~"
};
