/* XPM */
static char *result[] = {
/* columns rows colors chars-per-pixel */
"50 50 70 1 ",
"  c #FFCB01",
". c #FECE0C",
"X c #FDCF12",
"o c #FDD016",
"O c #FCD11C",
"+ c #FAD223",
"@ c #F7D42E",
"# c #FAD32B",
"$ c #F7D537",
"% c #F9D534",
"& c #F7D63C",
"* c #F9D63A",
"= c #F5D743",
"- c #F8D742",
"; c #F5D846",
": c #F8D841",
"> c #F3D84A",
", c #EFDB57",
"< c #EFDB5D",
"1 c #F4DA53",
"2 c #F3DC5C",
"3 c #EEDC65",
"4 c #F2DD64",
"5 c #F2DE6A",
"6 c #EEDF73",
"7 c #F0DF71",
"8 c #EDE076",
"9 c #ECE17C",
"0 c #F1E073",
"q c #F1E17A",
"w c #ECE283",
"e c #E5E288",
"r c #EBE48B",
"t c #F0E486",
"y c #E4E494",
"u c #E9E592",
"i c #E6E69C",
"p c #EAE79C",
"a c #EBE89F",
"s c #DFE7AA",
"d c #DEEBBC",
"f c #E3E7A3",
"g c #E9E7A1",
"h c #E6E8A5",
"j c #E9E8A4",
"k c #E4E9AC",
"l c #E3EAB5",
"z c #E8EBB3",
"x c #E3ECBC",
"c c #E8EDB8",
"v c #DEEDC3",
"b c #DCEECC",
"n c #D6EED4",
"m c #DBEFD2",
"M c #D5EFDB",
"N c #D9EFD8",
"B c #DDF0D5",
"V c #D5F0DD",
"C c #DCF1DB",
"Z c #E3EEC3",
"A c #E1EFCA",
"S c #E0F0D2",
"D c #D6F2E5",
"F c #DBF2E4",
"G c #D5F3EC",
"H c #D9F3EB",
"J c #CFF5FB",
"K c #D0F4F7",
"L c #D8F5F2",
"P c #D1F4F9",
/* pixels */
"KKKKKKKKKKKKKKKKKKKKKKKKKKKKKKKKKGBxccZSPKKKKKKKKK",
"KKKKKKKKKKKKKKKKKKKKKKKKJKKKKKJKC,=&**&;9FKKKKKKKJ",
"KJKKKKKJKKJKKKKKKKKJKKKKKKKKKKJM0       o8HKKKKKKK",
"KKKKKKKKKKKKKJKKKKKKKKKJKKKKKJGeo  #*%#   iHJKKKKK",
"KKKKKKKKKKKKKKKKKKKKKKKKKKKJJLiX  #aZZp&  +xKKKKKK",
"KKKKKKKKKKKKKKKKJKKJKKKKKKKKKi+  .jHLKGd;  qFJKKKK",
"KKKKKKKKKKKKKKKKKKKKJKKKKKJPf%  .uDJJKJGj. %dJJKKK",
"JKKKKJKKKKKKJKKKKKKKKKKKKJPs&  X9FKKKKKKS.  sJJKKK",
"KKKKJKKKKKKKKJKKJKKKKJKKKKZ=  X4FJKKKKKJn.  kJKKKK",
"KKKKKKKKKKKKKKKKKKKKKKKKKD;.  2FKKKKKKKJn.  yKKJKK",
"KKKKKKKKJKKKKKKKKKKKKKKKD6o  2mKKKKKKKKJb.  =lJKJK",
"KKKKKKKKKKKKKKKKKKJKKKPDw+  1ZKKKKKKKKKKFu. .1xJKK",
"KKKKKKKKKKJKKKJKKKKKKJGy#  ;xPKKJKKKKKKKKF9o .2vJK",
"JKKKKKKKJJJJJJJJJKKKJGi%  %xKKKKKKKKKKKKKKF3X o4BK",
"KKKKKKKKGDMMMMMVDKKKLk*  OlLKKKKKKKKKKKKKKKF2  o3D",
"KKKKKJKVf>++++O@wZFKk=  XkGKKKKKKKKKKKKKKKKKB2  #a",
"KKKKJDi;@.      O$=>@. oaGKKKKKJKKKKKKKKKKKJJb<  @",
"KKKJm6@               XwGKKKKKKKKKKKKKKKKKKKJJy   ",
"KKJG6X  #=>>;>;;-$X  X7HKKKKJKKKKKKKJKKKKKKKKJy   ",
"KKGi@ .@iDGKKKKLFl4#.5HKKKKKKKKKKKKJKKKKKKKKJG9  X",
"KJi$ X6NGKKJKKKKKGDZlmKKKKKKKKKKKKKKKKKKKKFLK9. Or",
"KD1  >NKJKKKKKKKKKKKLPKKKKKKJLviKJKKKKKKKN1>>O  $M",
"LyO *lJKKKKKKKKKKKKKKKKKKKKKKl>-kKKKKKKKm5     %sJ",
"D$ .6KKKKKKKKKKKKKKKKKKKKKKKZ> .;vKJKKKLl.   X;sJJ",
"m# $hPKKKKKKKKKKJKKKKJKKKKKm1   .1bKKKKKx.  X3vJKK",
"jO 4NKKKKKKKKKKKKKKKKKKKKKN1     .2mKKJLx.  yGGKKK",
"6o wKPKKKKKGCSSLJKKKKKKKKL<. o27  o5mPPN>  $vJJKKK",
"5o rLKKPKKPa424qfLJKKKKJKL3X %gm2  o5fk2. +yDJKKKK",
"5X wPPPKKKP1    @kGJKKKKKKZ% #gKS=.  %%  .6GJKKKKK",
"5X rLPKKKKL2     +dLKKKKKKH;  3PKS>o    O;MJKKKKKK",
"5o rPKKKKKK<      >bJKKKKKK<  1KKKC5o  +iMKJKKKKKK",
"tO rLPKKKKPh#     .yDJKKKKJa% :FKKKmkhfdDJKKKKKKKK",
"z+ 5DKKKKKKD5      >ZJJKKKKA; &SKKKKKPPPPKKPKKKKKK",
"C# -lJKPKKKJk&     XiJKKKKKC1 $ZKKKKKKPKKKKKKKKKKK",
"G$ .wJKPKKKKKk#.    eJJKJKKH2 #aKKKKKKKKKKKKKKKKKK",
"K6X 4HKPKKKKKGZ1.   eJJKKKKL2 +rKKKKKKKKKKKKKKKPKK",
"Kx% +rPPKKKKKKKbi614vJKKKKKC1 +rKKKKKKKKKKKKKKKKKJ",
"PG,  >NPKKKKKKKPGNZADKKKKKKb; #jKKKKKKKKJKKKKJKKKK",
"PKi+ +rGKKKKKKKKJKJJJKKKKKJi@ *AKKKKKKJKKKKJKKKKKK",
"KKP7  #xKKKKKKKKKKKKKKKKKJL<  >FKKKKKKKKKKKKKKKJKK",
"JKKA2  @lGKKKKKKKKKKKKKKKKZ$  <KKKKKKKKKKKKKKKKKKK",
"KKKKz-  $iGPKKKKKKKKKKKKKD2. %kJKKKKJKKKKKKJKKKKKK",
"KKKJDf%  $rDPPKKKKKKKJKKm7. .6DKKJKKKKKJKKKKKKKKKK",
"KKKKJDa$  +6ZGPPJKKJKJJNq.  ;lJKKKKKKKKKKKKKKKKKKK",
"KJKKKKGl+   &aNDGGKLGDbr. .@kKKKKKKKJKKKKKKKJKKKKK",
"KKKKKKJGkO  .X#2gxxZc5oX .7vLPKKKKKKKKKKKKKKKKKKKK",
"KKKKJKKKGx4X   X#%%$%o  o7mKPKKKKKKKKKKKKKKKKKKKKJ",
"KKKKKKKKJPbr4&.       O2umKKKKKKKKKKKKKKKKKKKKKKKK",
"JKKKKKKKKJJKFh3>>;>>;19SKKKKKKKKJKKKKKKKKKJKKKKKKK",
"KKKKKKKKKKKKKKKLDFFFFHKKKKKKKKKKKKKKKKKKKKKKKKKKKK"
};
