/* XPM */
static char *result[] = {
/* columns rows colors chars-per-pixel */
"50 50 232 2 ",
"   c #010101",
".  c #080703",
"X  c #0B0A05",
"o  c #04070A",
"O  c #07090A",
"+  c #0B0C0B",
"@  c #110F07",
"#  c #14120A",
"$  c #171408",
"%  c #1B1A0C",
"&  c #090E15",
"*  c #0E1212",
"=  c #0C121A",
"-  c #121413",
";  c #151917",
":  c #1B1B12",
">  c #151A1A",
",  c #1B1D1C",
"<  c #211E0E",
"1  c #231E1A",
"2  c #1D221E",
"3  c #27230E",
"4  c #32280E",
"5  c #38350E",
"6  c #242212",
"7  c #2A2612",
"8  c #2D2A14",
"9  c #29261C",
"0  c #332D15",
"q  c #322D1D",
"w  c #353117",
"e  c #383318",
"r  c #3B351B",
"t  c #3E391B",
"y  c #0B1420",
"u  c #151D27",
"i  c #1E2322",
"p  c #16222D",
"a  c #1C242A",
"s  c #1A2637",
"d  c #232523",
"f  c #242926",
"g  c #2B2B23",
"h  c #252B29",
"j  c #2B2C2B",
"k  c #312F29",
"l  c #2C312C",
"z  c #33322B",
"x  c #3B3928",
"c  c #242C34",
"v  c #2C3331",
"b  c #29343A",
"n  c #323533",
"m  c #333B35",
"M  c #383836",
"N  c #343C3A",
"B  c #3B3D3B",
"V  c #463D17",
"C  c #433C1D",
"Z  c #423B26",
"A  c #413F3C",
"S  c #3B4136",
"D  c #3C423E",
"F  c #47430D",
"G  c #49431C",
"H  c #57481C",
"J  c #655D14",
"K  c #726C1B",
"L  c #4B4522",
"P  c #4E4825",
"I  c #44432B",
"U  c #494429",
"Y  c #4C492A",
"T  c #544C24",
"R  c #534A2A",
"E  c #5A5329",
"W  c #464537",
"Q  c #594C33",
"!  c #5A5438",
"~  c #615526",
"^  c #63562A",
"/  c #695A29",
"(  c #685A35",
")  c #725E30",
"_  c #6C6723",
"`  c #78662A",
"'  c #7D7324",
"]  c #7C6936",
"[  c #1E364D",
"{  c #2A3744",
"}  c #353E46",
"|  c #283A57",
" . c #2F484F",
".. c #3D4546",
"X. c #394A57",
"o. c #3C4F64",
"O. c #384E6F",
"+. c #3D5166",
"@. c #434542",
"#. c #454945",
"$. c #474947",
"%. c #454A4A",
"&. c #4B4D4B",
"*. c #514F4C",
"=. c #56544A",
"-. c #494F52",
";. c #4B5153",
":. c #535452",
">. c #5B5956",
",. c #565858",
"<. c #5C5D5B",
"1. c #675C46",
"2. c #615F5A",
"3. c #566258",
"4. c #76684E",
"5. c #61635B",
"6. c #45586A",
"7. c #525364",
"8. c #465C76",
"9. c #5E6162",
"0. c #566469",
"q. c #48627B",
"w. c #55687B",
"e. c #646463",
"r. c #646868",
"t. c #6A6A6A",
"y. c #686C72",
"u. c #6D7273",
"i. c #6A777A",
"p. c #73787A",
"a. c #877B29",
"s. c #877033",
"d. c #8D7648",
"f. c #8D842C",
"g. c #9D9328",
"h. c #948C31",
"j. c #A4942F",
"k. c #B1A82C",
"l. c #B5A432",
"z. c #C6BD2C",
"x. c #C5B733",
"c. c #D5C733",
"v. c #E5D835",
"b. c #F4EA37",
"n. c #9B8353",
"m. c #A28E4A",
"M. c #A78956",
"N. c #BCB645",
"B. c #868378",
"V. c #999471",
"C. c #A98D6C",
"Z. c #A79A7A",
"A. c #B69871",
"S. c #C2B862",
"D. c #C7A379",
"F. c #DFD45F",
"G. c #F9F14C",
"H. c #345B89",
"J. c #4F5490",
"K. c #49688C",
"L. c #566D86",
"P. c #58728A",
"I. c #5A7797",
"U. c #667788",
"Y. c #747D81",
"T. c #637D99",
"R. c #5E67AD",
"E. c #5B70AF",
"W. c #5B6CD4",
"Q. c #5F72E6",
"!. c #7B8488",
"~. c #6F879C",
"^. c #698AA8",
"/. c #728FAB",
"(. c #7797B5",
"). c #7D9EBE",
"_. c #7FA0BE",
"`. c #6F82E6",
"'. c #868A89",
"]. c #838D92",
"[. c #89959A",
"{. c #989999",
"}. c #AE9B85",
"|. c #B5AA8D",
" X c #949EA4",
".X c #95A2A9",
"XX c #9AAAB5",
"oX c #90A9BE",
"OX c #A4A8A8",
"+X c #A8B3BB",
"@X c #D2B18D",
"#X c #E4BE98",
"$X c #D5CD94",
"%X c #F0C49A",
"&X c #F2EA8F",
"*X c #D2C7B1",
"=X c #F1CBA6",
"-X c #F7F2A9",
";X c #83A3C2",
":X c #88ABCA",
">X c #97B8CA",
",X c #8BB0D0",
"<X c #95B9D5",
"1X c #A9B8CB",
"2X c #B1B7C4",
"3X c #8493E0",
"4X c #94B1EB",
"5X c #ABB7E3",
"6X c #9DC2DD",
"7X c #AECADA",
"8X c #9EC3E0",
"9X c #A5CAE5",
"0X c #ABD1E8",
"qX c #B6DAE9",
"wX c #B3D9ED",
"eX c #B1CFFA",
"rX c #B7DCF0",
"tX c #BEE2EC",
"yX c #BCE2F1",
"uX c #F4DCC4",
"iX c #FFFFC6",
"pX c #F3EFD2",
"aX c #CAD1EB",
"sX c #CADAFA",
"dX c #C2E6F2",
"fX c #C5EAF5",
"gX c #CAEEF5",
"hX c #DCE4F6",
"jX c #CEF2F7",
"kX c #D0F4F7",
"lX c #E9EBEB",
"zX c #F6F5F5",
/* pixels */
"kXkXkXkXkXkXkXkXkXkXkXkXkXkXkXkXkXkXkXkXkXkXkXkXkXkXkXkXkXkXkXkXkXkXkXkXkXkXkXkXkXkXkXgX~.1.X.9XhXkX",
"kXkXkXkXkXkXkXkXkXkXkXkXkXkXkXkXkXkXkXkXkXkXkXkXkXkXkXkXkXkXkXkXkXkXkXkXkXkXkXkXkXkXfXq.+X2XZ $.<XkX",
"kXkXkXkXkXkXkXkXkXkXkXkXkXkXkXkXkXkXkXkXkXkXkXkXkXkXkXkXkXkXkXkXkXkXkXkXkXkXkXkXkXkXq.f.5X3X7.( x 0X",
"kXkXkXkXkXkXkXkXkXkXkXkXkXkXkXkXkXkXkXkXkXkXkXkXkXkXkXkXkXkXkXkXkXkXkXkXkXkXkXkXkXqX~ S.aXaXJ.7.) %.",
"kXkXkXkXkXkXkXkXkXkXkXkXkXkXkXkXkXkXkXkXkXkXkXkXkXkXkXkXkXkXkXkXkXkXkXkXkXkXkXkXkX6XV.aXhXaXW.J.m.4 ",
"kXkXkXkXkXkXkXkXkXkXkXkXkXkXkXkXkXkXkXkXkXkXkXkXkXkXkXkXkXkXkXkXkXkXkXkXkXkXkXkXkX7X{.hXJ.R.Q.R.N.5 ",
"kXkXkXkXkXkXkXkXkXkXkXkXkXkXkXkXkXkXkXkXkXkXkXkXkXkXkXkXkXkXkXkXkXkXkXkXkXkXkXkXkX7XV.jXW.`.eXE.N.5 ",
"kXkXkXkXkXkXkXkXkXkXkXkXkXkXkXkXkXkXkXkXkXkXkXkXkXkXkXkXkXkXkXkXkXkXkXkXkXkXkXkXkXtXg.+X4X3X5XJ.f.S ",
"kXkXkXkXkXkXkXkXkXkXkXkXkXkXkXkXkXkXkXkXkXkXkXkXkXkXkXkXkXkXkXkXkXkXkXkXkXkXkXkXkXkX6.g .X5XJ.n h 9X",
"kXkXkXkXkXkXkXkXkXkXkXkXkXkXkXkXkXkXkXkXkXkXkXkXkXkXkXkXkXkXkXkXkXkXkXkXkXkXkXkXkXkXkXc L B.R < (.kX",
"kXkXkXkXkXkXkXkXkXkXkXkXkXkXkXkXkXkXkXkXkXkXkXkXkXkXkXkXkXkXkXkXkXkXkXkXkXkXkXkXkXkXkXo.h.Z.a.H 8XkX",
"kXkXkXkXkXkXkXkXkXkXkXkXkXkXkXkXkXkXkXkXkXkXjXjXkXkXkXkXkXkXkXkXkXkXkXkXkXkXkXkXkXkXkX+.f.*Xa.F 6XkX",
"kXkXkXkXkXkXkXtX .>XkXkXkXkXjXjXjXjXjX,X8.O.O.I.).8.P.0XjXkXkXkXkXkXkXgX~.0XkXkXkXkXkXdXc >.< P.gXkX",
"kXkXkXkXkXkXjX= -.kXjXjXkXwX).{ & u & = W u.Y.e.a d @.N [ I.9XkXjXjXkXfXb * _.jXkXkXkX<Xa I q 8.yXkX",
"kXkXkXkXkXkXfX. } 6XtXwX,X{ 2 L z I s.Q h y..X].<.&.=.e.>.f = | ,XwXkXjX^.  u jXkXkXkXo.f.Z.a.F 8XkX",
"kXkXkXkXkXkXdXi > a m * ; S W ] n.Q ! g   n ,.9.:.B ..>.&.-   * O & (.6Xb * i jXkXkXkX7Xz L I P.fXkX",
"kXkXkXkXkXkXjX6.  q : x L I E t L 9 * & k k 1 n d f i f * k f d v o ; > ; l P.kXkXkXkXkX{ N l ).kXkX",
"kXkXkXkXkXkXkXjX/. .+ f @ X % * > +   , !.{.p.:.n h f f W 9.j O -   > ; p :XkXkXkXkXkXdXs S 9 I.kXjX",
"kXkXkXkXkXkXkXkXjXjX^.[ - n ,.Y.,.1 > Y.7XlXlX7Xp.%.N ..'.U.+     o s ^.9XkXkXkXkXkXkX6._ V._ t 9XjX",
"kXkXkXkXkXkXkXjXgX<XO.p %.y.Y.9.,   d u.B A =.u.Y.:.D ;.e.N k &.c K.fXkXjXkXkXkXkXkXkX/.E d.E 3.wXkX",
"kXkXkXkXkXkX0XL.X.* h X             O M d {.OX, #.>.#.%.OXv d d f u rXgXjXkXkXkXkXkXkXkXb D z ).jXkX",
"kXkXjXwX:X^.f 4 I m m v *   * o     - h g r.{.$.>.'.r.,.'.;       . a u = I.<XkXkXkXkXkX{ v - _.kXkX",
"kXkX0Xa @ V ` ` E Y U S h > m #       i + h $.9.{.zX+Xt.&   + .   * m n g % o P.kXkXkXkXb +   _.kXkX",
"kXjX,X; v ! Q Y / / Y Y m N I # O g i +     B 9.OXlX X&.  O h ; > b N S q t x { kXkXkXkXb f l oXkXkX",
"kXkXkXyX .d ^ s.` ( R T I m Y % &.2.*.j   * B $.9.[...+ > d > m m S m Y q X + ^.kXkXkXkXb D z ;XkXkX",
"kXkXkXkXX.X 0 3 H ] E / P R L # >.r.>.9.B u - ; i 2 . d :.M > S 2 x I g w # y gXkXkXkXkX{ f . ;XkXkX",
"kXkXkX8Xu H H < 0 q n s.^ I 2   @.r.>.5.e.*., > ; v ; D t.@.& x S $ I 8     o ;XkXkXkXkXc + + ;XkXkX",
"kXkXkXP.H F.l.x.` # O V R ,   + - 9.t.>.>.>.=.} ..>.m $.9.W   2 t 7 + X       u wXkXkXjX{ m a _.kXkX",
"kXjX9Xc / pXG.b.v.~ 7 .       B j n t.A A 2.t.>.&.t.u ; *.j                     a <XjXjX} *.1 _.kXkX",
"kXdX6.1.d.-XiXc.l._ 0 V < @   ;.<., ,.d j 9.e.e.2.<.- . j -   # .             < % o I.:Xu ,   L.jXkX",
"kX<X@ |.pXG.-Xc./ #   L T 0   M e.@.i A , *.=.r.t.n + z - 2   w <           w w     8 $ 1 C.Q X ;XkX",
"fXK.1 h.&XG.x.j.0   . L L #   . :.>.A e., n : r.r.M &.9.v     0 L .         < . X t w X C '.V.r > dX",
"0X$ K $XpXG.j.C .   . G r       n >.y.!.-.*.; r.>.0.u.t.@.+   w L X             % T %   < n.*X@Xn rX",
"o._ F.pXlX&XG.g.#   7 E r       n >.u.[. Xy.i <.,.[.p.t.e.n   # G +             # T %   R @XA.=..XkX",
". q t x x E l.j.e X a.` <     ; &.2.<.9.'.!.%.9.Y.Y.<.r.t.:.-   t C       [ &     % @   O d - ^.kXkX",
"  : ) ) G q # $ # . z.`       B ,.p.r.N 7.[.!.9.].&.D r..X'.j   C L     o <XwXX.        + %., oXkXkX",
"X d.=Xd.d.@Xq     w c.J     1 *.r.XXXX%.O j v j f O A 5.].XX7.+ r G       :XkXfX^..     O n X ;XkXkX",
"d =X@XZ q A.}.  X k.b.%     &.r.!.aX7X-.            A 2.u. X!., . t       = fXkXkX<Xs     O X ;XkXkX",
"j *XL   . 1 1.$ G x.j.@     0.Y.XXsXXXd             h <.u.Y.XX<.+ C 8       rXkXkXkXjX<Xu j 2 ;XkXkX",
"O.,   $ C 4 7 w f.v.H   o 1 i. XXX1X<.            . o *.!.[.1X'.: L t       I.kXkXkXjXjX} &., ).kXkX",
"eXH.  w T E ^ L k.l.#   d i.u.XX1Xy.j           j Y.r.e.r.1XsXY.+ L r       o 8XkXkXkXdXa x # P.jXkX",
"9Xs $ Z T s.^ ~ z._     v +X'.>X1Xf             %.>X[.r.j e.y.,   C C .       o ;XkXjX6.a.V.a.5 9XkX",
"4X+ w T T s.P f.v.5   o %.XX].c +     # < 6 6 < g t.].9.- @ < X   @ L 8         b yXkXo.V 4.U 0.rXkX",
"s P T H / E ^ x.j.@   # t.p.:.+ $ r C G T T T T 8 j ].,.n 1 H Z %   6 L %         P.kX+.. @.- ).kXkX",
"g.k._ ~ ~ T a.b.'   . - =.( =., : 6 g g g g g 9 @ O *.e.2.A $ V L . @ T 3       .   <Xo.. f . (.jXkX",
"k.v.b.x.j.K S.-XJ     W s.M.s.W + K.fXfXfXrXyX,X| y : ( M.d./ 4 0 .   7 T 3 % 3 t $ :Xo.S B.R m qXkX",
":X5.' a.c.F.iX$X4   1 M.M.=XM.C.b kXkXkXkXkXkXkXjX>XV s.%XA.d.D.1     % T T G t # T.jXo.Z B.P % 9XkX",
"kXwX/.^.3.$X&X'  .c C.D.1.uXd.}.4.tXkXkXkXkXkXkXkX1X4 s.#X}.( $XB.o     $ 8 a I.<XkXjX>X(.)./.(.fXkX",
"kXkXkXkXqX!.i.w.kX(.i.P.w.~.w.~.i.qXkXkXkXkXkXkXkXkX6.6.i.L.o.L.T.6.T.:X8.>XdXkXkXkXkXkXkXkXkXkXkXkX",
"kXkXkXkXkXkXjXjXkXkXgXkXkXkXkXkXjXjXkXjXkXkXkXkXkXkXkXkXkXjXkXkXkXkXkXkXkXkXkXkXkXkXkXkXkXkXkXkXkXkX"
};
