/* XPM */
static char *fc2abe395f854cd89127dadcdcaec2c4Adf92WAwkyAKGTMj[] = {
/* columns rows colors chars-per-pixel */
"50 50 203 2 ",
"   c #3D3D3B",
".  c #5F331D",
"X  c #64351E",
"o  c #5B3B28",
"O  c #663621",
"+  c #653A26",
"@  c #6C3A23",
"#  c #643D29",
"$  c #6C3D29",
"%  c #743C25",
"&  c #783F26",
"*  c #7B3E29",
"=  c #4A443A",
"-  c #5C4334",
";  c #56493D",
":  c #63412E",
">  c #6A422A",
",  c #7B4227",
"<  c #7D4129",
"1  c #7A4B2B",
"2  c #654634",
"3  c #6A4934",
"4  c #734633",
"5  c #724C34",
"6  c #7A4934",
"7  c #6E523E",
"8  c #7D5334",
"9  c #78563D",
"0  c #4B4A44",
"q  c #4C4E48",
"w  c #534D42",
"e  c #574E44",
"r  c #55534C",
"t  c #5C5549",
"y  c #5D554A",
"u  c #4E5451",
"i  c #515653",
"p  c #555A56",
"a  c #5B5C53",
"s  c #565D59",
"d  c #595E59",
"f  c #635547",
"g  c #6B5544",
"h  c #655A4B",
"j  c #6B5E4E",
"k  c #745845",
"l  c #655E53",
"z  c #5E6057",
"x  c #5D615C",
"c  c #6C604F",
"v  c #636156",
"b  c #6D6255",
"n  c #62645D",
"m  c #6A665B",
"M  c #67685F",
"N  c #74695C",
"B  c #5D6562",
"V  c #5F6C6B",
"C  c #626660",
"Z  c #686664",
"A  c #656A63",
"S  c #6A6D65",
"D  c #656E6C",
"F  c #6A6E68",
"G  c #726C61",
"H  c #6D7067",
"J  c #6E726A",
"K  c #72756C",
"L  c #75796E",
"P  c #797B6F",
"I  c #6C7572",
"U  c #687674",
"Y  c #747470",
"T  c #757A72",
"R  c #7A7D74",
"E  c #747E79",
"W  c #787F78",
"Q  c #83442C",
"!  c #89462E",
"~  c #844B2C",
"^  c #8C4C2D",
"/  c #914D2F",
"(  c #8E512C",
")  c #92532E",
"_  c #9A582F",
"`  c #884530",
"'  c #834F32",
"]  c #8D4A31",
"[  c #934D32",
"{  c #845435",
"}  c #835A36",
"|  c #8A5838",
" . c #945331",
".. c #9B5334",
"X. c #955933",
"o. c #9C5B33",
"O. c #975A3A",
"+. c #A15736",
"@. c #A35B36",
"#. c #A35B39",
"$. c #AA5D3A",
"%. c #8E6137",
"&. c #98643B",
"*. c #A56336",
"=. c #A6623A",
"-. c #AC643B",
";. c #AD6A3B",
":. c #B3653D",
">. c #B46C3D",
",. c #B96B3E",
"<. c #A4703D",
"1. c #B5723D",
"2. c #BA733F",
"3. c #BA7B3F",
"4. c #835F46",
"5. c #9C5F41",
"6. c #A96F41",
"7. c #BA6741",
"8. c #B56B41",
"9. c #BA6D41",
"0. c #A47341",
"q. c #A87646",
"w. c #BC7441",
"e. c #B77B41",
"r. c #BE7A41",
"t. c #A67653",
"y. c #87786E",
"u. c #817C78",
"i. c #C36F45",
"p. c #C27544",
"a. c #C37B44",
"s. c #C87847",
"d. c #CA7D46",
"f. c #CC7E48",
"g. c #D17E4B",
"h. c #7D8176",
"j. c #77817B",
"k. c #7D827A",
"l. c #BE8555",
"z. c #81857B",
"x. c #8C847E",
"c. c #85897F",
"v. c #C58244",
"b. c #CB8346",
"n. c #CB8846",
"m. c #CE8149",
"M. c #CE8A49",
"N. c #D2844B",
"B. c #D58A4C",
"V. c #D98C4E",
"C. c #D9904F",
"Z. c #DC8D50",
"A. c #DD9151",
"S. c #768483",
"D. c #7F8481",
"F. c #7F8983",
"G. c #7D8C8A",
"H. c #7F9291",
"J. c #838A82",
"K. c #878D87",
"L. c #86928D",
"P. c #8A938C",
"I. c #849593",
"U. c #8C9690",
"Y. c #8D9A94",
"T. c #8B9C9B",
"R. c #AE9280",
"E. c #8DA09E",
"W. c #91A09D",
"Q. c #B9A192",
"!. c #8FA2A1",
"~. c #92A5A3",
"^. c #98A9A5",
"/. c #96ABAB",
"(. c #9AAEAD",
"). c #9CB1AF",
"_. c #98AFB0",
"`. c #9CB4B4",
"'. c #9FB9B9",
"]. c #A2B7B5",
"[. c #A6BCBB",
"{. c #AAC4C4",
"}. c #ACC7C8",
"|. c #AFC9CA",
" X c #B2CDCD",
".X c #B3CED0",
"XX c #B6D2D3",
"oX c #B9D5D6",
"OX c #BCDBDC",
"+X c #BFDEE1",
"@X c #BFE0E2",
"#X c #C2E3E5",
"$X c #C5E6E9",
"%X c #C7E9EB",
"&X c #C9EBEE",
"*X c #CBEEF1",
"=X c #CEF1F4",
"-X c #CEF2F5",
";X c #D0F4F7",
":X c #D1F5F7",
">X c #D1F6F9",
",X c #D2F6F9",
"<X c #D3F8FB",
/* pixels */
";X;X;X;X;X;X;X;X;X:X;X:X;X=X-X<X=X-X-X#X/.K.F.k.F.F.J.F.K.^.OX-X;X;X;X;X;X;X;X;X;X;X;X;X;X;X;X;X;X;X",
";X;X;X;X;X;X;X;X:X;X:X;X:X,X,X-X;X<X#X).J.c.c.c.J.c.k.h.h.j.`.#X<X;X;X;X;X;X;X;X;X;X;X;X;X;X;X;X;X;X",
";X;X;X;X;X;X;X;X;X;X;X;X;X;X;X,X=X<XOXE.h.h.h.h.h.h.L H H D !.@X<X;X;X-X;X;X;X;X;X;X;X;X;X;X;X;X;X;X",
";X;X;X;X;X;X;X;X;X;X;X=X-X;X,X-X=X<X$X`.T R P R h.h.K A A T {.=X;X;X;X;X;X;X;X;X;X;X;X;X;X;X;X;X;X;X",
";X;X;X;X;X;X;X;X;X;X;X;X-X;X;X;X-X-X=X|.j.P P R R R T F H D '.$X-X;X-X;X;X;X,X,X;X;X;X;X;X;X;X;X;X;X",
";X;X;X;X;X;X;X;X=X$X#X&X;X;X-X-X$X.X).G.B H R L R T T T J s E ~.|.OX%X-X;X-X$X%X-X;X;X;X;X;X;X;X;X;X",
";X;X;X;X;X;X;X-X#X~.L.[.%X&X}.`.W.L.k.A p H K J K L R T J n T J.J.L.E.|.%XoXW.W. X=X=X;X;X;X;X;X;X;X",
";X;X;X;X;X-X-XOXW.k.T k.E./.L.k.h.L J A u A T R R R R T J A T T J L h.k.Y.U.K.c.Y.{.&X=X;X;X;X;X;X;X",
";X;X;X;X;X*X XY.k.T T L J D h.h.R T T F d Z R W R j.R Y F J T T K K J n K c.c.c.z.J.`.%X;X;X;X;X;X;X",
";X;X;X,X-XXXI.h.L T T T L H x L R T K A y a m Z G G G m a m K Y L K A M h.c.c.z.z.W L.OX-X,X;X;X;X;X",
";X;X;X;X,X#X(.E L L T P T T A n A b g 3 6 ' 5.{ | O.6.| { 6 k j m Z C W z.z.z.z.k.k.E.#X;X;X;X;X;X;X",
";X;X;X;X,X;XOXG.A K T L T T A ; 2 '  .X.#.#.$...#.8.7.$.-.6.#. .5 ; M z.z.h.z.R J E |.*X;X;X;X;X;X;X",
";X;X;X;X,X*X}.E C C J L K M ; #  .=.=.=.6.8.8.6.6.s.s.w.9.8.8.6.O.' 7 v F T L F C T ~.$X;X;X;X;X;X;X",
";X-X;X,X*X XP.z.h.C n A a ; 1 ~ O.8.8.1.w.w.s.8.9.g.Z.g.f.s.s.7.=.6. .2 e a x F h.h.W ].&X,X;X;X;X;X",
";X;X;X,X+X~.R T T J d 0 - ~ o._ -.w.a.p.f.g.m.e.a.Z.Z.N.N.f.N.w.8.8.8.o.3 ; A h.z.c.R F.XX*X,X;X;X;X",
";X;X,X*X[.E L T h.T v 2 ~ *.;.&.8.d.m.m.N.N.B.r.b.A.A.Z.N.N.Z.f.w.a.d.8.=.5 h L z.k.R J ~.#X,X;X;X;X",
";X;X<X@XT.x A K T F g ~ *.>.2.*.e.M.N.N.B.V.V.a.n.A.A.V.B.B.V.d.a.m.m.d.,.*.9 b T L S x E |.-X-X-X:X",
";X;X;X XP.K H H J h 8 o.>.p.v.1.a.N.B.N.V.V.V.d.n.A.A.B.N.N.N.d.a.n.B.d.p.,.o.k v A S S K ].%X,X,X-X",
";X;X&X].k.K L L M 9 X.-.w.d.m.2.v.B.B.V.V.B.B.a.b.C.B.N.N.B.B.v.r.n.B.m.d.2.:.{ f H P L K Y.OX<X-X,X",
";X;X#X^.P K K H b } *.2.d.g.N.2.n.V.V.A.Z.B.N.a.b.C.B.N.N.m.B.v.r.n.N.m.v.r.2.&.k H K K K P..X;X,X-X",
";X,X XP.K J H A g &.>.a.g.m.N.r.n.B.V.V.V.N.N.a.b.B.V.N.N.N.B.f.r.n.M.m.d.a.2.;.4.M J K H k.[.-X,X-X",
"oXOX`.j.A F S a 5 =.a.d.N.B.B.a.M.V.Z.B.N.N.N.a.v.V.Z.B.N.B.Z.m.l.M.V.M.N.d.d.2.| w B n C J ^.OXOXXX",
"E J.J.z.k.z.k.x 8 8.N.m.N.V.B.v.M.A.B.B.B.B.N.a.b.C.Z.Z.V.C.Z.N.v.B.A.N.N.N.N.2.%.y R k.k.J.P.P.j.U ",
"I T R K J J K z } w.N.N.N.V.V.v.M.A.V.N.N.N.B.f.n.B.Z.Z.B.C.Z.b.v.B.A.B.N.N.B.a.&.h T R k.z.R T H x ",
"T R R k.k.T K l } 2.N.N.B.B.N.p.M.Z.B.N.N.N.N.a.v.B.A.V.A.V.V.d.b.C.Z.N.N.N.N.N.<.j R L R h.h.R J d ",
"D T R R k.h.K a } 2.N.N.N.B.N.r.M.Z.B.N.M.N.N.a.v.B.V.Z.V.V.N.d.v.B.V.m.N.M.B.M.q.b k.T R h.R T H s ",
"A J J K K L L a } 2.f.N.N.V.N.p.M.Z.N.m.m.N.N.a.v.C.C.B.Z.V.B.d.v.B.V.m.m.N.N.B.q.b h.T L L L J x s ",
"B n n x n M A r } 2.f.f.N.N.B.p.M.B.N.m.m.m.N.2.v.M.B.B.V.N.N.d.v.B.N.b.m.m.N.N.<.f J F n M B x s u ",
"H.G.D p p d d w } 2.N.N.N.N.N.w.n.B.N.m.m.m.m.2.a.B.N.N.N.N.N.s.a.M.B.b.m.m.N.N.q.; p x x p B U S.S.",
"*X*X_.j.z.K.h.a } w.N.f.N.N.N.>.v.N.m.d.d.f.m.2.a.B.N.m.N.N.N.p.2.M.N.d.d.m.m.N.<.h h.z.j.A T.@X&X&X",
"-X,X`.W z.c.R v } 2.N.m.m.N.N.1.v.N.N.m.m.N.N.2.r.N.N.g.m.m.N.a.3.b.N.a.a.f.f.m.0.h k.L K A !.%X,X-X",
"-X,X`.T K z.R v } 2.N.N.m.N.M.r.n.N.m.m.m.m.N.3.v.M.g.d.f.m.m.p.a.B.s.p.w.w.a.a.0.c k.P K A !.&X,X-X",
",X,X`.I H h.P a } r.m.m.m.N.g.w.b.N.m.f.m.m.g.p.v.N.g.d.m.d.f.p.r.n.d.q.R.Q.R.s.6.l L J A C E.%X,X,X",
"-X,X`.E H K H y } 2.f.f.m.m.m.1.v.N.m.m.m.N.N.2.r.m.g.m.m.m.N.a.r.v.1.5 Y K.y.t.<.h J A n x E.%X,X-X",
"*X*X_.U x n z q } 2.m.m.m.f.m.>.v.N.N.m.m.g.N.2.3.N.N.m.m.m.N.a.e.v.6.g Z x.y.t.%.e A n x x T.$X-X-X",
"H.I.E B d z i 0 } 2.m.m.b.d.m.1.v.B.N.g.m.N.N.a.v.V.N.m.N.g.N.a.r.r.q.x.Z Z K.y.4.= p d x s U G.I.H.",
"C E z.c.J.J.h.n | 2.g.d.d.d.d.1.b.B.N.N.m.N.B.w.a.M.N.m.m.m.N.a.r.e.4.S 0   a N 7 y h.h.h.R R R J s ",
"A T R R h.u.K a } 2.f.d.d.d.d.;.r.N.N.N.N.f.N.>.1.m.N.d.m.m.m.p.r.e.} m Z i n j 2 y K A F R z.h.J i ",
"F T R h.h.P H y } >.d.d.f.p.d.*.2.N.g.g.f.f.N.>.>.d.N.d.d.d.f.2.1.1.%.y Y D.F e o y h.H K h.z.h.H p ",
"I R k.z.T P H a { 1.f.p.i.2.p._ 1.f.g.d.d.d.f.>.1.d.d.a.d.d.d.,.;.1.o.: o o # 1 8 h z.h.P u.R P J x ",
"F T h.R R L F y { >.p.p.9.9.,. .1.d.p.p.f.s.s.-.>.d.d.2.p.p.p.>.*.1.,.;.>.;.>.2.%.y h.h.h.h.h.P A s ",
"C K L K S A C r 8 >.p.9.7.:.:./ ;.p.p.9.p.i.p.$.;.p.,.:.,.,.,.@.o.;.:.,.1.-.*.;.%.; D K H K K S s u ",
"S.S.D p p x d q 6 $.7.$.$.-.$.( ;.9.7.,.w.,.,.@.*.2.,.*.-.:.:.@._ *.$._ +.) o.@.} = u s x s B V V U ",
"%X$X/.I K h.T a 4  .+.+.+.+.+.~ #.7.:.$.:.:.:._ *.,.-.@.@.@.$._ _ *...) / ^ ^ _ } ; L h.T D I.OX@X@X",
";X,X`.E F Y P a * ^ ....+....., o.7.#.#.$.$.:. .@.:.@._ +.+.+./ ( _ / ~ , , Q ) } y k.L K A !.&X,X,X",
";X,X`.E K T K l $ ! / / / / ^ % [ +.......+.+./ _ @.../ [ [ [ ! ~ ( ! % , , < ~ 8 y h.T P A !.%X,X-X",
",X,X`.j.L K K d # < Q ! Q Q < @ ! ..[ / [ [ ..Q [ +.[ Q ` Q ` * , Q Q % , , , , > e L L T J !.&X,X,X",
";X,X`.j.J J Z p o * * < < * & X < ] ` Q ! ` ` * ` [ ! * * * Q % @ , < @ @ , @ , > ; J T h.J !.%X,X-X",
";X,X`.I n C x r o $ % % % % @ . * ` Q * * ` * * ` ] < % % * * O X @ % @ @ @ @ % > ; A K T J !.&X<X,X",
",X,X'.U u u u q - $ $ $ $ $ O o $ * 4 $ * 4 4 $ < 6 4 $ $ $ $ + O X # + + # # O o = u u u s !.&X,X,X"
};
