/* XPM */
static char *b5fa2b78dd2647a29d05dd1bd0cede299dhk23kh54WlYakZ[] = {
/* columns rows colors chars-per-pixel */
"50 50 210 2 ",
"   c #63351E",
".  c #5F3D2C",
"X  c #6B3722",
"o  c #643B27",
"O  c #6D3922",
"+  c #743C25",
"@  c #793E27",
"#  c #773D28",
"$  c #7B3E29",
"%  c #5C422C",
"&  c #4C463C",
"*  c #594435",
"=  c #574A3E",
"-  c #66432D",
";  c #6A412A",
":  c #7A4126",
">  c #7D4229",
",  c #74492D",
"<  c #7A4A2B",
"1  c #694A37",
"2  c #774A34",
"3  c #6F5038",
"4  c #785238",
"5  c #7D523A",
"6  c #4C4B47",
"7  c #534C42",
"8  c #5A4E42",
"9  c #5B5245",
"0  c #57544A",
"q  c #54534C",
"w  c #5B554B",
"e  c #434D59",
"r  c #4C5354",
"t  c #4E5559",
"y  c #575C56",
"u  c #5C5C53",
"i  c #545A5B",
"p  c #5A5E5A",
"a  c #685546",
"s  c #63594B",
"d  c #6A5D4D",
"f  c #735946",
"g  c #635E54",
"h  c #685E56",
"j  c #5F6056",
"k  c #5D625C",
"l  c #636156",
"z  c #6D6150",
"x  c #62655D",
"c  c #6A655C",
"v  c #6B695E",
"b  c #535C63",
"n  c #525E6B",
"m  c #4C5C72",
"M  c #5D6464",
"N  c #58626B",
"B  c #4F607A",
"V  c #556477",
"C  c #5D6975",
"Z  c #5D6B7A",
"A  c #626761",
"S  c #656A63",
"D  c #696D65",
"F  c #616768",
"G  c #636B6C",
"H  c #696D69",
"J  c #716C63",
"K  c #706F6E",
"L  c #6D7067",
"P  c #6D726A",
"I  c #717367",
"U  c #72766C",
"Y  c #7D7168",
"T  c #75786E",
"R  c #636D74",
"E  c #6C7374",
"W  c #64717D",
"Q  c #6A757B",
"!  c #717570",
"~  c #767A72",
"^  c #7A7D73",
"/  c #757C7B",
"(  c #7A7C7B",
")  c #834727",
"_  c #83432C",
"`  c #88472D",
"'  c #834A2B",
"]  c #8C4B2E",
"[  c #87512C",
"{  c #92522E",
"}  c #8B4730",
"|  c #8E4931",
" . c #954E32",
".. c #994F36",
"X. c #835534",
"o. c #8D5535",
"O. c #835A36",
"+. c #835B3C",
"@. c #885839",
"#. c #8A5A3B",
"$. c #945532",
"%. c #9C5434",
"&. c #995B36",
"*. c #9C5B34",
"=. c #945D39",
"-. c #A15637",
";. c #A25B36",
":. c #A45C39",
">. c #AB5D39",
",. c #996437",
"<. c #A36235",
"1. c #AB6537",
"2. c #A5633A",
"3. c #AB633A",
"4. c #AC6B3A",
"5. c #B2653C",
"6. c #B36C3D",
"7. c #B96D3E",
"8. c #B5723D",
"9. c #BA743F",
"0. c #BB7C3F",
"q. c #895D44",
"w. c #86644A",
"e. c #976646",
"r. c #B26742",
"t. c #B66C41",
"y. c #BC6D41",
"u. c #A47341",
"i. c #AA7544",
"p. c #AA7649",
"a. c #B57643",
"s. c #BC7441",
"d. c #BD7B41",
"f. c #8D7B6D",
"g. c #C27543",
"h. c #C77647",
"j. c #C37B44",
"k. c #CA7D47",
"l. c #CD7E48",
"z. c #D07E4B",
"x. c #7D8176",
"c. c #7D8279",
"v. c #818377",
"b. c #81857B",
"n. c #85887E",
"m. c #C58244",
"M. c #CB8346",
"N. c #CC8846",
"B. c #C2804C",
"V. c #CE8149",
"C. c #CE8A49",
"Z. c #D2844B",
"A. c #D8874F",
"S. c #D58A4C",
"D. c #D98C4E",
"F. c #D9904F",
"G. c #DB8D50",
"H. c #DC9151",
"J. c #546786",
"K. c #556A8B",
"L. c #546B93",
"P. c #566E96",
"I. c #697681",
"U. c #687688",
"Y. c #757F81",
"T. c #6D7D92",
"R. c #657A99",
"E. c #4C6CA6",
"W. c #536FA1",
"Q. c #5672A5",
"!. c #5B76A5",
"~. c #5D7AAD",
"^. c #5375B6",
"/. c #5F7CB3",
"(. c #5477BA",
"). c #5579BC",
"_. c #5E7EB9",
"`. c #647CA3",
"'. c #617EB3",
"]. c #5A7EC1",
"[. c #557DCC",
"{. c #587FCC",
"}. c #768084",
"|. c #7A8487",
" X c #6D819C",
".X c #758494",
"XX c #6F84A3",
"oX c #6D85AB",
"OX c #6483BC",
"+X c #5D81C7",
"@X c #5B82CD",
"#X c #5D85D3",
"$X c #5C85D8",
"%X c #5C87DB",
"&X c #638AD4",
"*X c #628CDE",
"=X c #5887E2",
"-X c #5C8AE5",
";X c #5D8CEB",
":X c #5B8DF3",
">X c #5D90F5",
",X c #5C90FA",
"<X c #5D92FD",
"1X c #5D92FE",
"2X c #5D92FF",
"3X c #628EE6",
"4X c #6392F1",
"5X c #848982",
"6X c #878982",
"7X c #94928C",
/* pixels */
"1X1X1X1X1X1X1X1X1X2X2X2X1X2X4X2X2X2X2X3XoX|.}.}.}.}.}.}.}.oX3X2X1X1X1X1X1X1X1X1X1X1X1X1X1X1X1X1X1X1X",
"1X1X1X1X1X1X1X1X2X1X1X2X2X1X2X,X2X2X%XOX|.c.5X5Xn.b.c.c.c.Q OX;X1X1X1X1X1X1X1X1X1X1X1X1X1X1X1X1X1X1X",
"1X1X1X1X1X1X1X1X2X2X1X1X,X,X2X2X1X1X=X!.x.x.x.x.c.x.T L L S Q.=X1X1X1X1X1X1X1X1X1X1X1X1X1X1X1X1X1X1X",
"1X1X1X1X1X1X1X1X1X2X1X1X2X2X2X2X2X1X;X/.E ~ T x.x.x.U S H R @X>X1X1X1X1X1X1X1X1X1X1X1X1X1X1X1X1X1X1X",
"1X1X1X1X1X1X1X1X1X1X1X1X1X1X,X,X1X2X,X@XW T T x./ ^ ~ L H N ).:X1X1X1X1X1X,X1X1X1X1X1X1X1X1X1X1X<X1X",
"1X1X1X1X1X1X1X1X1X:X;X>X1X,X1X,X>X&XOXL.M U x.T T ^ ~ T P p V oX&X;X:X1X1X1X:X:X1X1X1X1X1X1X1X1X1X1X",
"1X1X1X1X1X1X1X1X=X~. XOX>X,X@XOXXX.Xc.S r D U P U T ^ ~ U k / }.|.T.`.@X:X3XoX`.#X1X1X1X1X1X1X1X1X1X",
"1X1X1X1X1X1X1X-X~.c.x.I.!./. Xc./ T P S r v x.T ^ ^ ~ x.P M x.~ U ~ / I.`..X5X6XT.@X1X1X1X1X1X1X1X1X",
"1X1X1X1X1X,X%XR./ ^ ^ P G G ^ x.( ^ ^ H p D ^ ( x.x.^ U S P ~ ~ U I U A ! n.n.n.c.U.].:X1X1X1X1X1X<X",
"1X1X1X1X,X%XR./ ~ T ~ ^ ~ D M v.^ ~ U A 0 u v J J L J c g A P ~ ~ I S A ^ n.n.n.b./ T.%X1X1X1X1X1X1X",
"1X1X1X1X1X;X~.Q T T ~ T ~ T S S D c a 1 2 X.q.#.#.e.e.q.X.f f h S S A ^ b.b.v.b.b./ !.-X1X1X1X1X1X1X",
"1X1X1X1X1X1X%XK.M P ^ T T ^ S 7 1 5 o.o.%.*.:.&.*.4.r.3.>.:.&.o.3 8 x b.b.b.b.^ P Z @X>X1X1X1X1X1X1X",
"<X1X1X1X1X<X#XW S S T ~ U S 8 % ' :.:.:.3.r.r.2.r.a.h.a.y.y.r.r.o.2 a x P ^ ~ P S E /.:X1X1X1X1X1X1X",
"1X1X1X1X<X$XR.c.T S x L l = , ' ,.6.6.6.s.9.h.6.a.z.Z.l.h.h.s.r.2.2.$.1 0 k x D ^ ^ Q ].>X1X1X1X1X1X",
"1X1X1X1X-XoX/ ^ ^ H p 6 * 2 *.$.2.7.g.g.k.l.Z.a.j.A.A.A.Z.V.Z.s.r.t.r.$.1 7 x x.b.b.^ U.*X1X2X2X<X1X",
"1X1X<X<X].I.U ~ ^ ^ p * < ,.1.*.t.k.M.V.Z.Z.S.j.B.H.F.A.A.S.A.k.a.j.j.6.&.1 g T b.b.^ R ~.;X2X1X1X1X",
"1X1X1X3X!.k S U ^ P a < ;.6.9.1.a.V.Z.Z.S.S.D.j.V.H.H.G.Z.Z.A.M.j.M.V.g.y.&.4 c ^ ^ D x J.$X1X1X1X1X",
"1X1X1X&XT.P D L P g 4 $.6.9.d.6.d.Z.S.S.D.G.D.j.N.H.G.A.Z.S.Z.M.j.N.S.k.j.t.=.d x S H S C _.>X1X1X1X",
"1X1X:XOX/ ~ T U S 3 o.1.9.k.M.8.j.S.S.S.D.S.D.j.N.F.D.S.V.S.S.k.j.m.S.M.j.s.3.5 w D T U P R.=X1X1X1X",
"1X1X4XoX~ T T U l +.<.9.h.l.M.9.N.S.G.G.D.S.D.g.M.F.S.V.V.V.Z.M.j.m.S.V.k.d.t.,.f L T T T .X&X1X1X2X",
"1X1X%XT.I I I D d =.6.g.k.Z.Z.g.N.S.D.D.S.Z.Z.h.m.D.S.V.Z.V.D.M.m.m.Z.M.M.g.9.1.w.x L P I I.OX1X1X2X",
"-X;XOXI.H P D l 3 2.g.k.k.S.S.j.N.F.D.D.S.Z.S.d.m.D.G.S.Z.A.D.N.m.N.D.C.V.M.j.7.+.w S H L R OX;X;X-X",
"P.R.T./ ~ / ~ l 4 6.V.V.S.D.D.j.Z.H.S.S.S.Z.Z.j.N.D.G.D.S.D.H.V.m.C.G.Z.Z.Z.z.s.#.9 P ~ T c..XXX XL.",
"G ! ^ ^ U ~ ~ u O.9.Z.Z.Z.D.D.d.C.H.S.S.Z.S.S.j.m.F.G.D.D.G.H.V.M.S.G.S.Z.S.C.j.,.a ~ c.x.n.c.~ D t ",
"E / ^ ^ ^ T P u O.0.Z.Z.S.A.A.j.Z.D.S.S.Z.S.S.j.m.F.H.D.D.D.D.V.N.S.G.Z.Z.Z.C.l.u.d ~ ~ / x.x.^ L t ",
"G ~ ^ x.b.x.T u O.9.V.Z.S.S.S.d.C.D.Z.Z.V.V.Z.j.m.S.D.D.H.S.S.k.m.S.D.Z.V.Z.S.S.u.z x.^ ^ x.x.^ P t ",
"M P T T ~ ^ T u O.9.V.V.Z.A.S.g.C.F.S.z.V.S.S.g.m.C.F.D.D.S.S.k.m.S.D.V.V.V.Z.S.i.z c.^ T T T P S r ",
"b S S x A S D w O.9.z.z.Z.Z.Z.g.C.D.Z.V.V.V.Z.g.m.F.S.S.D.A.Z.k.m.S.S.V.V.Z.Z.S.i.a U L S L S k j e ",
"J.B n p p k k q O.9.V.l.Z.Z.Z.9.N.S.Z.M.V.Z.Z.9.d.S.A.Z.A.Z.Z.k.m.S.C.M.V.M.Z.Z.u.8 k M k k i m m m ",
"[.[.L.N U ~ L q O.9.Z.Z.Z.Z.Z.8.m.S.Z.l.k.V.k.9.j.S.A.Z.Z.Z.Z.g.j.M.V.l.l.M.Z.Z.u.9 S T D k J.(.[.@X",
"1X1X).I.b.7Xx.l O.9.Z.V.Z.Z.V.9.m.S.Z.l.k.V.V.9.d.Z.Z.z.Z.Z.Z.g.0.M.Z.k.k.l.l.M.u.s n.c.x.M Q.,X1X2X",
"1X1X^.R ^ b.^ l #.9.Z.Z.V.Z.V.0.m.Z.V.l.V.V.Z.0.j.C.Z.k.k.k.k.k.j.M.l.j.g.g.l.m.u.z c.T T M Q.:X1X2X",
"1X1X(.C I x.x.l O.9.Z.Z.V.Z.V.g.M.S.V.V.V.V.M.g.m.Z.l.k.l.k.Z.g.j.N.k.a.h.7Xz.z.p.h ~ K I F Q.:X1X1X",
"1X1X^.C I T I u O.9.k.V.V.V.V.8.m.Z.V.k.k.Z.Z.g.j.M.z.l.V.k.l.k.0.m.a.q.7X7X7Xa.u.d ! S x p Q.:X1X1X",
",X,X^.N x D k q O.9.M.l.V.V.V.8.d.S.Z.k.Z.k.Z.9.0.Z.Z.l.V.V.Z.j.0.m.6.1 c Y.f.u.,.8 S A M i P.:X,X,X",
"[.@XQ.N j k y 6 O.0.V.z.k.k.k.8.m.S.Z.Z.V.Z.Z.g.j.Z.A.V.Z.Z.Z.g.0.m.p.Y H ! 6Xf.+.7 p A k t K.].@X@X",
"n R E U P E D 0 X.g.Z.k.k.k.V.9.m.S.S.V.V.Z.Z.g.m.S.Z.k.Z.V.S.g.d.a.e.f.t 6 K f.4 = D H H D P R G n ",
"M ^ c.c.n.n.c.j O.9.k.l.k.k.k.8.k.Z.Z.Z.Z.Z.Z.7.9.N.S.l.V.z.Z.g.0.0.+.x t 6 i h 1 w v.U ~ ^ v.v.P t ",
"M ~ x.x.x.^ I 0 O.8.k.k.k.k.k.1.0.Z.z.l.M.l.Z.6.9.M.V.k.V.k.Z.9.0.8.#.x H F H a % w T H H ^ b.v.P r ",
"G x.x.c.x.T L u O.7.k.j.g.g.g.<.9.Z.z.l.l.l.V.8.7.j.V.j.k.k.l.7.4.8.,.% h J a - - s b.T ~ c.v.^ H i ",
"H ^ x.x.^ T D u X.7.h.g.y.g.y.%.8.l.l.h.h.h.k.5.8.k.k.g.k.h.h.6.1.8.<.[ < < [ <.#.w c.c.c.x.x.L D i ",
"M T ~ ^ ~ L S q X.6.g.g.t.5.5.{ 4.g.h.g.j.h.h.1.6.j.g.7.7.7.g.1.<.4.7.7.g.7.9.9.,.9 U x.x.x.x.L M r ",
"N C G A x k p q 2 3.g.5.5.5.5.{ 4.g.g.7.g.y.g.;.1.9.7.1.5.5.y.;.<.1.1.1.1.*.*.3.O.& l S M k k M t e ",
"(.^.J.b k D A q 2 -.>.>.-.>.;.] >.y.5.5.7.5.7.%.1.7.5.;.1.1.5.%.*.<.:.%.{ ` { <.O.& k S D k m E.E.E.",
"1X1X^.Z U ^ ^ l ,  .%.-.-.-.%.) <.5.>.>.5.>.5.$.<.5.1.%.;.:.>.$.{ ;.%.] ' ' ` { 4 w x.x.x.S !.:X1X1X",
"1X1X^.Z I ~ T g o  . . . . .{ : %.>.:.-.-.-.>.{ &.1.-.%.%.%.%.` [ { ] : : : > { O.u c.U U M Q.,X1X1X",
"1X1X).W T T E l o ` ` ] ` ] ` + ] -. . . .-.%.] $.-.{ ] } } | > ) ) ) : : : : ) < 9 x.U x.S Q.:X1X1X",
"1X1X^.W U ! I p o $ > _ _ _ :   _  .` ` |  .| _ | ..` _ $ _ ` + + ) : + + : : : - = P P x.G !.:X1X1X",
"1X1X^.Z L L x q . + $ + # # +   : } } $ _ } _ > } .._ # + $ $ +   @ @ O + + + + ; = I ~ v.G !.:X1X1X",
"1X2X).N x k k 6 . O + + + + X   > _ $ # $ _ > # } | $ # # # # X   + +   O X +   o & x H P F Q.:X1X1X"
};
