/* XPM */
static char *_b4af885d11c4c69808317049973ef9aCiklhVtcuIMvPwjB[] = {
/* columns rows colors chars-per-pixel */
"50 50 200 2 ",
"   c #000000",
".  c #0A0502",
"X  c #0E0804",
"o  c #0A0A0B",
"O  c #120905",
"+  c #120A04",
"@  c #190E07",
"#  c #1B130E",
"$  c #0E0E12",
"%  c #0F1012",
"&  c #131414",
"*  c #1E1814",
"=  c #12151A",
"-  c #17191D",
";  c #1D1C1B",
":  c #26140A",
">  c #29170B",
",  c #2D190D",
"<  c #331C0E",
"1  c #291B13",
"2  c #391E12",
"3  c #24211F",
"4  c #3C2212",
"5  c #392415",
"6  c #35231B",
"7  c #191C23",
"8  c #1D2027",
"9  c #1F232B",
"0  c #242423",
"q  c #25272B",
"w  c #2A2B2C",
"e  c #36312B",
"r  c #262B35",
"t  c #342C32",
"y  c #333531",
"u  c #373A38",
"i  c #3A3E3C",
"p  c #422414",
"a  c #482616",
"s  c #452814",
"d  c #4B2B16",
"f  c #512E19",
"g  c #542F19",
"h  c #44301C",
"j  c #4C341E",
"k  c #55311A",
"l  c #5B341C",
"z  c #5F381C",
"x  c #62391E",
"c  c #66391E",
"v  c #4B3C2D",
"b  c #543921",
"n  c #533824",
"m  c #653724",
"M  c #6D3A23",
"N  c #763D26",
"B  c #3E413F",
"V  c #6A401E",
"C  c #484239",
"Z  c #6D4121",
"A  c #65432C",
"S  c #724423",
"D  c #7A4A26",
"F  c #7E4529",
"G  c #7D522F",
"H  c #2D3443",
"J  c #333948",
"K  c #363F51",
"L  c #3E4549",
"P  c #3C465B",
"I  c #3F4A60",
"U  c #424644",
"Y  c #464A47",
"T  c #4A4E4A",
"R  c #4D514D",
"E  c #5C564C",
"W  c #434D58",
"Q  c #4A5154",
"!  c #465158",
"~  c #4B545A",
"^  c #525652",
"/  c #555A54",
"(  c #595D56",
")  c #565C5A",
"_  c #5A5E59",
"`  c #695D4E",
"'  c #5D625C",
"]  c #61655E",
"[  c #414C62",
"{  c #495668",
"}  c #545C62",
"|  c #585F62",
" . c #4C5975",
".. c #4A5B7A",
"X. c #505F7D",
"o. c #5C6364",
"O. c #5C6568",
"+. c #58677A",
"@. c #626761",
"#. c #666A64",
"$. c #6A6D65",
"%. c #676D6A",
"&. c #6D7067",
"*. c #6D726A",
"=. c #72756C",
"-. c #76776C",
";. c #75796E",
":. c #646E71",
">. c #65717C",
",. c #767A71",
"<. c #7A7D73",
"1. c #757C7A",
"2. c #844A2A",
"3. c #874B2B",
"4. c #805027",
"5. c #865329",
"6. c #8A552B",
"7. c #93542E",
"8. c #975C2E",
"9. c #965731",
"0. c #9C5C32",
"q. c #A35F35",
"w. c #9D6132",
"e. c #A46435",
"r. c #A76935",
"t. c #AA6B36",
"y. c #A76339",
"u. c #AA6539",
"i. c #AE683B",
"p. c #B36C3D",
"a. c #B96F3F",
"s. c #B4723E",
"d. c #BA723F",
"f. c #BD7341",
"g. c #BF7840",
"h. c #C07541",
"j. c #C17D41",
"k. c #7D8076",
"l. c #7E8379",
"z. c #808275",
"x. c #82857B",
"c. c #85897E",
"v. c #C58244",
"b. c #C98445",
"n. c #4C6288",
"m. c #536586",
"M. c #596A88",
"N. c #5D708B",
"B. c #4D6694",
"V. c #4E6A9E",
"C. c #556C92",
"Z. c #5C6E94",
"A. c #5D7397",
"S. c #697786",
"D. c #6A7991",
"F. c #4F6DA3",
"G. c #506DA3",
"H. c #5976A9",
"J. c #5878B7",
"K. c #657CA9",
"L. c #617DB1",
"P. c #547CCC",
"I. c #798383",
"U. c #72839B",
"Y. c #6A80AE",
"T. c #7288AC",
"R. c #6B84B3",
"E. c #6684BC",
"W. c #6F89BE",
"Q. c #5B80C8",
"!. c #5A84D6",
"~. c #5985DC",
"^. c #6788C6",
"/. c #708BC3",
"(. c #728FC9",
"). c #7491CC",
"_. c #6189D9",
"`. c #7595D6",
"'. c #7697DA",
"]. c #7699DD",
"[. c #5A88E3",
"{. c #5C8CEB",
"}. c #5B8DF4",
"|. c #5B8FF9",
" X c #5F90F5",
".X c #5D92FE",
"XX c #6994E9",
"oX c #779AE3",
"OX c #769DEB",
"+X c #799EE9",
"@X c #6797F8",
"#X c #6496FC",
"$X c #759FF3",
"%X c #729EF9",
"&X c #77A0F3",
"*X c #78A1F4",
"=X c #858A83",
"-X c #898D82",
";X c #8B9087",
":X c #8E9289",
/* pixels */
".X.X.X.X.X.X.X.X.X.X.X.X.X.X.X.X.X.X.XQ.I.:X;X:X;X:Xc.;Xc.l.E..X.X.X.X.X.X.X.X.X.X.X.X.X.X.X.X.X.X.X",
".X.X.X.X.X.X.X.X.X.X.X.X.X.X.X.X.X.X|.m.l.=.l.l.l.l.k.*.*.&.n.|..X.X.X.X.X.X.X.X.X.X.X.X.X.X.X.X.X.X",
".X.X.X.X.X.X.X.X.X.X.X.X.X.X.X.X.X.X|.C.k.k.k.k.k.l.*.' $.%.Q.|..X.X.X.X.X.X.X.X.X.X.X.X.X.X.X.X.X.X",
".X.X.X.X.X.X.X.X.X.X.X.X.X.X.X.X.X.X.X!.#.k.&.k.k.l.k.#.$.o.~..X.X.X.X.X.X.X.X.X.X.X.X.X.X.X.X.X.X.X",
".X.X.X.X.X.X.X.X|.|.|.|..X.X.X.X.X X~.J.O.;.k.k.*.k.*.#.*./ B.!.|..X.X.X.X.X.X.X.X.X.X.X.X.X.X.X.X.X",
".X.X.X.X.X.X.X.X|.!.E.{..X.X}.{.^.T.I.o.^ :.k.&.*.k.k.k.=./ k.I.T.H.!. X.X.X^.J.|..X.X.X.X.X.X.X.X.X",
".X.X.X.X.X.X.X.XQ.S.k.D._.{.H.I.I.k.;.%.L $.k.&.k.*.k.k.*.) l.k.;.l.,.Z.~.W.-XI.H. X.X.X.X.X.X.X.X.X",
".X.X.X.X.X.X|.E.l.k.k.=.>.+.I.l.k.;.*.*.R $.l.k.l.k.k.k.%.#.l.:.*.*.l.#.:.=Xc.c.l.A.{..X.X.X.X.X.X.X",
".X.X.X.X.X}.J.l.,.;.;.;.;.' &.l.k.k.,.;./ ] ;.,.k.k.k.*.' =.k.k.;.*.*./ ,.c.c.c.l.,.N.}..X.X.X.X.X.X",
"|..X.X.X.X[.N.;.=.,.k.,.,.,./ *.;.-.' C e e y y y w y y w L O.*.=.;.' *.c.c.x.x.c.l.>.{..X.X.X.X.X.X",
".X.X.X.X.X.X~.M.*.,.;.;.-.<.*.( E v 5 < , : X .           o = r ! o.' =Xx.z.z.k.l.:.J..X.X.X.X.X.X.X",
".X.X.X.X.X.X{.+./ *.,.=.<.-.] v f s s < < > X                   o q ) l.<.k.c.,.' O.!..X.X.X.X.X.X.X",
".X.X.X.X.X|.L.l.,.' *.;.&./ v F Z k s 4 < , X .                     $ u ] *.&./ ;.,.S.[..X.X.X.X.X.X",
".X.X.X.X#XJ.1.z.k.#.R ' C A 7.9.S l s 4 < > X .                       . w T ) l.l.c.=.N.#X.X.X.X.X.X",
".X.X.X.X{.S.-.,.;.l.' C D G y.w.D z s 4 < > X .                           w &.l.x.x.k.*.Q..X.X.X.X.X",
".X.X.X.XH._ -.,.k.,.E D f.w.i.y.D z k s < > + .                           $ L ,.l.k.<.#.+.{..X.X.X.X",
".X.X.X}.D.] ' &.-.;.A y.v.e.p.y.D z j p < > + .                             = ) =.$.] ' ' !.#X.X.X.X",
".X.X.X^.k.,.,.=.$.` 0.p.v.r.s.y.D z f 4 < > + .                               r ) #.,.;.*.A..X.X.X.X",
".X.X.XR.=.;.=.;.] G f.p.b.t.f.y.S z d 4 , > X X                               $ Q ;.=.;.=.>. X.X.X.X",
".X.XXXU.-.=.=.=.( 4.g.f.b.t.f.e.S k d 4 , > X                                   u &.=.=.=.1.XX.X.X.X",
".X X~.O.$.#.#.] v 6.g.i.v.w.p.u.D k d 4 4 1 X X                                 % / #.#.&.] J..X.X.X",
"J.E.R.1.<.1.<.' j 5.d.y.v.w.s.i.D x f s 6 0 ; @                                   C *.=.$.;.U.(.^.H.",
"} =.,.l.=.<.z.] n 6.p.i.v.e.f.i.D x f 4 6 0 3 #                                   L k.l.l.=Xl.,.*.~ ",
"O.l.,.,.=.*.*.( j 6.d.p.v.r.d.e.D x d 4 * 0 0 *                                   T k.,.k.c.<.;.*.! ",
":.l.,.l.c.k.=.' b 6.g.f.v.e.d.q.S z d 6 0 - = #                                   T l.;.<.l.k.k.=.Q ",
"O.k.,.k.k.k.;./ b 6.g.g.b.r.p.q.Z k s 6 0 * & +                                   R =X;.k.k.,.,.*.Q ",
"} &.$.$.&.&.;.' b 6.h.h.b.e.p.0.Z f s 1 0 ; & @                                   R c.;.&.;.*.#.' ! ",
"{ ' ' / ( ' ' R b 5.g.h.v.e.u.0.S d 5 1 1 * # @                                   B @.' ' ' ' ) / W ",
"J.F.n.R ' %.] R b 5.d.h.j.7.i.u.S d p > & : : @                                   i ' #.#./  .F.F.H.",
".X.XQ.:.:X:Xx.' j 5.d.h.j.8.p.u.c d 4 , , , : @                                   T -Xl.<.@.V..X.X.X",
".X.XQ.O.I.I.<.] j 5.d.h.j.8.p.u.Z d 4 5 5 , : @                                   R -X,.;.#.V..X.X.X",
".X.XQ.' l.U.y.' k 5.d.d.j.8.p.y.Z d p 5 < : @ +                                   R l.=.=.#.V..X.X.X",
".X.X!.~ k.k.k./ j G d.d.b.r.d.t.S k s 4 < : + .                                   Y <.#.#.] V..X.X.X",
".X.XQ._ $.k.] ^ b 5.d.j.v.w.d.r.S g s p , : +                                     U ,.#.' ' V..X.X.X",
"|.|.Q.L ] ' / R b 5.j.d.j.8.p.w.V g a 4 < : X .                                 . L ] ' ' / B.|..X|.",
"X.M.+.' ] ] _ C j 5.s.s.b.8.t.8.V d p 4 < : + .                                   i ' ' ' ' o.M.+.m.",
"| l.l.l.c.c.k.' k 6.a.a.b.w.0.7.c d p p < : X                                     T c.k.k.k.k.x.=.Q ",
"o.l.k.k.l.l.k./ k 6.h.h.h.7.8.3.c a p p < : .                                     T <.] $.,.c.l.=.! ",
"O.l.l.l.l.k.#./ j 5.a.t.g.7.7.3.c a 4 2 < : .                                     R c.&.=.z.c.k.=.~ ",
"O.l.k.l.k.k.$./ k 5.p.q.g.3.3.F x a 2 < , X                                       T c.<.k.z.,.-.*.~ ",
"o.z.,.k.k.-.&.^ j 6.e.7.p.S 2.M n p 2 , X                                         T x.l.<.k.x.=.&.~ ",
") =.-.&.$.] ] R j 6.8.6.y.c N c g p , .                                   .     . B &.=.*.*.=.#./ P ",
"B.M.+.Y / ' ( T j 5.8.3.7.c M c k < .       .   . o o o o o o $ = = - 7 7 9 9 9 r L R / ) ^ } ..I B.",
".X.XP.' ,.l.k.' j 5.8.F 3.l M m 2 .   . o o o $ $ = 7 q q r r J K P I [ I [ P I P Q <.x.l.#.V..X|..X",
".X.XP.' *.,.k.' j 3.9.N F l M 2 o o $ $ $ = - q r J P I  . .m.m.m.Z.A.Z.Z.Z.Z.Z.m.o.c.=.;.#.V..X.X.X",
".X.XP.o.,.;.;.' j 2.3.N F f 2 $ & & - 7 r J P { m.m.A.K.K.K.K././././././.E./.W.Y.o.l.;.,.#.V..X.X.X",
".X.XP.o.k.*.;.' j F 2.N N 6 - 7 r H [ ..Z.K.K.L././.).`.'.'.'.'.'.`.].oX'.'.].'.(.o.,.;.;.=.G..X.X.X",
".X.XP.o.;.*.#.Q n 2.F m t q H P X.M.K.L./.(.`.`.oXoXOXOXOXOXOX+XOXOXOX$X$X$X$XOX'.} =.,.k.;.G..X.X.X",
".X.XP.) #.] ] R h Z n e r W X.M.K.K./.).'.+X+X+X$X$X+X*X$X$X*X*X$X$X%X&X%X&X%X%XOX~ &.*.<.*.F..X.X.X",
".X.X!.{ Q Q ! L 0 w J K t X.Z.K.(.`.].+X+X*X*X*X*X*X*X*X*X*X%X%X%X%X@X#X#X#X#X#X@X{ ! ~ ~ ~ H..X.X.X"
};
