/* XPM */
static char *_4d92a1afd7347759851a8ec388039ccpAM2hWTaZk2XfLaO[] = {
/* columns rows colors chars-per-pixel */
"50 50 187 2 ",
"   c #000000",
".  c #0C0602",
"X  c #0F0803",
"o  c #0A0A0A",
"O  c #100703",
"+  c #110A05",
"@  c #1C0E07",
"#  c #120E0A",
"$  c #16120F",
"%  c #1D120A",
"&  c #131414",
"*  c #1A1816",
"=  c #1D1E1D",
"-  c #22130A",
";  c #26140A",
":  c #2D190D",
">  c #331C0D",
",  c #2E1C12",
"<  c #281C17",
"1  c #201D1C",
"2  c #331F10",
"3  c #1E201F",
"4  c #38200F",
"5  c #28211D",
"6  c #3C2211",
"7  c #342318",
"8  c #232423",
"9  c #2C2620",
"0  c #252828",
"q  c #2A2D2C",
"w  c #332C29",
"e  c #303230",
"r  c #363A3A",
"t  c #442514",
"y  c #452814",
"u  c #4C2B16",
"i  c #4B2D19",
"p  c #532F19",
"a  c #4E331B",
"s  c #53341B",
"d  c #5D361D",
"f  c #57381E",
"g  c #5B391D",
"h  c #633B1D",
"j  c #663A1F",
"k  c #463224",
"l  c #653521",
"z  c #6A3C21",
"x  c #693825",
"c  c #723C26",
"v  c #793F26",
"b  c #3B403F",
"n  c #5D412D",
"m  c #4E4034",
"M  c #534335",
"N  c #6D4222",
"B  c #65422C",
"V  c #7E4427",
"C  c #7B4329",
"Z  c #4E3F40",
"A  c #3F4344",
"S  c #464744",
"D  c #454845",
"F  c #454B4A",
"G  c #4B4E4A",
"H  c #4D514D",
"J  c #52544E",
"K  c #5C5A4E",
"L  c #4E5552",
"P  c #535652",
"I  c #555A55",
"U  c #595B55",
"Y  c #555B5A",
"T  c #5A5E59",
"R  c #685C4C",
"E  c #605D54",
"W  c #5D625C",
"Q  c #61655E",
"!  c #5B6362",
"~  c #5D6968",
"^  c #626761",
"/  c #656A63",
"(  c #6A6D66",
")  c #646D6A",
"_  c #6B6F68",
"`  c #6C7067",
"'  c #66706D",
"]  c #6D726A",
"[  c #72766C",
"{  c #75796E",
"}  c #787B6F",
"|  c #676F70",
" . c #6C7572",
".. c #6B7776",
"X. c #6E7A7A",
"o. c #737770",
"O. c #767A72",
"+. c #7A7D74",
"@. c #717C7C",
"#. c #854B2A",
"$. c #8B4D2C",
"%. c #86542A",
"&. c #8D522B",
"*. c #8D592D",
"=. c #92542E",
"-. c #925B2E",
";. c #985B2F",
":. c #8B5733",
">. c #965D30",
",. c #9C5D32",
"<. c #A15F36",
"1. c #9E6434",
"2. c #A36235",
"3. c #AA6936",
"4. c #A56339",
"5. c #AB653A",
"6. c #AE693B",
"7. c #B46D3D",
"8. c #B86F3E",
"9. c #B7703F",
"0. c #BA733E",
"q. c #BC793E",
"w. c #BE7441",
"e. c #BD7E41",
"r. c #C07641",
"t. c #7D8176",
"y. c #74817D",
"u. c #7E837A",
"i. c #808277",
"p. c #81857A",
"a. c #85897E",
"s. c #C48243",
"d. c #758382",
"f. c #7B8683",
"g. c #7E8985",
"h. c #7C8B8A",
"j. c #7F908E",
"k. c #848B83",
"l. c #898D84",
"z. c #828E8D",
"x. c #89928B",
"c. c #828F90",
"v. c #849392",
"b. c #889692",
"n. c #8B9A96",
"m. c #8D9B9B",
"M. c #919C97",
"N. c #93A5A4",
"B. c #9DB1AF",
"V. c #9FAFB0",
"C. c #9EB4B3",
"Z. c #9FB9BA",
"A. c #A2B2B3",
"S. c #A4B7B8",
"D. c #A3BBBC",
"F. c #AABDBE",
"G. c #AAC0BF",
"H. c #A9BFC0",
"J. c #A6C1C2",
"K. c #AECACC",
"L. c #B3C7C8",
"P. c #B3CCCD",
"I. c #B1CED1",
"U. c #B6D4D5",
"Y. c #BCD2D4",
"T. c #BCDBDD",
"R. c #BFE0E2",
"E. c #C0D7D9",
"W. c #C2DBDC",
"Q. c #C2DEE0",
"!. c #C2E2E4",
"~. c #C2E3E5",
"^. c #CAE3E5",
"/. c #C5E6E9",
"(. c #CCE7E9",
"). c #C7E9EC",
"_. c #CCEAEC",
"`. c #D1ECEF",
"'. c #CCEFF2",
"]. c #D1EEF1",
"[. c #CEF1F4",
"{. c #D0F4F7",
"}. c #D1F4F7",
"|. c #D0F5F8",
" X c #D1F5F8",
".X c #D2F6F9",
"XX c #D3F8FB",
/* pixels */
"{.{.{.{.{.{.{.{.[..X[.{.{.{.{.{.{.[.XXT.n.g.g.u.u.g.u.k.g.G.{.{.{.{.{.{.{.{.{.{.{.{.{.{..X.X[..X{.{.",
"{.{.{.{.{.{.{.{..X[..X{.{.{.{.{.{..X~.k.l.u.a.a.a.a.i.t.O.@.K.XX{.{.{.{.{.{.{.{.{.{.{.{.[.{..X[.{.{.",
"{.{.{.{.{.{.{.{.[..X.X[.{.{.{.{.[..XR. .t.t.t.t.t.u.` ) ` / F.XX{.{..X[.{.{.{.{.{.{.{.{.{.{..X[.{.[.",
"{.{.{.{.{.{.{.{..X.X[..X{.{.{.{.XX{.).v.[ t.} } t.t.` / ) h.[.[.{..X[..X{.{.{.{.{.{.{.{.{.{.{..X{.{.",
"{.{.{.{.{.{.{.{..X.X{..X{.{.[..X{.{.XXZ.] t.{ t.+.t.] ` / ..~..X.X.X.X[.{..X.X{.{.{.{.{.{.{..X[.[..X",
"{.{.{.{.{.{.{.{..X).~.[.{.{.XX[.~.K.N.' W [ t.{ O.+.{ { ( P j.S.R.R.{..X.X[.R.[..X{.{..X{.{..X[..X.X",
"{.{.{.{.{.{.{..XR.b.h.P.{.[.G.C.n.l.u.W P [ [ ) { O.t.O.Q ~ a.a.u.x.B.R.[.F.x.B.'..X[.[.{.{.{.{.[..X",
"{.{.{.{.{..X.XT.b.t.t.o.C.N.k.y.+.] ] W F { t.O.+.O.} t.W [ t.] ` t.y.u.N.a.a.a.N.)..X.X{.{.{.{.{.{.",
"{.{.{.{.{.{.I.x.t.{ O.[ ] ^ u.t.t.t.{ ` J } t.t.p.i.O.{ W +.O.{ ] [ ] W t.a.a.p.t.v.~.{.{.{.{.{.{.{.",
"{.{.{.{..XU.h.t.[ O.O.O.O.^ W u.O.O.` W D P W Q W W W I G O.o.O.[ [ W ] a.a.a.p.t.t.C..X{.{.{.{.{.{.",
"{.{.{.{.{.).N.o.[ o.{ { O.+.!  .) K k , : % # o o o o o o e H / ` W ` a.p.i.t.t.u.y.K..X{.{.{.{.{.{.",
"{.{.{.{.{..X/.d.W t.O.{ +.O.^ k a t 6 4 : - .                 * b P u.a.i.p.p.t.W N..X{.{.{.{.{.{.{.",
"{.{.{.{.{..XJ.{ W ^ t.[ o.W M z f s t > > % .                     3 D / ` t.` W [ y.T.{.{.{.{.{.{.{.",
"{.{..X[.{.K.k.p.t.W W ' I n V :.j s t > > % . .                     o 0 I W W t.u.t.u.~..X{.{.{.{.{.",
"{.{.{..X).v.+.+.} [ L M n %.2.,.N s y 4 > % .                           5 L u.u.u.u.] C..X{..X[.{.{.",
"{.{.{..XS._ O.O.t.t.U B 1.>.3.<.N g u 6 > - . .                           b [ t.a.t.t.] T..X[..X{.{.",
"{.{.{.'.d.I / [ +.[ n 2.e.1.7.<.N d u 6 > - O .                           o P { +.` Q P N.XX.X[.{.{.",
"{..X[.U.k.[ ` ( [ R :.7.e.2.w.2.N j u 6 : - O .                             8 Y ^ ) ` ` g./..X.X{.{.",
"{.{..XB.{ { { +.U :.w.7.s.6.8.,.j h u 4 : - . .                             . b / } { { ` P..X.X{.{.",
"{..X_.M.{ [ [ [ U -.w.w.s.3.w.,.j s y 4 : @ .                                 3 / [ [ [ { G.{.[.{.{.",
".XXXT.t.[ ` [ ( M >.w.9.s.2.0.2.N s y 6 > % . .                               o G ` ] [ [ n.[..X.X|.",
"U.W.D./ ( ) Q K a ;.w.3.e.,.8.2.N d s 6 7 5 % +                                 5 W ^ W W @.Q.~.T./.",
"~ t.k.u.u.a.a.W k -.5.6.e.2.0.5.N h u 4 5 0 ; #                                 3 ` u.u.a.l.x.p.| D.",
") t.O.{ ( ( { U f -.6.w.s.3.8.<.N d u > = 0 8 #                                 3 ` t.t.p.t.{ { Y Z.",
"' p.{ u.p.+.[ P f >.q.w.s.3.7.,.z d y 7 1 = = #                                 = +.{ O.t.t.t.} Y Z.",
"' t.+.t.i.i.} P f >.w.w.s.2.7.,.j s t 7 5 & & +                                 3 u.O.+.+.t.+.} W Z.",
"~ ] ] [ [ { } P f >.r.r.s.3.6.-.h u t < = * & X                                 = u.+.{ { O.] / Y Z.",
"W Q W Q Q Q / J f >.w.r.s.2.5.-.h u 2 < 8 = % X                                 = _ ( / Q / W Y H Z.",
"j.d.) H U T U D f -.w.w.q.;.6.<.h u 6 % & - ; +                                 = H T T P L X.d.d.U.",
"[.{.D.( l.x.i.U s -.w.w.q.;.7.<.g y 6 ; - , ; X                                 = o.a.k.] ' /.[.[.[.",
"{.XXJ.) h.j.+.U s -.0.w.q.;.7.<.d t 6 2 4 : - X                                 = u.+.[ ( ' )..X[..X",
"{.XXJ.! y.j.4.U s =.r.w.q.;.7.2.h i 6 6 2 - @ .                                 8 u.O.o.O.' ).[..X[.",
"{.XXJ.W [ i.} P s -.w.w.r.2.0.3.j p t 6 > - .                                   = o.[ / ( ' ).{.{.{.",
"{.XXZ.W { { ` K g -.w.w.e.2.0.2.j p t > : @ . .                                 = ` ` W W ) ).{.{.{.",
"[..XJ.Y Q Q U G s -.q.w.q.,.7.;.d u u > > - .                                   3 W ( Q W ) )..X.X{.",
"j.j.y.P Y Y H D s -.q.0.e.,.5.=.j u t 6 > @ . .                                 = L I Y I I h.v.v.U.",
"~ u.p.l.l.l.p.W s -.0.w.r.,.2.=.j t t 6 : @ .                                   3 t.u.u.u.+.t.O.W Z.",
"^ t.} } t.t.} J f -.w.0.q.-.=.#.d u 6 6 > @ .                                   3 @./ ~ [ i.p.+.Y Z.",
") t.+.u.t.{ [ J s -.8.7.0.&.$.#.d t 6 2 : @ .                                   3 t...' } a.p.} ! Z.",
"' u.t.t.t.[ ` J s -.3.5.0.#.#.#.p t > > ; .                                     3 u.h.4.i.} } } Y H.",
"/ i.+.i.+.[ _ J s -.<.,.3.v V c p 2 > : .                                       3 @.u.t.t.p.} ] ! Z.",
"W [ [ [ _ _ Q H s -.-.=.<.j c j u t : .                                         3 W { { ` { ] W L D.",
"d.y.) H J T U D s *.=.$.$.l j j p <             o o o o o o o & & & & = 8 0 8 0 e F P Y P Y ' ~ _ K.",
").{.D.! +.i.+.P s *.&.V $.d c l <     o o o o & & & = 0 q e r S F L Y Y Y Y Y Y L ` u.u.O.) !.).'.'.",
"{.XXJ.! _ O.i.U a :.$.v v d l : o o & o & & * w r F L ! / | X.@.h.c.c.c.z.z.c.c.~ t.O.[ ` ' ).XX{.{.",
"{..XJ./ O.[ { U s :.C v v p < $ & & = 0 r Z Y | ..f.m.N.N.N.A.F.H.H.H.S.S.S.S.S...t.O.O.{ ' ).{.{.{.",
"{.XXJ.) +.{ O.U a %.v v c 1 = 0 e Z ! @.c.m.N.V.H.H.P.I.E.E.E.E.Y.E.E.E.E.E.Y.Y.h.` [ [ O.o.).{.{.{.",
"{.XXG./ O._ ( H s %.v x w q S ! @.c.N.A.H.I.E.E.Q.Q.Q.Q.^.^.Q.(.Q.(._._._.(._.(.v.^ { t.t...).{.{.{.",
"[.XXJ.W / Q ! H a N n e A Y X.z.m.V.H.E.E.Q.^.(.`.(.(.`.`.`.`.`.`.].].].].].]..Xn.E ] o.O...).{.{.{.",
"{.XXP.W L L P F 7 e A D S @.x.C.L.Y.Q.W.^.(.`.`.`.`.`.`.`.`.].].].]..X.X{.{.{.XXN.P Y Y T @.'.{.{.{."
};
