/* XPM */
static char *bab__2_1674586578[] = {
/* columns rows colors chars-per-pixel */
"50 50 204 2 ",
"   c #3E2318",
".  c #171926",
"X  c #1B1E2A",
"o  c #1F212D",
"O  c #22222E",
"+  c #3E2B27",
"@  c #382425",
"#  c #252532",
"$  c #282834",
"%  c #2C2E3B",
"&  c #2D333E",
"*  c #3A3236",
"=  c #5A321B",
"-  c #53301A",
";  c #462516",
":  c #6B361C",
">  c #653B1E",
",  c #6B391C",
"<  c #723B16",
"1  c #723C1A",
"2  c #422E25",
"3  c #663A22",
"4  c #693D21",
"5  c #6B3D2A",
"6  c #703D21",
"7  c #73421D",
"8  c #7D481C",
"9  c #6F4225",
"0  c #6E422A",
"q  c #724322",
"w  c #7D4423",
"e  c #7C4B25",
"r  c #7A462A",
"t  c #7E4B2B",
"y  c #724528",
"u  c #6F4630",
"i  c #634D3E",
"p  c #734C3D",
"a  c #724E36",
"s  c #735235",
"d  c #7C5333",
"f  c #79533C",
"g  c #2E3444",
"h  c #323544",
"j  c #353845",
"k  c #3B3A45",
"l  c #353549",
"z  c #383749",
"x  c #36394B",
"c  c #3B3D4B",
"v  c #3C3E50",
"b  c #43344C",
"n  c #413D4B",
"m  c #493D49",
"M  c #423E52",
"N  c #413E59",
"B  c #3D414D",
"V  c #3E4252",
"C  c #3F4952",
"Z  c #42424D",
"A  c #4C404A",
"S  c #5D4441",
"D  c #5E4649",
"F  c #584849",
"G  c #584948",
"H  c #505046",
"J  c #434553",
"K  c #494654",
"L  c #454955",
"P  c #494A55",
"I  c #444659",
"U  c #4A455A",
"Y  c #464B5A",
"T  c #4A4D5B",
"R  c #524D5B",
"E  c #504D56",
"W  c #475059",
"Q  c #4D515D",
"!  c #475254",
"~  c #52525E",
"^  c #595658",
"/  c #644C43",
"(  c #6A4D43",
")  c #6A4E4A",
"_  c #604C4D",
"`  c #704E44",
"'  c #6A5143",
"]  c #65534D",
"[  c #6C524E",
"{  c #655A4F",
"}  c #6A594C",
"|  c #655643",
" . c #74544E",
".. c #745745",
"X. c #625552",
"o. c #655D5B",
"O. c #6D5B5E",
"+. c #675656",
"@. c #705750",
"#. c #775B53",
"$. c #6E6858",
"%. c #474D63",
"&. c #4B4E62",
"*. c #464B68",
"=. c #4D5262",
"-. c #4E556A",
";. c #4F5869",
":. c #455263",
">. c #525563",
",. c #595764",
"<. c #545966",
"1. c #595B66",
"2. c #535569",
"3. c #565B6A",
"4. c #5A5D6B",
"5. c #4F5972",
"6. c #5B5770",
"7. c #545B72",
"8. c #5A5D73",
"9. c #545D7C",
"0. c #585E7E",
"q. c #605F6F",
"w. c #615B65",
"e. c #615E71",
"r. c #5D616D",
"t. c #59626B",
"y. c #5D6272",
"u. c #5B627B",
"i. c #57697F",
"p. c #5E6A7D",
"a. c #556275",
"s. c #686765",
"d. c #62636B",
"f. c #636869",
"g. c #626574",
"h. c #646975",
"j. c #6A6B77",
"k. c #63667A",
"l. c #656A79",
"z. c #696D7B",
"x. c #696679",
"c. c #6C717E",
"v. c #63747E",
"b. c #824522",
"n. c #814C22",
"m. c #894F27",
"M. c #834D2C",
"N. c #894D29",
"B. c #894724",
"V. c #8D5126",
"C. c #84522D",
"Z. c #8B532B",
"A. c #8E582C",
"S. c #835120",
"D. c #94592D",
"F. c #995827",
"G. c #855332",
"H. c #8A5331",
"J. c #8C5D39",
"K. c #875937",
"L. c #935C33",
"P. c #975C38",
"I. c #9F602A",
"U. c #5B5C88",
"Y. c #556383",
"T. c #5D6283",
"R. c #5D6A84",
"E. c #606783",
"W. c #626B83",
"Q. c #6D6D80",
"!. c #686E88",
"~. c #696580",
"^. c #706E84",
"/. c #6E7282",
"(. c #6F7881",
"). c #6B758A",
"_. c #727584",
"`. c #747986",
"'. c #737788",
"]. c #767A8A",
"[. c #7A7D8C",
"{. c #757B92",
"}. c #7C7F91",
"|. c #718087",
" X c #7D808E",
".X c #738092",
"XX c #7D8292",
"oX c #7F879C",
"OX c #7B8898",
"+X c #7686A1",
"@X c #828594",
"#X c #848996",
"$X c #868A9A",
"%X c #8A8D9D",
"&X c #8C919E",
"*X c #8A8EA0",
"=X c #8D91A1",
"-X c #9296A5",
";X c #9299A6",
":X c #9095A8",
">X c #969AA9",
",X c #999DAD",
"<X c #9DA2B5",
"1X c #A0A3B4",
/* pixels */
"z. X|.r.1. X#X'.'.$X[._.@X@Xr.y._.`.}.Q._._.T k L T V Y `.].h.`._._.x.r._./.@X$Xl. X;X/._.4.1.c._.z.",
"`.[. Xt.d.@X#X[.@X#X#X'._._.r.h.].].XX`._.3.J J 1.y.P Y 3._././.].c.j._.#X[.@X@X[.-X;X$X-Xk.1.c.|.c.",
"l.c.j.Q >.].'.z.'._.z.g.c.j.<.h./.[.XX[.t.V Z B y.h.B P J 1./..X].'.c.l. Xz._.]./.&X]./.@X~ T z.h.y.",
"Q >.Q <.Z >.>.2.1.Q >.4.~ >.T l./.}.$XQ.c j j >.>.=.~ Z c V h.@X X_.].1.t.t.2.>.3.3.>.3.r.B P <.~ Q ",
"h.h.[.#Xl.c.c.@XXXz.'.@X/._.h.z./.@X[.I c V h.&X(.h.`.4.B Z I `. X].[.r.[.=X]. X X`./.[. XT r.c.r.f.",
"c.h.#X Xc.[._.[.].Q.[.XX[.[.c.v./.@Xt.c Q >.#X&X Xh.j.z.T P V 3.@X[.[.z.@X%X]. X@X Xl.[.@X>.t.h.y.z.",
"Q >.g.1.<.k.g.x.c.d./.g.4.z.t.c.].t.B B j >.t.r.t.<.>.T =.V c j y.`.[.y._.c.d.c.`.x.y./.4.Z P P ~ t.",
"t.c.h.~ L 4.g.4.Q _.>.>.4.<.Q (.h.B c c ,.c.h.<.<.1.<.<.t.<.c T c z.@X>.4.d.r.r.[.t.l.4.g.n L 3.1.t.",
"`.#X Xr.<.[.@X_.Q.#X[.k.[.].y.c.W x V =.`.#XXXh.g.h.r.1.u.a.h.t.Y T [.v.%X)./.#X:X=X=X}.$X2.:.4.t.4.",
"c.|.(.t.<.'.'._.[.8.#Xc.l.`.y.3.B v V =.c.[._.t.y.h.1.>.2.W (.Q.Q c 1./.$Xx..X@Xl.&X@X].@X<.Y <.;.=.",
"<.<.>.W P g.e._.q.k z. X2.<.L B l c ! C t.1.~ >.OXoX7.Q Y Y 3.3.c c B >.8.2.$X<.<.].@Xt.r.c J Q L Y ",
"h.t.g.r.T k.g._.n h P [.2.g.<.B 6./.f.l.l.r.1.OXXX).{.j.h.z.g.t.r.J B L g.k.h.h d.k.].h.j.~ g._.g.l.",
"z.r.h.g.r.$X].'.T % O z.3.'.k.P x.XXy.c.Q.3.z.+X3.7.{.l.r.c.z.r.h.Q Z h.@Xz.4.. v >.[.$X@X4._.@Xy.j.",
"t.Q =.Q 1. Xc.].>.h . x.4.z.r.L <.h.t.r.7.l.OXp.* * k..Xy.1.h.Q Q J V r.[.z.3.X h %.}.}._.>.g.z.t.r.",
"<.<.;.W B <.4.Q.2.h . x.4.&.J h c <.1.1.W OX(.A ;   A {..X=.2.1.2.x c J 8.x.4.X l &.'.p.>.k J ,.<.1.",
"4.y.3.3.T /.@X[.2.h . g.g._.j.J T z.c.t./..X~ @ : = @ 2..X/.3.t.4.I c 3._.g.4.# l =.'.z.$XT Q j.z.l.",
";.>.=.2.=.=X:X[.2.g X g.k.=X/.J Y l.y.<.).;.+ = 6 4 = 2 y.W.<.<.=.L C z.[.g.1.$ k &.XX].*XT T k.l.1.",
"W =.Q C T $X%X].2.j X d.h._.1.x m 2.2.J 7.m = 4 5 3 4 - F p.Y =.Q x x h.Q.l.,.# h 2.].z./.J J 8.Q Y ",
"p.<.3.1.T 3.4._.2.h o k.y.>.L c P t.<.1.y.F 4 3 > q , : D R.r.3.y.Y h T 3.y.3.O x 2.[.g.2.n >.y.3.y.",
"c.r.l.z.1._.z.'.2.h X r.g.@Xc.V ;.W.l.j./.S < 3 6 1 3 : _ +Xz.r.l.,.J g. Xl.4.# h 2.[.$X$XJ t.l.l./.",
"t.<.y.l.1.'.c._.2.h O g.y.#X'.V =.y.w.d.p.D < 0 0 q 9 < / ).>.,.y.3.L r.].l.d.O c 2. X@X@XP <.l.4.y.",
"W =.=.~ Y x.g._.2.l X g.4.g.<.h B Q ~ W i.F 7 7 q , 9 , ] /.T =.2.V j 2.k.j.3.O z &.[.c.k.c L =.=.=.",
"l./.c.t.I 4.y._.2.h O g.y.<.Q V :.).`.y.y.S 4 y u ..} { t.p.k._.z.Y k Y >.4.,.# z 2.'.>.q.T >._.].(.",
"h./.l.<.>.}.}.Q.&.I c x.y.|.h.I P  X.Xl.4.,.s.l.c.v.h.q.a.x.4.v.l.T P c.[.g.4.k U -.'.c.].K T ].]./.",
";.=.=.Y V ).[.z.&.g.4.j.1._.4.V c t.4.~ 7.3.$.^ | u 5 y [ R.E <.>.c B z.@Xr.4.4.g.T '.Q.].x B 4.3.>.",
"<.Q ;.3.V 2.g.z.d.k.r.k.,.<.J & T 1.&.~ 6.S 4 r y e r M./ E.=.=.>.Y h T g.4.k.>.4.4._.4.r.B Y 4.:.=.",
"/.y.3.3.Y k.3.z.z._.c.j.>.3.,.L x.].p.y.7./ 8 b.B.8 d w ] T.x.y.>.2.x =.z.4./.'._.Q.'.z.k.T z.`.l.).",
"/.t.=.Y J #Xz.z.[.@X[.[.3.@X].I r.h.k.k.k.G e r e t s a X./.g.t.=.v V z.[.g.[.-X-X*X'.@X@XT k.z.y./.",
"I Y Y V v ].^.l.l.l.h.g.Q XXl.x V L T I ~./ e M.t t d $.o.p.n T Y x C y.[.r.k.z.`.z._.[.z.M J V Y =.",
"y.)./.3.T >.4.,.J Z L Z B >.V B %.t.y.T 8.' n.t G.N.G.H +.9.2./.l.W j C r.Z c P T Z d.4.T J T y.t.t.",
"l././.y.>.g.XX_.g.h.h.h.c.`.1.Q T h._.4.8.) M.M.N.M.Z.X.O.u.7.).c.;.Y 3.c.[.#X_.d.].Q.z.'.T =.l.c.y.",
"y.l.r.%.T _.@X[.].XX X[.,X1X).V L y.8.V y.) m.S.C.C.M./ { a.<.h.y.L V z. X&X1X*X_.[.}._.'.J I a.4.=.",
"W %.=.Y c l.].j.h.`.c._.-X@X1.j I =.Y J i.( Z.d Z.K.G.8 @.T.I R T V j 4.c.`.[.@Xh.].c.z.z.c V T Y =.",
"y.<.l.k.Y R 2.3.,.4.1.3.q.3.T P 2.4.3.4.y.( V.V.A.Z.Z.N.[ Y.<.<.l.8.c L 3.3.T ,.<.<.3.<.T J =.4.3.k.",
"3.=.2.4.&.[. X%X-X].@X*X@X].z.&.~ 1.2.&.8.] d K.K.Z.V.V. .k.>.;.2.=.Y y.]. Xc.}.[.`./.[.z.J &.4.>.6.",
"r.Y c I c $X X%X>XXX%X,X#X'./.J V Y %.U T.6.y.f.s.s.s.{ d.k.Z %.I l J k.].c._.-X,XXX/.]._.h c T T =.",
"r.3.>.I J z.z.k.'.c.[.[.`.l.4.c J 2.2.T ~.^ ] } o.o.1.^ y.R.K q.4.v x Q c.h.g. XOX/.x.g.3.J J 2.2.3.",
"h.4.6.>.Y 2.k.4.~ 1.4.4.,.1.<.Q Y g.Q.2.8.( L.F.D.D.Z.C.O.9.T q.1.J J ~ d.t.r.,.2.4.d.3.8.c Y k.Q.l.",
"4.3.>.T J [.-X$X_.c.'.'.[.$XQ.Y V a.k.&.0.[ J.J.L.L.L.D.#.Y.%.7.>.I J c. XXX%X[._. X]._.}.x I 8.y.2.",
"<.Y T J z @X$X@XQ.@X[.Q.].[.l.h k %.I x Y.' F.P.D.L.J.D.#.9.B R %.c x z.[._.}.#Xc.`.'._./.h c =.T v ",
"k.>.%.%.B h.c.g.1.h.g.1.h.g.I B T 7.R %.T. .F.L.P.F.P.A.#.U.-.=.=.V h 1.r.~ >.h.r.r.k.,.>.v &.4.Q ;.",
"y.T I Y c g.k.g.g.1.d._.l.h.y.T %.3.>.&.0.+.f i p K.p a ] T.-.=.V x V 4.c.h.h.h.c.r.d.z.g.x %.4.;.<.",
"&.I I I v './._.[.]._.[.'.[./.B v %.J I 0.>.P >.2.=.*.J L a.V V %.l c '.>X&X[.;X>X.X].OX/.l J 2.Y Y ",
"T n c V c z.z._.[.z.j._.z.c.g.h M Y J n 2.7.T.R.g.4.2.2.R T m n V I & h.&X@X_.&X@X`._.].l.l c c x c ",
"P k Z P Z ,.1.1.3.d.,.4.r.>.P Z P J L J Y =.7.2.2.-.=.%.T Z k k c J c T r.1.1.1.>.>.~ 1.>.K K n * k ",
"E Z Z A k Z L k c B K J n Z J Z K Z J ~ R J x b g g j c I n c M c k n P L P L J n c k k k Z Z n B n ",
"^ Z Z Z Z Z K J J Z n J n n n Z L B Y >.P P K k k K b P Q P Q T R P P T P T Z L Z Z L Z Z P Z Z Z k ",
"! Z Z Z J Z Z Z n n z n c k J U L P T R T P k v v c m Z P Z L T P T J Z T Z P Z K J J Z P P k k Z k ",
"K Z n k k k k c J J J K B J P J L J ~ T J L P J P Y W T L Z c P T P J L c k Z J J L Z Z Z Z Z Z Z Z ",
"Z Z n k n J J P J K Y T L P T L T T >.~ P Q Q Q Q Q >.~ Q P L >.T Q T ~ K k k B P P L J J Z Z Z Z Z "
};