/* XPM */
static char *result[] = {
/* columns rows colors chars-per-pixel */
"50 50 174 2 ",
"   c #2E2B2B",
".  c #382929",
"X  c #3C2F30",
"o  c #333434",
"O  c #393330",
"+  c #3B3936",
"@  c #373939",
"#  c #3C3C3C",
"$  c #521C1E",
"%  c #691C1F",
"&  c #7A1519",
"*  c #741A1E",
"=  c #7B191D",
"-  c #581F22",
";  c #601D20",
":  c #691E21",
">  c #741E21",
",  c #7C1E21",
"<  c #4F2325",
"1  c #40292A",
"2  c #582426",
"3  c #56312F",
"4  c #413730",
"5  c #473B33",
"6  c #4A3C34",
"7  c #423E3B",
"8  c #573B36",
"9  c #692527",
"0  c #7A2326",
"q  c #7C2629",
"w  c #6E2E31",
"e  c #762C30",
"r  c #643531",
"t  c #643833",
"y  c #633D3F",
"u  c #69383B",
"i  c #4F4136",
"p  c #42403F",
"a  c #4C423A",
"s  c #534236",
"d  c #5B4337",
"f  c #54453C",
"g  c #5B493C",
"h  c #634B3B",
"j  c #6C513E",
"k  c #3F4040",
"l  c #434343",
"z  c #4A4644",
"x  c #4D4946",
"c  c #474849",
"v  c #4B4B4A",
"b  c #594644",
"n  c #564B45",
"m  c #5B4C43",
"M  c #5C534F",
"N  c #515151",
"B  c #5A5551",
"V  c #5A5A59",
"C  c #5A5B5A",
"Z  c #674643",
"A  c #6D4745",
"S  c #744446",
"D  c #7B5B43",
"F  c #74594D",
"G  c #784E50",
"H  c #645D59",
"J  c #745756",
"K  c #7C665B",
"L  c #636464",
"P  c #6A6A68",
"I  c #6B6C6C",
"U  c #776961",
"Y  c #776967",
"T  c #6D7474",
"R  c #747672",
"E  c #7B7573",
"W  c #7C7E7C",
"Q  c #8C171C",
"!  c #83181D",
"~  c #8A181D",
"^  c #94161B",
"/  c #9C141A",
"(  c #A61319",
")  c #A81319",
"_  c #A8191F",
"`  c #B5171E",
"'  c #BA161D",
"]  c #8B1E23",
"[  c #931E23",
"{  c #9A1D22",
"}  c #AC1B21",
"|  c #BC1B22",
" . c #86272B",
".. c #9C292E",
"X. c #8B3235",
"o. c #A9252B",
"O. c #B42329",
"+. c #B82E33",
"@. c #A9383D",
"#. c #C6171E",
"$. c #CC171F",
"%. c #C61921",
"&. c #CC1921",
"*. c #D51921",
"=. c #DA1921",
"-. c #E01F27",
";. c #D7232A",
":. c #CA2F35",
">. c #D32A31",
",. c #E4232A",
"<. c #8E4347",
"1. c #825557",
"2. c #826759",
"3. c #83695A",
"4. c #845D60",
"5. c #826F65",
"6. c #957F74",
"7. c #9E8374",
"8. c #9B867C",
"9. c #A88773",
"0. c #B18E79",
"q. c #7C7F80",
"w. c #7F8585",
"e. c #868687",
"r. c #8A8382",
"t. c #8A8B8B",
"y. c #8C9393",
"u. c #8D9798",
"i. c #949494",
"p. c #919C9E",
"a. c #9B9B9B",
"s. c #AE9385",
"d. c #B89B8B",
"f. c #BC9C8B",
"g. c #BEA395",
"h. c #98A4A4",
"j. c #A5A4A5",
"k. c #AAAAAB",
"l. c #A6B3B4",
"z. c #AAB7B8",
"x. c #ADBBBD",
"c. c #B5B5B6",
"v. c #B1B7BA",
"b. c #B9BABA",
"n. c #C6A18D",
"m. c #C7A99A",
"M. c #D3A992",
"N. c #DBB29B",
"B. c #D8B4A1",
"V. c #E6BFAA",
"C. c #BEC0BF",
"Z. c #EBC7B4",
"A. c #EDC9B7",
"S. c #EFCBB8",
"D. c #B0BFC1",
"F. c #B2C1C3",
"G. c #B6C8CA",
"H. c #BACECF",
"J. c #BACED0",
"K. c #BFD7D9",
"L. c #C5C5C5",
"P. c #CDCDCD",
"I. c #C5DCDE",
"U. c gray84",
"Y. c #C7DFE1",
"T. c #C9E3E5",
"R. c #CCE7E9",
"E. c #CBEAED",
"W. c #CEEEF1",
"Q. c #D1EFF1",
"!. c #CEF1F4",
"~. c #D0F4F7",
"^. c #E0E1E1",
"/. c #F8F8F8",
/* pixels */
"~.~.~.~.~.~.~.~.~.~.~.~.~.~.~.~.~.~.~.~.~.~.~.~.~.~.~.~.~.~.~.~.~.~.~.~.~.~.~.~.~.~.~.~.~.~.~.~.~.~.",
"~.~.~.~.~.~.~.~.~.~.~.~.~.~.~.~.~.~.~.~.~.~.~.~.~.~.~.~.~.~.~.~.~.~.~.~.~.~.~.~.~.~.~.~.~.~.~.~.~.~.",
"~.~.~.~.~.~.~.~.~.~.~.~.~.~.~.~.~.~.~.~.~.~.~.~.~.~.~.~.~.~.~.~.~.~.~.~.~.~.~.~.~.~.~.~.~.~.~.~.~.~.",
"~.~.~.~.~.~.~.~.~.~.~.~.~.~.~.~.~.~.~.~.~.~.~.~.~.~.~.~.~.~.~.~.~.~.~.~.~.~.~.~.~.~.~.~.~.~.~.~.~.~.",
"~.~.~.~.~.~.~.~.~.~.~.~.~.~.~.~.~.~.~.~.~.~.~.~.~.~.~.~.~.~.~.~.~.~.~.~.~.~.~.~.~.~.~.~.~.~.~.~.~.~.",
"~.~.~.~.~.~.~.~.~.~.~.~.~.~.~.~.~.~.~.~.~.~.~.~.~.~.~.~.~.~.~.~.~.~.~.~.~.~.~.~.~.~.~.~.~.~.~.~.~.~.",
"~.~.~.~.~.~.~.~.~.~.~.~.~.~.~.~.~.~.~.~.~.~.~.~.~.W.W.W.~.~.~.~.~.~.~.~.~.~.~.~.~.~.~.~.~.~.~.~.~.~.",
"~.~.~.~.~.~.~.~.~.~.~.~.~.~.~.~.~.~.~.~.~.z.S ] } O.O.O...<.v.~.~.~.~.~.~.~.~.~.~.~.~.~.~.~.~.~.~.~.",
"~.~.~.~.~.~.~.~.~.~.~.~.~.~.~.~.~.~.~.4.Q ^ ` =.=.=.=.=.=.=.;.+.j.~.~.~.~.~.~.~.~.~.~.~.~.~.~.~.~.~.",
"~.~.~.~.~.~.~.~.~.~.~.~.~.~.~.~.~.t.! ( ( * %.=.=.*.=.*.=.=.=.=.>.1.~.~.~.~.~.~.~.~.~.~.~.~.~.~.~.~.",
"~.~.~.~.~.~.~.~.~.~.~.~.~.~.~.D.u ^ ( ) = ] =.*.=.=.=.=.=.*.=.=.-.:.W K.Q.~.~.~.~.~.~.~.~.~.~.~.~.~.",
"~.~.~.~.~.~.~.~.~.~.~.~.Y.l.J = ( ) ( ( = %.=.=.*.=.=.%.[ 9 q %.*.,.X.I t.R.~.~.~.~.~.~.~.~.~.~.~.~.",
"~.~.~.~.~.~.~.~.~.~.~.t.: ! / ) ( ( ( ( _ *.=.=.=.*.{ r 3.9.3.r } =.:.E b.y.~.~.~.~.~.~.~.~.~.~.~.~.",
"~.~.~.~.~.~.~.~.~.~.Q.E & * / ^ ( ( ( ( ' =.=.=.*.0 F d.N.V.V.0.Z { >.J D.i.W.~.~.~.~.~.~.~.~.~.~.~.",
"~.~.~.~.~.~.~.~.~.~.~.I.2 & & % ( ( ( ~ } *.=.*.0 3.M.V.A.A.Z.V.n.S o.G B.p.R.~.~.~.~.~.~.~.~.~.~.~.",
"~.~.~.~.~.~.~.~.~.~.~.~.J.y $ * ) ( ( ^ _ =.=.[ K N.Z.A.A.A.Z.A.S.f.8 b D.p.Y.~.~.~.~.~.~.~.~.~.~.~.",
"~.~.~.~.~.~.~.~.~.~.~.~.~.W.q.! ) ( ( ) &.=.%.3 6.B.V.A.S.A.S.Z.g.U @ c c.r.I.~.~.~.~.~.~.~.~.~.~.~.",
"~.~.~.~.~.~.~.~.~.~.~.~.~.~.v.Q ) ( ( ) &.*.] @ p z M Y 8.m.m.Y z c l V L.a.Y.~.~.~.~.~.~.~.~.~.~.~.",
"~.~.~.~.~.~.~.~.~.~.~.~.~.~.D.Q ) ( ( ( $.*.2 c v v c l # n H 7 l # # C ^.j.Y.~.~.~.~.~.~.~.~.~.~.~.",
"~.~.~.~.~.~.~.~.~.~.~.~.~.~.J.! ) ( ( ( ' | X @ # @ @ # @ z U l L P I W W.k.Y.~.~.~.~.~.~.~.~.~.~.~.",
"~.~.~.~.~.~.~.~.~.~.~.~.~.~.E.> ) ( ( ( ) Q f H j.k.a.B C Y m.E ^.U.8.L P.i.I.~.~.~.~.~.~.~.~.~.~.~.",
"~.~.~.~.~.~.~.~.~.~.~.~.~.~.~.S ( ( ( ( ) = 2.U P././.e.R s.A.6.i.L.w.N P.k.I.~.~.~.~.~.~.~.~.~.~.~.",
"~.~.~.~.~.~.~.~.~.~.~.~.~.~.W.r./ ( ( ( ) * 3.9.I c.P.j.U d.8.5.m n 7.E k.j.I.~.~.~.~.~.~.~.~.~.~.~.",
"~.~.~.~.~.~.~.~.~.~.~.~.~.~.~.I.! ( ( ) ) = 5 n.d.K M a b 7 o # l l x n k.a.I.~.~.~.~.~.~.~.~.~.~.~.",
"~.~.~.~.~.~.~.~.~.~.~.~.~.~.~.~.Y / ( ) ( / * J d.K 7 @ # k k c N N l # I L p.~.~.~.~.~.~.~.~.~.~.~.",
"~.~.~.~.~.~.~.~.~.~.~.~.~.~.~.~.!.w ( ) ( ( ( > O @ k p p p p c N l # C I I L ~.~.~.~.~.~.~.~.~.~.~.",
"~.~.~.~.~.~.~.~.~.~.~.~.~.~.~.~.~.E.A Q ( ( ) ( * . + # k # @ + 1   + i + V l.~.~.~.~.~.~.~.~.~.~.~.",
"~.~.~.~.~.~.~.~.~.~.~.~.~.~.~.~.~.~.~.i.A e , = % % .   X < - : _ 8 s g 6 R !.~.~.~.~.~.~.~.~.~.~.~.",
"~.~.~.~.~.~.~.~.~.~.~.~.~.~.~.~.~.~.~.~.~.T.p.2 [ - > { ` #.&. .) t 6 4 g q.~.~.~.~.~.~.~.~.~.~.~.~.",
"~.~.~.~.~.~.~.~.~.~.~.~.~.~.~.~.~.~.~.~.~.~.a./ $.> ' =.*.=.=.X.h n + s g l.~.~.~.~.~.~.~.~.~.~.~.~.",
"~.~.~.~.~.~.~.~.~.~.~.~.~.~.~.~.~.~.~.~.~.~.b / | : } =.=.=.=.@.l.H.u.# # G.~.~.~.~.~.~.~.~.~.~.~.~.",
"~.~.~.~.~.~.~.~.~.~.~.~.~.~.~.~.~.~.~.~.~.x.5 8 3 * } =.=.&.%...F.~.~.I P G.~.~.~.~.~.~.~.~.~.~.~.~.",
"~.~.~.~.~.~.~.~.~.~.~.~.~.~.~.~.~.~.~.~.~.V 6 s 6 ; , {  .J Z 8 y.~.!.I.C.W.!.~.~.~.~.~.~.~.~.~.~.~.",
"~.~.~.~.~.~.~.~.~.~.~.~.~.~.~.~.~.~.~.~.W.5 j D s O d h a t.t.8 W !.~.~.~.~.~.~.~.~.~.~.~.~.~.~.~.~.",
"~.~.~.~.~.~.~.~.~.~.~.~.~.~.~.~.~.~.~.~.~.V j D 4 O 5 a x c v + h.~.~.~.~.~.~.~.~.~.~.~.~.~.~.~.~.~.",
"~.~.~.~.~.~.~.~.~.~.~.~.~.~.~.~.~.~.~.~.~.W.P f o @ k T K.# k l h.~.~.~.~.~.~.~.~.~.~.~.~.~.~.~.~.~.",
"~.~.~.~.~.~.~.~.~.~.~.~.~.~.~.~.~.~.~.~.~.~.~.Y.V 6 s h.~.C 6 g h.~.~.~.~.~.~.~.~.~.~.~.~.~.~.~.~.~.",
"~.~.~.~.~.~.~.~.~.~.~.~.~.~.~.~.~.~.~.~.~.~.~.~.w.s g G.~.u.6 m z.~.~.~.~.~.~.~.~.~.~.~.~.~.~.~.~.~.",
"~.~.~.~.~.~.~.~.~.~.~.~.~.~.~.~.~.~.~.~.~.~.~.~.~.T.T.~.~.~.I.R.~.~.~.~.~.~.~.~.~.~.~.~.~.~.~.~.~.~.",
"~.~.~.~.~.~.~.~.~.~.~.~.~.~.~.~.~.~.~.~.~.~.~.~.~.~.~.~.~.~.~.~.~.~.~.~.~.~.~.~.~.~.~.~.~.~.~.~.~.~.",
"~.~.~.~.~.~.~.~.~.~.~.~.~.~.~.~.~.~.~.~.~.~.~.~.~.~.~.~.~.~.~.~.~.~.~.~.~.~.~.~.~.~.~.~.~.~.~.~.~.~.",
"~.~.~.~.~.~.~.~.~.~.~.~.~.~.~.~.~.~.~.~.~.~.~.~.~.~.~.~.~.~.~.~.~.~.~.~.~.~.~.~.~.~.~.~.~.~.~.~.~.~.",
"~.~.~.~.~.~.~.~.~.~.~.~.~.~.~.~.~.~.~.~.~.~.~.~.~.~.~.~.~.~.~.~.~.~.~.~.~.~.~.~.~.~.~.~.~.~.~.~.~.~.",
"~.~.~.~.~.~.~.~.~.~.~.~.~.~.~.~.~.~.~.~.~.~.~.~.~.~.~.~.~.~.~.~.~.~.~.~.~.~.~.~.~.~.~.~.~.~.~.~.~.~.",
"~.~.~.~.~.~.~.~.~.~.~.~.~.~.~.~.~.~.~.~.~.~.~.~.~.~.~.~.~.~.~.~.~.~.~.~.~.~.~.~.~.~.~.~.~.~.~.~.~.~.",
"~.~.~.~.~.~.~.~.~.~.~.~.~.~.~.~.~.~.~.~.~.~.~.~.~.~.~.~.~.~.~.~.~.~.~.~.~.~.~.~.~.~.~.~.~.~.~.~.~.~.",
"~.~.~.~.~.~.~.~.~.~.~.~.~.~.~.~.~.~.~.~.~.~.~.~.~.~.~.~.~.~.~.~.~.~.~.~.~.~.~.~.~.~.~.~.~.~.~.~.~.~.",
"~.~.~.~.~.~.~.~.~.~.~.~.~.~.~.~.~.~.~.~.~.~.~.~.~.~.~.~.~.~.~.~.~.~.~.~.~.~.~.~.~.~.~.~.~.~.~.~.~.~.",
"~.~.~.~.~.~.~.~.~.~.~.~.~.~.~.~.~.~.~.~.~.~.~.~.~.~.~.~.~.~.~.~.~.~.~.~.~.~.~.~.~.~.~.~.~.~.~.~.~.~.",
"~.~.~.~.~.~.~.~.~.~.~.~.~.~.~.~.~.~.~.~.~.~.~.~.~.~.~.~.~.~.~.~.~.~.~.~.~.~.~.~.~.~.~.~.~.~.~.~.~.~."
};
