/* XPM */
static char *result[] = {
/* columns rows colors chars-per-pixel */
"50 50 216 2 ",
"   c #030303",
".  c #06060A",
"X  c #0D0C0D",
"o  c #120101",
"O  c #1D0101",
"+  c #150900",
"@  c #190D0B",
"#  c #040714",
"$  c #0C121A",
"%  c #171516",
"&  c #1D1013",
"*  c #1D1D1D",
"=  c #2C0606",
"-  c #330906",
";  c #2A1302",
":  c #271508",
">  c #361704",
",  c #361311",
"<  c #322617",
"1  c #171C26",
"2  c #020632",
"3  c #151F32",
"4  c #351C2C",
"5  c #1D222C",
"6  c #242223",
"7  c #27282A",
"8  c #342A2D",
"9  c #262A33",
"0  c #2D343F",
"q  c #460304",
"w  c #570101",
"e  c #431C00",
"r  c #640E00",
"t  c #780401",
"y  c #532401",
"u  c #592300",
"i  c #5F2A00",
"p  c #452112",
"a  c #602700",
"s  c #652B01",
"d  c #692C00",
"f  c #693309",
"g  c #763200",
"h  c #7C3802",
"j  c #632E1C",
"k  c #78052F",
"l  c #6D0536",
"z  c #472238",
"x  c #433237",
"c  c #713736",
"v  c #744B18",
"b  c #01084E",
"n  c #341242",
"m  c #1C2C4C",
"M  c #273244",
"N  c #373B43",
"B  c #293A59",
"V  c #030C65",
"C  c #010C73",
"Z  c #281B68",
"A  c #29356D",
"S  c #530851",
"D  c #46136A",
"F  c #384969",
"G  c #2E497F",
"H  c #354B76",
"J  c #3C537A",
"K  c #494749",
"L  c #4E4C57",
"P  c #776951",
"I  c #40557E",
"U  c #4B627F",
"Y  c #646368",
"T  c #747371",
"R  c #840400",
"E  c #8C0000",
"W  c #940302",
"Q  c #9E0000",
"!  c #93010C",
"~  c #95140E",
"^  c #8A0215",
"/  c #A40000",
"(  c #AB0000",
")  c #B40000",
"_  c #BB0000",
"`  c #B61700",
"'  c #823902",
"]  c #8B3E00",
"[  c #912715",
"{  c #B1300B",
"}  c #AC2C31",
"|  c #CA0000",
" . c #D40101",
".. c #DA0102",
"X. c #E30101",
"o. c #EC0101",
"O. c #F50101",
"+. c #FE0101",
"@. c #FE1414",
"#. c #CB3133",
"$. c #8E4A0A",
"%. c #974603",
"&. c #A74B00",
"*. c #AD5A17",
"=. c #B5671A",
"-. c #96572A",
";. c #B74F2A",
":. c #8E6339",
">. c #AB6E2E",
",. c #D15407",
"<. c #CD690B",
"1. c #DA5D20",
"2. c #8F3A5C",
"3. c #917650",
"4. c #A67541",
"5. c #837576",
"6. c #C44850",
"7. c #BA8E34",
"8. c #EB861A",
"9. c #DDB617",
"0. c #E29D2B",
"q. c #E99231",
"w. c #F6D000",
"e. c #B78F47",
"r. c #A39B5B",
"t. c #D88159",
"y. c #F3A94C",
"u. c #F9AC4A",
"i. c #F9B253",
"p. c #E99668",
"a. c #DEB273",
"s. c #FABB64",
"d. c #EABD79",
"f. c #FCC676",
"g. c #130E8A",
"h. c #020F91",
"j. c #020F98",
"k. c #120F98",
"l. c #08119A",
"z. c #0211A9",
"x. c #111FAE",
"c. c #0818B6",
"v. c #1224AD",
"b. c #2431B3",
"n. c #4C1F98",
"m. c #364A88",
"M. c #3C5483",
"N. c #3A5589",
"B. c #435887",
"V. c #435E97",
"C. c #46629B",
"Z. c #547296",
"A. c #73668A",
"S. c #4E54B6",
"D. c #4867A5",
"F. c #4369B7",
"G. c #456BB5",
"H. c #4E73BB",
"J. c #537BB8",
"K. c #0A1DC4",
"L. c #0E21CE",
"P. c #1125CF",
"I. c #0E23D1",
"U. c #1326D8",
"Y. c #1A33F6",
"T. c #2539E9",
"R. c #3041DE",
"E. c #515BC2",
"W. c #4E76C3",
"Q. c #527AC7",
"!. c #5675D0",
"~. c #7379CE",
"^. c #5A85BB",
"/. c #5781C9",
"(. c #5A86D5",
"). c #5481DD",
"_. c #6493CE",
"`. c #5684E4",
"'. c #5B8BE5",
"]. c #5A8BEC",
"[. c #5B8DF2",
"{. c #5E91F4",
"}. c #5D92FE",
"|. c #679BE8",
" X c #6499F6",
".X c #6196FE",
"XX c #649BFE",
"oX c #73A9E6",
"OX c #6BA3FE",
"+X c #898894",
"@X c #9994AC",
"#X c #A69DB9",
"$X c #B1ADBE",
"%X c #CA9097",
"&X c #DD9F97",
"*X c #E19298",
"=X c #F89D9E",
"-X c #CFBDBD",
";X c #F5A9A9",
":X c #F5CB87",
">X c #FDD48F",
",X c #FFD792",
"<X c #FFD894",
"1X c #FEDB9C",
"2X c #ACA9C3",
"3X c #C6B4C7",
"4X c #C1BDD4",
"5X c #83C1FF",
"6X c #C7C5DA",
"7X c #D5D1D6",
"8X c #FAEFDC",
"9X c #DBD9E6",
"0X c #E4E2EB",
"qX c #F3EDE8",
"wX c #F5F4F6",
"eX c #F8F8F8",
/* pixels */
"}.}.}.}.}.}.}.}.}.}.}.}.}.}.}.}.}.}.}.}.}.}.}.}.}.}.}.}.}.}.}.}.}.}.}.}.}.}.}.}.}.}.}.}.}.}.}.}.}.}.",
"}.}.}.}.}.}.}.}.}.}.}.}.}.}.}.}.}.}.}.}.}.}.}.}.}.}.}.}.}.}.}.}.}.}.}.}.}.}.}.}.}.}.}.}.}.}.}.}.}.}.",
"}.}.}.}.}.}.}.}.}.}.}.}.}.}.}.}.}.}.}.}.}.}.}.}.}.}.}.}.}.}.}.}.}.}.}.}.}.}.}.}.}.}.}.}.}.}.}.}.}.}.",
"}.}.}.}.}.}.}.}.}.}.}.}.}.}.}.}.}.}.}.}.}.}.}.}.}.}.}.}.}.}.}.}.}.}.}.}.}.}.}.}.}.}.}.}.}.}.}.}.}.}.",
"}.}.}.}.}.}.}.}.}.}.}.}.}.}.}.}.}.}.[.!.F.F.F.F.F.F.F.W.!.}.}.}.}.}.}.}.}.}.}.}.}.}.}.}.}.}.}.}.}.}.",
"}.}.}.}.}.}.}.}.}.}.}.}.}.}.}.}.}.[.!.H X @ = O O O % 9 N.[.}.}.}.}.}.}.}.}.}.}.}.}.}.}.}.}.}.}.}.}.",
"}.}.}.}.}.}.}.}.}.}.}.}.}.}.}.}.}.W.B o E ..O.O.O.O.;XT 1 H ].}.}.}.}.}.}.}.}.}.}.}.}.}.}.}.}.}.}.}.",
"}.}.}.}.}.}.}.}.}.}.}.}.}.}.}.}.}.m., R X.O.+.+.+.+.*X7X+X3 `.}.}.}.}.}.}.}.}.}.}.}.}.}.}.}.}.}.}.}.",
"}.}.}.}.}.}.}.}.}.}.}.}.}.}.}.}.D.9 q X.+.+.+.+.O.| } %X@X# N.).}.}.}.}.}.}.}.}.}.}.}.}.}.}.}.}.}.}.",
"}.}.}.}.}.}.}.}.}.}.}.}.}.}.[.D.M - t +.+.+.+.+.O./ Q #.6.t 6 V.).}.}.}.}.}.}.}.}.}.}.}.}.}.}.}.}.}.",
"}.}.}.}.}.}.}.}.}.}.}.}.}.].D.7 = t  .+.+.+.+.O.../ ) ..+.o.w 8 C.}.}.}.}.}.}.}.}.}.}.}.}.}.}.}.}.}.",
"}.}.}.}.}.}.}.}.}.}.}.}.].D.6 = R  .+.+.+.+.O. .Q ( o.O.o.O...q N.}.}.}.}.}.}.}.}.}.}.}.}.}.}.}.}.}.",
"}.}.}.}.}.}.}.}.}.}.}.}.V.* O X.+.+.+.+.+.+. .Q / O.+.| / W o 7 C.}.}.}.}.}.}.}.}.}.}.}.}.}.}.}.}.}.",
"}.}.}.}.}.}.}.}.}.}.}.}.m.= E O.+.+.+.O.) ( / ) X.) *Xp.%.O 6 D.[.}.}.}.}.}.}.}.}.}.}.}.}.}.}.}.}.}.",
"}.}.}.}.}.}.}.}.}.}.}.}.G = / _ _ _ _ _ Q Q / ` 1.&XP 4.*.. 7 Q.}.}.}.}.}.}.}.}.}.}.}.}.}.}.}.}.}.}.",
"}.}.}.}.}.}.}.}.}.}.}.}.N.: w W Q Q / Q Q R { 1.8.8XK :.e.; % F Q.}.}.}.}.}.}.}.}.}.}.}.}.}.}.}.}.}.",
"}.}.}.}.}.}.}.}.}.}.}.}.J.B + r W { 6.;.~ u >.y.s.qXB.5.a.:.L 8 F Q.}.}.}.}.}.}.}.}.}.}.}.}.}.}.}.}.",
"}.}.}.}.}.}.}.}.}.}.}.}. XG.X e [ t.>Xd.f s >.:X1X8X~.@X>X1X8XP 6 F }.}.}.}.}.}.}.}.}.}.}.}.}.}.}.}.",
"}.}.}.}.}.}.}.}.}.}.}.}..XQ.8 . r.>Xs.q.f ] h -.>X,X,X,X<X<X<X<X3.m }.}.}.}.}.}.}.}.}.}.}.}.}.}.}.}.",
"}.}.}.}.}.}.}.}.}.}.}.}.}. X_.$ =.u.i.f.0.$.4.:X:X=.q.s.<X<X<Xi.v m }.}.}.}.}.}.}.}.}.}.}.}.}.}.}.}.",
"}.}.}.}.}.}.}.}.}.}.}.}.}.}. X^.K %.8.i.f.a.f.d.=.g v =.q.y.u.v 7 F }.}.}.}.}.}.}.}.}.}.}.}.}.}.}.}.",
"}.}.}.}.}.}.}.}.}.}.}.}.}.XX XI 8 f $.*.q.u.i.u.<.d > i ] v v < F W.}.}.}.}.}.}.}.}.}.}.}.}.}.}.}.}.",
"}.}.}.}.}.}.}.}.}.}.}.}.}.XX|.6 ; 4 n S &.1.1.8.8.%.e ; ; $ B J W.}.}.}.}.}.}.}.}.}.}.}.}.}.}.}.}.}.",
"}.}.}.}.}.}.}.}.}.}.}.}.'./.J.9 - 4 g.k.k ! { ,.,.;.[ - X N |..X}.}.}.}.}.}.}.}.}.}.}.}.}.}.}.}.}.}.",
"}.}.}.}.}.}.}.}.}.}.}.{.B.6 + o _  .k l.z.l ! Q ^ k.k w & 0 |.}.}.}.}.}.}.}.}.}.}.}.}.}.}.}.}.}.}.}.",
"}.}.}.}.}.}.}.}.}.}.}.I * q o.o.O.O. .^ k.k.S / ^ k.l | / $ `.}.}.}.}.}.}.}.}.}.}.}.}.}.}.}.}.}.}.}.",
"}.}.}.}.}.}.}.}.}.].I 5 Y -X;X@.+...( ! k.z.S ! ^ k.g.l t X H (.}.}.}.}.}.}.}.}.}.}.}.}.}.}.}.}.}.}.",
"}.}.}.}.}.}.}.}.(.J 5 Y $X0X9X=X#.) k D :.r.Y n.n.P.5.-.E w 1 G.}.}.}.}.}.}.}.}.}.}.}.}.}.}.}.}.}.}.",
"}.}.}.}.}.}.}.}.G.6 Y 7XwX9X9X0X%X2.D b.9.w.r.Y.Y.Y.e.<./ E o M.).}.}.}.}.}.}.}.}.}.}.}.}.}.}.}.}.}.",
"}.}.}.}.}.}.}.}.F.% 7XwXeXeXeX9XqX~.K.R.9.w.A.Y.Y.T.e.<.Q W x M C.}.}.}.}.}.}.}.}.}.}.}.}.}.}.}.}.}.",
"}.}.}.}.}.}.}.}.F.% 2XwXwXeXeXeX7XE.K.T.7.0.^.Y.Y.Y.3.;.~ } 3XN G }.}.}.}.}.}.}.}.}.}.}.}.}.}.}.}.}.",
"}.}.}.}.}.}.}.}.F.$ @X2X0XeXeXeXE.P.Y.Y.T.T.R.Y.Y.Y.x.S.#X#X6XN m.}.}.}.}.}.}.}.}.}.}.}.}.}.}.}.}.}.",
"}.}.}.}.}.}.}.}.H.6 6 +X4X6X6XE.x.I.Y.Y.Y.Y.Y.Y.Y.Y.c.A Y 2X2X0 m.}.}.}.}.}.}.}.}.}.}.}.}.}.}.}.}.}.",
"}.}.}.}.}.}.}.}.'.D.M 0 K K B z.z.c.I.Y.Y.Y.Y.Y.Y.L.c.l.m.@XL M N.}.}.}.}.}.}.}.}.}.}.}.}.}.}.}.}.}.",
"}.}.}.}.}.}.}.}.}.[.G.N.m @ # l.z.z.c.I.I.I.I.L.I.c.K.K.b.L 5 M.!.}.}.}.}.}.}.}.}.}.}.}.}.}.}.}.}.}.",
"}.}.}.}.}.}.}.}.}.}..X.XB.1 b j.z.z.j.C C C C h.z.z.U.Y.v.X F !.}.}.}.}.}.}.}.}.}.}.}.}.}.}.}.}.}.}.",
"}.}.}.}.}.}.}.}.}.}.}..XG 2 z.z.z.j.V X * % $ 2 h.z.U.Y.x.$ W.).[.}.}.}.}.}.}.}.}.}.}.}.}.}.}.}.}.}.",
"}.}.}.}.}.}.}.}.}.}.}.}.G 2 z.z.z.b X N oX5X^.* # j.z.U.x.    7 D.}.}.}.}.}.}.}.}.}.}.}.}.}.}.}.}.}.",
"}.}.}.}.}.}.}.}.}.}.}.B.1 2 z.z.z.b 0 oXOXOXZ.* # j.z.Z j ] y @ 9 V.}.}.}.}.}.}.}.}.}.}.}.}.}.}.}.}.",
"}.}.}.}.}.}.}.}.}.].B.1 : , z c x % 1 U ].OXM.& > 4 4 p a g u e : B }.}.}.}.}.}.}.}.}.}.}.}.}.}.}.}.",
"}.}.}.}.}.}.}.}.}.`.5 : e u u h s e : 5 '.OXJ ; ' u u y u u u g > m }.}.}.}.}.}.}.}.}.}.}.}.}.}.}.}.",
"}.}.}.}.}.}.}.}.}.`.$ y s u u u u s y $ '.XXM.: g g g g g g g g e B }.}.}.}.}.}.}.}.}.}.}.}.}.}.}.}.",
"}.}.}.}.}.}.}.}.}.`.3 s g d d d d h i 1 '.XXD.0 @ h ] ] $.] ] : 5 B.}.}.}.}.}.}.}.}.}.}.}.}.}.}.}.}.",
"}.}.}.}.}.}.}.}.}.[.V.3 u &.&.&.&.y $ N ].}.XX/.9 . . . .   . 5 C.}.}.}.}.}.}.}.}.}.}.}.}.}.}.}.}.}.",
"}.}.}.}.}.}.}.}.}.}.[.M.7 + + + + % L |.}.}.}.{.'.).).`.!.`.`.`.[.}.}.}.}.}.}.}.}.}.}.}.}.}.}.}.}.}.",
"}.}.}.}.}.}.}.}.}.}.}.).W.H.J.J.J.^.(.OX}.}.}.}.}.}.}.}.}.}.}.}.}.}.}.}.}.}.}.}.}.}.}.}.}.}.}.}.}.}.",
"}.}.}.}.}.}.}.}.}.}.}.}.}.XXXXXXOXXXXX}.}.}.}.}.}.}.}.}.}.}.}.}.}.}.}.}.}.}.}.}.}.}.}.}.}.}.}.}.}.}.",
"}.}.}.}.}.}.}.}.}.}.}.}.}.}.}.}.}.}.}.}.}.}.}.}.}.}.}.}.}.}.}.}.}.}.}.}.}.}.}.}.}.}.}.}.}.}.}.}.}.}.",
"}.}.}.}.}.}.}.}.}.}.}.}.}.}.}.}.}.}.}.}.}.}.}.}.}.}.}.}.}.}.}.}.}.}.}.}.}.}.}.}.}.}.}.}.}.}.}.}.}.}.",
"}.}.}.}.}.}.}.}.}.}.}.}.}.}.}.}.}.}.}.}.}.}.}.}.}.}.}.}.}.}.}.}.}.}.}.}.}.}.}.}.}.}.}.}.}.}.}.}.}.}."
};
