/* XPM */
static char *result[] = {
/* columns rows colors chars-per-pixel */
"50 50 53 1 ",
"  c #B67A8D",
". c #B87C8F",
"X c #BC8395",
"o c #C7899C",
"O c #CC8DA1",
"+ c #C394A3",
"@ c #DC9BB0",
"# c #F19CB7",
"$ c #F19EB9",
"% c #C7A2B0",
"& c #E3A1B6",
"* c #EFA5BD",
"= c #F1A3BC",
"- c #D0BBC4",
"; c #EFABC2",
": c #F3AFC5",
"> c #EEB1C6",
", c #EEB5CA",
"< c #EDBBCD",
"1 c #F3B1C7",
"2 c #F3B5C9",
"3 c #F4BACC",
"4 c #ECBFD0",
"5 c #F3BDD0",
"6 c #D2C5CD",
"7 c #D3CAD2",
"8 c #D6D4DB",
"9 c #ECC3D3",
"0 c #EAC8D7",
"q c #ECCBD9",
"w c #F2C2D2",
"e c #F3CDDA",
"r c #E7D2DE",
"t c #EAD2DE",
"y c #DADDE3",
"u c #E5D6E1",
"i c #EBD6E1",
"p c #E5DCE5",
"a c #EADAE4",
"s c #E2DFE8",
"d c #DAE1E5",
"f c #D7E4E9",
"g c #DEE5EC",
"h c #D7ECEF",
"j c #DEE8EE",
"k c #D7EFF3",
"l c #DCEDF2",
"z c #D0F4F7",
"x c #DAF1F5",
"c c #D3F4F8",
"v c #E2E3EA",
"b c #E8E2EA",
"n c #E3E8EE",
/* pixels */
"zzzzzzzzzzzzzzzzzzzzzzzzzzzzzzzzzzzzzzzzzzzzzzzzzz",
"zzzzzzzzzzzzzzzzzzzzzzzzzzzzzzzzzzzzzzzzzzzzzzzzzz",
"zzzzzzzzzzzzzzzzzzzzzzzzzzzzzzzzzzzzzzzzzzzzzzzzzz",
"zzzzzzzzzzzzzzzzzzzzzzzzzzzzzzzzzzzzzzzzzzzzzzzzzz",
"zzzzzzzzzzzzzzzzzzzzzzzzzzzzzzzzzzzzzzzzzzzzzzzzzz",
"zzzzzzzzzzzzzzzzzzzzzzzzzzzzzzzzzzzzzzzzzzzzzzzzzz",
"zzzzzzzzzzzzzzzzzzzzzzzzzzzzzzzzzzzzzzzzzzzzzzzzzz",
"zzzzzzzzzzzzzzzzzzzzzzzzzzzzzzzzzzzzzzzzzzzzzzzzzz",
"zzzzzzzzzzzzzzzzzzzzzzcczzzzzzzzzzzzzzzzzzzzzzzzzz",
"zzzzzzzzzzzzzzzzzzzzzxxlzzxczzzzzzzzzzzzzzzzzzzzzz",
"zzzzzzzzzzzzzzzzzxv03321>,3wqalzzzzzzzzzzzzzzzzzzz",
"zzzzzzzzzzzzzzzlq>:1:1::;,333339pxzzzzzzzzzzzzzzzz",
"zzzzzzzzzzzzzcu:1:::::::::33333333vczzzzzzzzzzzzzz",
"zzzzzzzzzzzzk4::::::::::::333333333tczzzzzzzzzzzzz",
"zzzzzzzzzzzf1:::::::::::::23333233339kzzzzzzzzzzzz",
"zzzzzzzzzzf,::::1:::::::wbxxxxxaw33333czzzzzzzzzzz",
"zzzzzzzzcn2::::::::::::txckd8dccl3221:wzzzzzzzzzzz",
"zzzzzzzzcw1::1::::::::3cz7X.X.+hcv:::::nzzzzzzzzzz",
"zzzzzzzzn1::::::::::::pcf. . . +zc9::::qzzzzzzzzzz",
"zzzzzzzzt1::::::::::11vc8   . .Xcc0::::2czzzzzzzzz",
"zzzzzzzze:::::::1:::::qck+ .   6cx2:::::xczzzzzzzz",
"zzzzzzzzq::1::::::::::1nzx-++%8ccq:::1::lzzzzzzzzz",
"zzzzzzzzq:::1:::::::::11tccxxxcl9:::::::xzzzzzzzzz",
"zzzzzzzxq:::::::::::::::12weeew1::::::::lczzzzzzzz",
"zzzzzzzzq:::::::::::::::11::::::::::::::xzzzzzzzzz",
"zzzzzzzzq1::::::::::::::1*2**1::::::::::xzzzzzzzzz",
"zzzzzzzzv1:::::::::::::::1&Oo@:::::::1:<zczzzzzzzz",
"zzzzzzzzzjw::::::1:::::::1o  o1:::::::qlzzzzzzcy8s",
"zzzzzzzzzzzt1:::::::::::::&OO&::::::5szzzzzzzz9#$$",
"zzzzzkszzcczxe11:::::::::111*1::::2pczzzzzzzk4##*p",
"zzzcq*#>hczzzcxi31:::::::::*1*:3qvkzzzzzguu0;##$pz",
"zzz<####*qkzzzzzclbtw333333weblxzzzzzzf<$#####;gzz",
"zc0####=$#*qlzzzzzzzzccccczcczzzzczzj,######;rkzzz",
"zn*##;uk<###$,ukkczzzzzccczzzzzzchr*####*,qvxzzzzz",
"zq##*lzz9######$:5iallllllllnpq1=#######nzzzzzzzzz",
"x>##0zzz9#########$##$$$=$$$############xzzzzzzzzz",
"x>##uzzz9###############################kzzzzzzzzz",
"c<##vzzz9#########$$$$$####$$$=$#######$czzzzzzzzz",
"zxvjzzzzp#########==;$#####$=====#######szzzzzzzzz",
"zzczzzzzz4#$######;;;$####$==:=:=#######$uzzzzzzzz",
"zzzzzzzzzc4########$$$#$=$#$=;$;$########$pzzzzzzz",
"zzzzzzzzzck*###########;;$###=$$###*#####$;kzzzzzz",
"zzzzzzzzzzz,###########$$#######;,plr$#####qzzzzzz",
"zzzzzzzzzzz,#####*04>;$*==$;,4ugkzzzzg#####;zzzzzz",
"zzzzzzzzzzz;#####9cczczzzzzzzzzzzzzzzzu###$;zzzzzz",
"zzzzzzzzzzg#####$lzzzzzzzzzzzzzzzzzzzzz;##$yzzzzzz",
"zzzzzzzzzc;$####0zzzzzzzzzzzzzzzzzzzzzz0##9zzzzzzz",
"zzzzzzzzz,#####9zzzzzzzzzzzzzzzzzzzzzzzcykzzzzzzzz",
"zzzzzzzzg###*>azzzzzzzzzzzzzzzzzzzzzzzzzzzzzzzzzzz",
"zzzzzzzzzyuplczzzzzzzzzzzzzzzzzzzzzzzzzzzzzzzzzzzz"
};
