/* XPM */
static char *result[] = {
/* columns rows colors chars-per-pixel */
"50 50 29 1 ",
"  c #C99869",
". c #C89768",
"X c #C89565",
"o c #C99868",
"O c #C89666",
"+ c #C69261",
"@ c #C5905D",
"# c #C79463",
"$ c #C6915E",
"% c #C58F5C",
"& c #C58F5D",
"* c #C79565",
"= c #C89767",
"- c #C69260",
"; c #C69160",
": c #C5905E",
"> c #C89667",
", c #C99768",
"< c #C6915F",
"1 c #C79564",
"2 c #C69362",
"3 c #C79464",
"4 c #C6905E",
"5 c #C89665",
"6 c #C79362",
"7 c #C79361",
"8 c #C5915F",
"9 c #C69361",
"0 c white",
/* pixels */
"                                                  ",
"                                                  ",
"                                                  ",
"                                                  ",
"                                                  ",
"                                                  ",
"                                                  ",
"                                                  ",
"       .Xo              OO              oX.       ",
"      .+@#             O$$O             #@+.      ",
"     .+%%&#           O$%%$O           #&%%+.     ",
"    .+%%%%@#         O$%%%%$O         #@%%%%+.    ",
"   .+%%%%%%&#       *$%%%%%%$*       #&%%%%%%+=   ",
"  =-%%%%%%%%&#     *@%%%%%%%%@*     #&%%%%%%%%;=  ",
" =-%%%%%%%%%%@#   *:%%%%%%%%%%:*   #@%%%%%%%%%%-= ",
">-%%%%%%%%%%%%&#,*@%%%%%%%%%%%%@*,#&%%%%%%%%%%%%->",
"<%%%%%%%%%%%%%%@+:%%%%%%%%%%%%%%:+@%%%%%%%%%%%%%%<",
"%%%%%%%%%%%%%%%%%%%%%%%%%%%%%%%%%%%%%%%%%%%%%%%%%%",
"%%%%%%%%%%%%%%%%%%%%%%%%%%%%%%%%%%%%%%%%%%%%%%%%%%",
"%%%%%%%@-&%%%%%%%%%%%%%%<<%%%%%%%%%%%%%%&-@%%%%%%%",
"%%%%%%@1,2&%%%%%%%%%%%%<>><%%%%%%%%%%%%&2,1@%%%%%%",
"%%%%%@3  o2&%%%%%%%%%%<>  ><%%%%%%%%%%&2o  3@%%%%%",
"%%%%@1    ,2&%%%%%%%%<>    ><%%%%%%%%&2,    1@%%%%",
"%%%4*       2&%%%%%%->      >-%%%%%%&2       *4%%%",
"%%:X        ,2&%%%%+.        .+%%%%&2,        X:%%",
"%45          o2&%%+.          .+%%&2o          54%",
"4X            o2&+.            .+&2o            X4",
"O              ,*=              =*,              O",
"                                                  ",
"                                                  ",
"       O6=             o33o             =6O       ",
"      O$%;=            #&&#            =;%$O      ",
"     O$%%%-=          #&%%&#          =-%%%$O     ",
"    O$%%%%%<=        #&%%%%&#        =<%%%%%$O    ",
"   X$%%%%%%%-=     ,6@%%%%%%@6,     =-%%%%%%%:*   ",
"  *@%%%%%%%%%;=   ,7%%%%%%%%%%7,   =;%%%%%%%%%@*  ",
" *:%%%%%%%%%%%;= ,7%%%%%%%%%%%%7, =;%%%%%%%%%%%:* ",
"3:%%%%%%%%%%%%%-O7%%%%%%%%%%%%%%7O-%%%%%%%%%%%%%:3",
"&%%%%%%%%%%%%%%%@&%%%%%%%%%%%%%%&@%%%%%%%%%%%%%%%&",
"%%%%%%%%%%%%%%%%%%%%%%%%%%%%%%%%%%%%%%%%%%%%%%%%%%",
"%%%%%%%%@%%%%%%%%%%%%%%%@@%%%%%%%%%%%%%%%@%%%%%%%%",
"%%%%%%%+*<%%%%%%%%%%%%%@##@%%%%%%%%%%%%%4X6%%%%%%%",
"%%%%%%+. >8%%%%%%%%%%%@3  3@%%%%%%%%%%%:5 ,6%%%%%%",
"%%%%%+.   ><%%%%%%%%%@3    3@%%%%%%%%%4X   ,6%%%%%",
"%%%%6,     ><%%%%%%%@#      #@%%%%%%%:X     ,6%%%%",
"%%%6,       =-%%%%%@3        X4%%%%%<O       ,6%%%",
"%%6,         =-%%%@#          X4%%%<>         ,6%%",
"%6,           ,-%@3            X4%8>           ,6%",
"2.             =93              X+>             ,#",
",               ,                ,                "
};
