/* XPM */
static char *result[] = {
/* columns rows colors chars-per-pixel */
"50 50 120 2 ",
"   c #160B06",
".  c #170B06",
"X  c #2F1206",
"o  c #2F1207",
"O  c #301307",
"+  c #301308",
"@  c #36170A",
"#  c #3C1708",
"$  c #37180B",
"%  c #36190C",
"&  c #38180B",
"*  c #381A0C",
"=  c #3B1D0F",
"-  c #3C1D0F",
";  c #3C1E0F",
":  c #2E1C11",
">  c #3D1E10",
",  c #3D1F10",
"<  c #3E1F10",
"1  c #3F1F11",
"2  c #3F2011",
"3  c #382418",
"4  c #3D271A",
"5  c #3E271A",
"6  c #3C281B",
"7  c #3D281B",
"8  c #3D281C",
"9  c #3E281C",
"0  c #3E291C",
"q  c #3F291C",
"w  c #401C0B",
"e  c #442B1D",
"r  c #442C1D",
"t  c #5D2A15",
"y  c #653018",
"u  c #673118",
"i  c #673119",
"p  c #683119",
"a  c #683219",
"s  c #693219",
"d  c #69321A",
"f  c #69331A",
"g  c #6A331A",
"h  c #6B331A",
"j  c #6E341B",
"k  c #6C371F",
"l  c #793A1F",
"z  c #7A3B1F",
"x  c #7B3B1F",
"c  c #452F21",
"v  c #463022",
"b  c #763C22",
"n  c #773C22",
"m  c #773D22",
"M  c #773D23",
"N  c #783D22",
"B  c #783D23",
"V  c #7A3F23",
"C  c #803F21",
"Z  c #824226",
"A  c #834226",
"S  c #874325",
"D  c #844326",
"F  c #854527",
"G  c #864527",
"H  c #884325",
"J  c #894424",
"K  c #894425",
"L  c #894426",
"P  c #8A4426",
"I  c #8B4526",
"U  c #8D4527",
"Y  c #8D4626",
"T  c #8D4627",
"R  c #8E4627",
"E  c #8F4627",
"W  c #854628",
"Q  c #894728",
"!  c #8A4829",
"~  c #8F4828",
"^  c #8D4B2D",
"/  c #904828",
"(  c #904928",
")  c #914E2F",
"_  c #994D2B",
"`  c #9A4D2A",
"'  c #9B4E2A",
"]  c #9B4E2B",
"[  c #9C4E2B",
"{  c #9B4E2C",
"}  c #9B4F2C",
"|  c #9F512D",
" . c #924F30",
".. c #925030",
"X. c #A1522D",
"o. c #A1522E",
"O. c #A3532E",
"+. c #A4532F",
"@. c #A55430",
"#. c #A75530",
"$. c #A75630",
"%. c #A75631",
"&. c #A45632",
"*. c #A85630",
"=. c #A95631",
"-. c #A95731",
";. c #AC5832",
":. c #AC5932",
">. c #AD5933",
",. c #AE5933",
"<. c #AE5A33",
"1. c #A85834",
"2. c #AA5A36",
"3. c #AD5C36",
"4. c #B75F37",
"5. c #B76038",
"6. c #B96039",
"7. c #B86139",
"8. c #C1653B",
"9. c None",
/* pixels */
"9.8.8.8.8.8.8.8.8.8.8.8.8.8.8.8.8.8.8.8.8.8.8.] 9.9.6.8.8.8.8.8.8.8.8.8.8.8.8.8.8.8.8.8.8.8.8.8.8.9.",
"[ -.-.-.-.-.-.-.-.-.-.-.-.-.-.-.-.-.-.-.-.-.-.H c v [ -.-.-.-.-.-.-.-.-.-.-.-.-.-.-.-.-.-.-.-.-.-.z ",
"' -.-.-.-.-.-.-.-.-.-.-.-.-.-.-.-.-.-.-.-.-.-.H q 0 ' -.-.-.-.-.-.-.-.-.-.-.-.-.-.-.-.-.-.-.-.-.=.z ",
"] -.-.-.-.-.-.-.-.-.-.-.-.-.-.-.-.-.-.-.-.-.-.H q 0 ' -.-.-.-.-.-.-.-.-.-.-.-.-.-.-.-.-.-.-.-.-.-.z ",
"] -.-.-.-.-.-.-.-.-.-.-.-.-.-.-.-.-.-.-.-.-.-.H q 0 ' -.-.-.-.-.-.-.-.-.-.-.-.-.-.-.-.-.-.-.-.-.=.z ",
"' -.-.-.-.-.-.-.-.-.-.-.-.-.-.-.-.-.-.-.-.-.-.H q 0 ] -.-.-.-.-.-.-.-.-.-.-.-.-.-.-.-.-.-.-.-.-.=.z ",
"] -.-.-.-.-.-.-.-.-.-.-.-.-.-.-.-.-.-.-.-.-.-.H q 0 ] -.-.-.-.-.-.-.-.-.-.-.-.-.-.-.-.-.-.-.-.-.=.z ",
"] -.-.-.-.-.-.-.-.-.-.-.-.-.-.-.-.-.-.-.-.-.-.K q 0 ] -.-.-.-.-.-.-.-.-.-.-.-.-.-.-.-.-.-.-.-.-.=.z ",
"' -.-.-.-.-.-.-.-.-.-.-.-.-.-.-.-.-.-.-.-.-.-.K q 0 ] -.-.-.-.-.-.-.-.-.-.-.-.-.-.-.-.-.-.-.-.-.=.z ",
"' -.-.-.-.-.-.-.-.-.-.-.-.-.-.-.-.-.-.-.-.-.-.L q 0 ] -.-.-.-.-.-.-.-.-.-.-.-.-.-.-.-.-.-.-.-.-.=.z ",
"] -.-.-.-.-.-.-.-.-.-.-.-.-.-.-.-.-.-.-.-.-.-.P q 0 ' -.-.-.-.-.-.-.-.-.-.-.-.-.-.-.-.-.-.-.-.-.=.z ",
"' -.-.-.-.-.-.-.-.-.-.-.-.-.-.-.-.-.-.-.-.-.-.P q 0 ] -.-.-.-.-.-.-.-.-.-.-.-.-.-.-.-.-.-.-.-.-.=.z ",
"] -.-.-.-.-.-.-.-.-.-.-.-.-.-.-.-.-.-.-.-.-.-.P q 0 ] -.-.-.-.-.-.-.-.-.-.-.-.-.-.-.-.-.-.-.-.-.-.z ",
"' -.-.-.-.-.-.-.-.-.-.-.-.-.-.-.-.-.-.-.-.-.-.P q 0 ' -.-.-.-.-.-.-.-.-.-.-.-.-.-.-.-.-.-.-.-.-.=.z ",
"u i i i i i i i i i i i p p p p a p a a a a a p 7 7 y s s s d d d d d f g g g g g g g g g h h h h t ",
"9.% = = = = = - ; ; ; ; ; ; ; ; ; ; ; ; ; > > 5 6 6 4 , , , , < < < < < < < < < < 1 2 2 2 2 2 2 * 9.",
"9.3 6 6 6 6 6 6 6 6 6 6 6 6 6 6 6 6 6 6 6 6 6 6 6 6 6 6 6 6 6 6 6 6 6 6 6 6 6 6 6 6 6 6 6 6 6 6 : 9.",
"9.7.7.7.7.7.7.7.7.7.1.6 6 6 2.7.7.7.7.7.7.7.7.7.7.7.7.7.7.7.7.7.7.7.7.&.6 6 6 3.7.7.7.7.7.7.7.7.5.9.",
"X.,.<.<.<.,.<.<.<.<.@.Z 6 W *.<.<.<.<.<.<.<.<.<.,.<.<.<.<.<.<.<.<.<.,.| M 6 ! -.<.<.<.<.<.<.<.<.>.C ",
"' -.-.-.-.-.-.-.-.-.o.A 6 G O.-.-.-.-.-.-.-.-.-.-.-.-.-.-.-.-.-.-.-.-.{ b 6 Q +.-.-.-.-.-.-.-.-.-.z ",
"] -.-.-.-.-.-.-.-.-.o.A 6 G O.-.-.-.-.-.-.-.-.-.-.-.-.-.-.-.-.-.-.-.-.{ n 6 Q +.-.-.-.-.-.-.-.-.=.z ",
"' =.-.-.-.-.-.-.-.-.o.D 6 G O.-.-.-.-.-.-.-.-.-.-.-.-.-.-.-.-.-.-.-.-.{ n 6 Q +.-.-.-.-.-.-.-.-.=.z ",
"' -.-.-.-.-.-.-.-.-.o.D 6 G O.-.-.-.-.-.-.-.-.-.-.-.-.-.-.-.-.-.-.-.-.{ n 6 Q +.-.-.-.-.-.-.-.-.=.z ",
"] -.-.-.-.-.-.-.-.-.o.D 6 F O.-.-.-.-.-.-.-.-.-.-.-.-.-.-.-.-.-.-.-.-.} m 6 Q +.-.-.-.-.-.-.-.-.=.z ",
"] -.-.-.-.-.-.-.-.-.o.D 6 G O.-.-.-.-.-.-.-.-.-.-.-.-.-.-.-.-.-.-.-.-.{ m 6 Q +.-.-.-.-.-.-.-.-.=.z ",
"' -.-.-.-.-.-.-.-.-.o.D 6 G O.-.-.-.-.-.-.-.-.-.-.-.-.-.-.-.-.-.-.-.-.{ m 6 Q +.-.-.-.-.-.-.-.-.=.z ",
"] -.-.-.-.-.-.-.-.-.o.D 6 G O.-.-.-.-.-.-.-.-.-.-.-.-.-.-.-.-.-.-.-.-.} m 6 Q +.-.-.-.-.-.-.-.-.=.z ",
"] -.-.-.-.-.-.-.-.-.o.D 6 G O.-.-.-.-.-.-.-.-.-.-.-.-.-.-.-.-.-.-.-.-.} m 6 Q +.-.-.-.-.-.-.-.-.=.z ",
"] -.-.-.-.-.-.-.-.-.o.D 6 G O.-.-.-.-.-.-.-.-.-.-.-.-.-.-.-.-.-.-.-.-.} m 6 Q +.-.-.-.-.-.-.-.-.-.z ",
"' -.-.-.-.-.-.-.-.-.o.D 6 G O.-.-.-.-.-.-.-.-.-.-.-.-.-.-.-.-.-.-.-.-.} N 6 Q +.-.-.-.-.-.-.-.-.=.z ",
"] -.-.-.-.-.-.-.-.-.o.D 6 G O.-.-.-.-.-.-.-.-.-.-.-.-.-.-.-.-.-.-.-.-.} B 6 Q +.-.-.-.-.-.-.-.-.=.z ",
"J / / / / / / / / / I m 6 M Y / / / / / / / / / / / / / / / / / / ( / S k 6 V T / / / / / / / / ~ j ",
"9.o O O O + O + O O & 6 6 6 $ O O + O O + O + O O O + + O + + + + O O & 6 6 6 @ + O O O O O O O X 9.",
"9.3 6 6 6 6 6 6 6 6 6 6 6 6 6 6 6 6 6 6 6 6 6 6 6 6 6 6 6 6 6 6 6 6 6 6 6 6 6 6 6 6 6 6 6 6 6 6 : 9.",
"9.) .................... . ......... .........e 6 6 r .................... ....... . ...........^ 9.",
";.4.4.4.4.4.4.4.4.4.4.4.4.4.4.4.4.4.4.4.4.4.4._ 9 8 :.4.4.4.4.4.4.4.4.4.4.4.4.4.4.4.4.4.4.4.4.4.4.T ",
"] -.-.-.-.-.-.-.-.-.-.-.-.-.-.-.-.-.-.-.-.-.-.R q 0 ] -.-.-.-.-.-.-.-.-.-.-.-.-.-.-.-.-.-.-.-.-.=.x ",
"] -.-.-.-.-.-.-.-.-.-.-.-.-.-.-.-.-.-.-.-.-.-.R q 0 ' -.-.-.-.-.-.-.-.-.-.-.-.-.-.-.-.-.-.-.-.-.=.x ",
"] -.-.-.-.-.-.-.-.-.-.-.-.-.-.-.-.-.-.-.-.-.-.R q 0 ' -.-.-.-.-.-.-.-.-.-.-.-.-.-.-.-.-.-.-.-.-.=.x ",
"] -.-.-.-.-.-.-.-.-.-.-.-.-.-.-.-.-.-.-.-.-.-.R q 0 ] -.-.-.-.-.-.-.-.-.-.-.-.-.-.-.-.-.-.-.-.-.-.x ",
"] -.-.-.-.-.-.-.-.-.-.-.-.-.-.-.-.-.-.-.-.-.-.R q 0 ] -.-.-.-.-.-.-.-.-.-.-.-.-.-.-.-.-.-.-.-.-.=.x ",
"] -.-.-.-.-.-.-.-.-.-.-.-.-.-.-.-.-.-.-.-.-.-.R q 0 ] -.-.-.-.-.-.-.-.-.-.-.-.-.-.-.-.-.-.-.-.-.=.x ",
"' -.-.-.-.-.-.-.-.-.-.-.-.-.-.-.-.-.-.-.-.-.-.R q 0 ] -.-.-.-.-.-.-.-.-.-.-.-.-.-.-.-.-.-.-.-.-.=.x ",
"' -.-.-.-.-.-.-.-.-.-.-.-.-.-.-.-.-.-.-.-.-.-.R q 0 ' -.-.-.-.-.-.-.-.-.-.-.-.-.-.-.-.-.-.-.-.-.-.x ",
"' -.-.-.-.-.-.-.-.-.-.-.-.-.-.-.-.-.-.-.-.-.-.E q 0 ] -.-.-.-.-.-.-.-.-.-.-.-.-.-.-.-.-.-.-.-.-.=.x ",
"' =.-.-.-.-.-.-.-.-.-.-.-.-.-.-.-.-.-.-.-.-.-.E q 0 ] -.-.-.-.-.-.-.-.-.-.-.-.-.-.-.-.-.-.-.-.-.=.x ",
"] -.-.-.-.-.-.-.-.-.-.-.-.-.-.-.-.-.-.-.-.-.-.E q 0 ] -.-.-.-.-.-.-.-.-.-.-.-.-.-.-.-.-.-.-.-.-.=.x ",
"] -.-.-.-.-.-.-.-.-.-.-.-.-.-.-.-.-.-.-.-.-.-.E q 0 ' -.-.-.-.-.-.-.-.-.-.-.-.-.-.-.-.-.-.-.-.-.=.x ",
"` #.%.$.$.$.$.%.$.$.$.%.%.$.$.$.%.$.%.$.%.%.$.U .   ` %.%.$.$.$.$.$.%.%.$.$.%.$.%.$.%.$.%.%.$.$.#.l ",
"9.X X X X X X X X X X X X X X X X X X X X X X # 9.9.w X X X X X X X X X X X X X X X X X X X X X X 9."
};
